<svg xmlns="http://www.w3.org/2000/svg" xmlns:xlink="http://www.w3.org/1999/xlink" x="0" y="0" width="661.2666625976562" height="557.7333374023438" style="
        width:661.2666625976562px;
        height:557.7333374023438px;
        background: transparent;
        fill: none;
">
        
        
        <svg xmlns="http://www.w3.org/2000/svg" class="role-diagram-draw-area"><g class="shapes-region" style="stroke: black; fill: none;"><g class="arrow-line"><path class="connection real" stroke-dasharray="" d="  M198.33,134.33 L457.33,134.67  M286.34,130.45 L286.33,138.45 M374.34,130.56 L374.33,138.56" style="stroke: rgb(0, 0, 0); stroke-width: 1px; fill: none; fill-opacity: 1;"/></g><g class="composite-shape"><path class="real" d=" M415.44,134.38 C415.44,133.03 416.7,131.93 418.25,131.93 C419.81,131.93 421.07,133.03 421.07,134.38 C421.07,135.72 419.81,136.82 418.25,136.82 C416.7,136.82 415.44,135.72 415.44,134.38 Z" style="stroke-width: 1px; stroke: rgb(0, 0, 0); fill: rgb(74, 144, 226); fill-opacity: 1;"/></g><g class="composite-shape"><path class="real" d=" M329.02,134.5 C329.02,133.15 330.28,132.06 331.83,132.06 C333.39,132.06 334.65,133.15 334.65,134.5 C334.65,135.85 333.39,136.94 331.83,136.94 C330.28,136.94 329.02,135.85 329.02,134.5 Z" style="stroke-width: 1px; stroke: rgb(0, 0, 0); fill: rgb(74, 144, 226); fill-opacity: 1;"/></g><g class="composite-shape"><path class="real" d=" M243.25,133.67 C243.25,132.32 244.51,131.22 246.07,131.22 C247.62,131.22 248.88,132.32 248.88,133.67 C248.88,135.02 247.62,136.11 246.07,136.11 C244.51,136.11 243.25,135.02 243.25,133.67 Z" style="stroke-width: 1px; stroke: rgb(0, 0, 0); fill: rgb(74, 144, 226); fill-opacity: 1;"/></g><g class="arrow-line"><path class="connection real" stroke-dasharray="" d="  M294.33,174.68 L369.33,174.98" style="stroke: rgb(0, 0, 0); stroke-width: 3px; fill: none; fill-opacity: 1;"/><g stroke="#000" transform="matrix(-0.9999919428800662,-0.00401424649846379,0.00401424649846379,-0.9999919428800662,373.33333333333337,175.00000000000003)" style="stroke: rgb(0, 0, 0); stroke-width: 3px;"><path d=" M17.49,-5.26 Q7.94,-0.72 0,0 Q7.94,0.72 17.49,5.26"/></g><g stroke="#000" transform="matrix(0.9999919428800662,0.004014246498463718,-0.004014246498463718,0.9999919428800662,290.3333333333333,174.66666666666674)" style="stroke: rgb(0, 0, 0); stroke-width: 3px;"><path d=" M17.49,-5.26 Q7.94,-0.72 0,0 Q7.94,0.72 17.49,5.26"/></g></g><g/></g><g/><g/><g/></svg>
        <svg xmlns="http://www.w3.org/2000/svg" xmlns:xlink="http://www.w3.org/1999/xlink" width="660" height="556.4666748046875" style="width:660px;height:556.4666748046875px;font-family:Asana-Math, Asana;background:transparent;"><g><g><g><g transform="matrix(1,0,0,1,329.9666442871094,164.36668395996094)"><path transform="matrix(0.017,0,0,-0.017,0,0)" d="M34 388L41 368L73 389C110 412 113 414 120 414C130 414 138 404 138 391C138 384 134 361 130 347L64 107C56 76 51 49 51 30C51 6 62 -9 81 -9C107 -9 143 12 241 85L231 103L205 86C176 67 153 56 144 56C137 56 131 66 131 76C131 86 133 95 138 116L215 420C219 437 221 448 221 456C221 473 212 482 196 482C174 482 137 461 62 408ZM228 712C199 712 170 679 170 645C170 620 185 604 209 604C240 604 264 633 264 671C264 695 249 712 228 712Z" stroke="rgb(0,0,0)" stroke-opacity="1" stroke-width="8" fill="rgb(0,0,0)" fill-opacity="1"></path></g></g></g></g><g><g><g><g transform="matrix(1,0,0,1,401.9666442871094,163.03334045410156)"><path transform="matrix(0.017,0,0,-0.017,0,0)" d="M34 388L41 368L73 389C110 412 113 414 120 414C130 414 138 404 138 391C138 384 134 361 130 347L64 107C56 76 51 49 51 30C51 6 62 -9 81 -9C107 -9 143 12 241 85L231 103L205 86C176 67 153 56 144 56C137 56 131 66 131 76C131 86 133 95 138 116L215 420C219 437 221 448 221 456C221 473 212 482 196 482C174 482 137 461 62 408ZM228 712C199 712 170 679 170 645C170 620 185 604 209 604C240 604 264 633 264 671C264 695 249 712 228 712Z" stroke="rgb(0,0,0)" stroke-opacity="1" stroke-width="8" fill="rgb(0,0,0)" fill-opacity="1"></path></g></g><g><g transform="matrix(1,0,0,1,410.0833435058594,163.03334045410156)"><path transform="matrix(0.017,0,0,-0.017,0,0)" d="M604 241L604 300L364 300L364 538L305 538L305 300L65 300L65 241L305 241L305 0L364 0L364 241Z" stroke="rgb(0,0,0)" stroke-opacity="1" stroke-width="8" fill="rgb(0,0,0)" fill-opacity="1"></path></g></g><g><g transform="matrix(1,0,0,1,424.8333435058594,163.03334045410156)"><path transform="matrix(0.017,0,0,-0.017,0,0)" d="M418 -3L418 27L366 30C311 33 301 44 301 96L301 700L60 598L67 548L217 614L217 96C217 44 206 33 152 30L96 27L96 -3C250 0 250 0 261 0C292 0 402 -3 418 -3Z" stroke="rgb(0,0,0)" stroke-opacity="1" stroke-width="8" fill="rgb(0,0,0)" fill-opacity="1"></path></g></g></g></g><g><g><g><g transform="matrix(1,0,0,1,231.30001831054688,164.03334045410156)"><path transform="matrix(0.017,0,0,-0.017,0,0)" d="M34 388L41 368L73 389C110 412 113 414 120 414C130 414 138 404 138 391C138 384 134 361 130 347L64 107C56 76 51 49 51 30C51 6 62 -9 81 -9C107 -9 143 12 241 85L231 103L205 86C176 67 153 56 144 56C137 56 131 66 131 76C131 86 133 95 138 116L215 420C219 437 221 448 221 456C221 473 212 482 196 482C174 482 137 461 62 408ZM228 712C199 712 170 679 170 645C170 620 185 604 209 604C240 604 264 633 264 671C264 695 249 712 228 712Z" stroke="rgb(0,0,0)" stroke-opacity="1" stroke-width="8" fill="rgb(0,0,0)" fill-opacity="1"></path></g></g><g><g transform="matrix(1,0,0,1,239.41665649414062,164.03334045410156)"><path transform="matrix(0.017,0,0,-0.017,0,0)" d="M555 243L555 299L51 299L51 243Z" stroke="rgb(0,0,0)" stroke-opacity="1" stroke-width="8" fill="rgb(0,0,0)" fill-opacity="1"></path></g></g><g><g transform="matrix(1,0,0,1,253.10000610351562,164.03334045410156)"><path transform="matrix(0.017,0,0,-0.017,0,0)" d="M418 -3L418 27L366 30C311 33 301 44 301 96L301 700L60 598L67 548L217 614L217 96C217 44 206 33 152 30L96 27L96 -3C250 0 250 0 261 0C292 0 402 -3 418 -3Z" stroke="rgb(0,0,0)" stroke-opacity="1" stroke-width="8" fill="rgb(0,0,0)" fill-opacity="1"></path></g></g></g></g><g><g><g><g transform="matrix(1,0,0,1,320.7333679199219,199.73335876464844)"><path transform="matrix(0.020399999999999998,0,0,-0.020399999999999998,0,0)" d="M-33 6L-28 -4C79 0 185 0 292 0C393 0 494 -1 594 -4L602 6C560 116 534 238 504 354C475 466 442 580 424 697L399 697C336 587 53 127 -33 6ZM482 37L50 37C148 215 249 389 356 564L363 564C408 391 449 215 482 37ZM697 1C712 -7 728 -11 740 -11C773 -11 812 18 843 65L919 182L930 113C943 28 966 -11 1002 -11C1024 -11 1056 6 1088 35L1137 79L1128 98C1092 68 1067 53 1051 53C1036 53 1023 63 1013 83C1004 102 993 139 988 168L970 269L1005 318C1052 383 1079 406 1110 406C1126 406 1138 398 1143 383L1157 387L1172 472C1160 479 1151 482 1142 482C1102 482 1062 446 1000 354L963 299L957 347C945 446 918 482 859 482C833 482 811 474 802 461L744 378L761 368C791 402 811 416 830 416C863 416 885 375 902 277L913 215L873 153C830 86 796 54 768 54C753 54 742 58 740 63L729 91L709 88C709 53 701 27 697 1Z" stroke="rgb(0,0,0)" stroke-opacity="1" stroke-width="8" fill="rgb(0,0,0)" fill-opacity="1"></path></g></g></g></g></svg>
</svg>
