<svg xmlns="http://www.w3.org/2000/svg" xmlns:xlink="http://www.w3.org/1999/xlink" x="0" y="0" width="662.86669921875" height="641.933349609375" style="
        width:662.86669921875px;
        height:641.933349609375px;
        background: transparent;
        fill: none;
">
        
        
        <svg xmlns="http://www.w3.org/2000/svg" class="role-diagram-draw-area"><g class="shapes-region" style="stroke: black; fill: none;"><g class="shape"><polygon class="real" points=" 476.06,50.29 327.06,196.09 156.15,197.58 156.15,50.35 273.12,50.57" style="stroke: rgb(0, 0, 0); stroke-width: 3px; fill: rgb(155, 155, 155); fill-opacity: 1;"/></g><g class="composite-shape"><path class="real" d=" M291.76,50.35 L427.36,50.35 L427.36,197.58 L291.76,197.58 Z" style="stroke-width: 3px; stroke: rgb(0, 0, 0); fill: none; fill-opacity: 1;"/></g><g class="composite-shape"><path class="real" d=" M427.36,50.35 L562.97,50.35 L562.97,197.58 L427.36,197.58 Z" style="stroke-width: 3px; stroke: rgb(0, 0, 0); fill: none; fill-opacity: 1;"/></g><g class="composite-shape"><path class="real" d=" M156.15,50.35 L291.76,50.35 L291.76,197.58 L156.15,197.58 Z" style="stroke-width: 3px; stroke: rgb(0, 0, 0); fill: none; fill-opacity: 1;"/></g><g class="composite-shape"><path class="real" d=" M496.9,197.67 C496.9,195.36 498.89,193.48 501.34,193.48 C503.8,193.48 505.79,195.36 505.79,197.67 C505.79,199.98 503.8,201.86 501.34,201.86 C498.89,201.86 496.9,199.98 496.9,197.67 Z" style="stroke-width: 1px; stroke: rgb(0, 0, 0); fill: rgb(74, 144, 226); fill-opacity: 1;"/></g><g class="composite-shape"><path class="real" d=" M496.9,51.97 C496.9,49.66 498.89,47.78 501.34,47.78 C503.8,47.78 505.79,49.66 505.79,51.97 C505.79,54.29 503.8,56.16 501.34,56.16 C498.89,56.16 496.9,54.29 496.9,51.97 Z" style="stroke-width: 1px; stroke: rgb(0, 0, 0); fill: rgb(74, 144, 226); fill-opacity: 1;"/></g><g class="arrow-line"><path class="connection real" stroke-dasharray="" d="  M332.39,250.85 L424.03,250.59" style="stroke: rgb(0, 0, 0); stroke-width: 3px; fill: none; fill-opacity: 1;"/><g stroke="#000" transform="matrix(-0.9999961008995606,0.002792523173744459,-0.002792523173744459,-0.9999961008995606,428.0278366260174,250.57917735050955)" style="stroke: rgb(0, 0, 0); stroke-width: 3px;"><path d=" M17.49,-5.26 Q7.94,-0.72 0,0 Q7.94,0.72 17.49,5.26"/></g><g stroke="#000" transform="matrix(0.9999961008995606,-0.0027925231737425597,0.0027925231737425597,0.9999961008995606,328.38889567057294,250.86110432942723)" style="stroke: rgb(0, 0, 0); stroke-width: 3px;"><path d=" M17.49,-5.26 Q7.94,-0.72 0,0 Q7.94,0.72 17.49,5.26"/></g></g><g class="composite-shape"><path class="real" d=" M395.71,162.63 C395.71,158.93 398.48,155.92 401.89,155.92 C405.31,155.92 408.07,158.93 408.07,162.63 C408.07,166.34 405.31,169.34 401.89,169.34 C398.48,169.34 395.71,166.34 395.71,162.63 Z" style="stroke-width: 1px; stroke: rgb(0, 0, 0); fill: rgb(0, 0, 0); fill-opacity: 1;"/></g><g class="composite-shape"><path class="real" d=" M495.16,123.96 C495.16,120.26 497.93,117.25 501.34,117.25 C504.76,117.25 507.52,120.26 507.52,123.96 C507.52,127.67 504.76,130.67 501.34,130.67 C497.93,130.67 495.16,127.67 495.16,123.96 Z" style="stroke-width: 1px; stroke: rgb(0, 0, 0); fill: rgb(0, 0, 0); fill-opacity: 1;"/></g><g class="composite-shape"><path class="real" d=" M371.41,196.86 C371.41,194.55 373.4,192.67 375.86,192.67 C378.31,192.67 380.3,194.55 380.3,196.86 C380.3,199.17 378.31,201.05 375.86,201.05 C373.4,201.05 371.41,199.17 371.41,196.86 Z" style="stroke-width: 1px; stroke: rgb(0, 0, 0); fill: rgb(74, 144, 226); fill-opacity: 1;"/></g><g class="composite-shape"><path class="real" d=" M376.04,141.43 C376.04,137.72 378.81,134.72 382.22,134.72 C385.64,134.72 388.4,137.72 388.4,141.43 C388.4,145.13 385.64,148.14 382.22,148.14 C378.81,148.14 376.04,145.13 376.04,141.43 Z" style="stroke-width: 1px; stroke: rgb(0, 0, 0); fill: rgb(0, 0, 0); fill-opacity: 1;"/></g><g class="shape"><polygon class="real" points=" 219.72,388.55 327.39,533.7 156.49,535.18 156.49,387.95" style="stroke: rgb(0, 0, 0); stroke-width: 3px; fill: rgb(155, 155, 155); fill-opacity: 1;"/></g><g class="composite-shape"><path class="real" d=" M292.09,387.95 L427.69,387.95 L427.69,535.18 L292.09,535.18 Z" style="stroke-width: 3px; stroke: rgb(0, 0, 0); fill: none; fill-opacity: 1;"/></g><g class="composite-shape"><path class="real" d=" M427.69,387.95 L563.3,387.95 L563.3,535.18 L427.69,535.18 Z" style="stroke-width: 3px; stroke: rgb(0, 0, 0); fill: none; fill-opacity: 1;"/></g><g class="composite-shape"><path class="real" d=" M156.49,387.95 L292.09,387.95 L292.09,535.18 L156.49,535.18 Z" style="stroke-width: 3px; stroke: rgb(0, 0, 0); fill: none; fill-opacity: 1;"/></g><g class="composite-shape"><path class="real" d=" M497.23,535.27 C497.23,532.96 499.22,531.09 501.68,531.09 C504.13,531.09 506.12,532.96 506.12,535.27 C506.12,537.59 504.13,539.46 501.68,539.46 C499.22,539.46 497.23,537.59 497.23,535.27 Z" style="stroke-width: 1px; stroke: rgb(0, 0, 0); fill: rgb(74, 144, 226); fill-opacity: 1;"/></g><g class="composite-shape"><path class="real" d=" M497.23,389.58 C497.23,387.27 499.22,385.39 501.68,385.39 C504.13,385.39 506.12,387.27 506.12,389.58 C506.12,391.89 504.13,393.77 501.68,393.77 C499.22,393.77 497.23,391.89 497.23,389.58 Z" style="stroke-width: 1px; stroke: rgb(0, 0, 0); fill: rgb(74, 144, 226); fill-opacity: 1;"/></g><g class="composite-shape"><path class="real" d=" M362.71,451.57 C362.71,447.86 365.48,444.86 368.89,444.86 C372.31,444.86 375.07,447.86 375.07,451.57 C375.07,455.28 372.31,458.28 368.89,458.28 C365.48,458.28 362.71,455.28 362.71,451.57 Z" style="stroke-width: 1px; stroke: rgb(0, 0, 0); fill: rgb(0, 0, 0); fill-opacity: 1;"/></g><g class="composite-shape"><path class="real" d=" M495.5,461.57 C495.5,457.86 498.26,454.86 501.68,454.86 C505.09,454.86 507.86,457.86 507.86,461.57 C507.86,465.28 505.09,468.28 501.68,468.28 C498.26,468.28 495.5,465.28 495.5,461.57 Z" style="stroke-width: 1px; stroke: rgb(0, 0, 0); fill: rgb(0, 0, 0); fill-opacity: 1;"/></g><g class="composite-shape"><path class="real" d=" M371.75,534.47 C371.75,532.15 373.74,530.28 376.19,530.28 C378.64,530.28 380.63,532.15 380.63,534.47 C380.63,536.78 378.64,538.66 376.19,538.66 C373.74,538.66 371.75,536.78 371.75,534.47 Z" style="stroke-width: 1px; stroke: rgb(0, 0, 0); fill: rgb(74, 144, 226); fill-opacity: 1;"/></g><g class="composite-shape"><path class="real" d=" M355.45,386.86 C355.45,384.55 357.44,382.68 359.89,382.68 C362.35,382.68 364.34,384.55 364.34,386.86 C364.34,389.18 362.35,391.05 359.89,391.05 C357.44,391.05 355.45,389.18 355.45,386.86 Z" style="stroke-width: 1px; stroke: rgb(0, 0, 0); fill: rgb(74, 144, 226); fill-opacity: 1;"/></g><g class="composite-shape"><path class="real" d=" M261.04,412.37 C261.04,408.66 263.81,405.66 267.22,405.66 C270.64,405.66 273.4,408.66 273.4,412.37 C273.4,416.07 270.64,419.08 267.22,419.08 C263.81,419.08 261.04,416.07 261.04,412.37 Z" style="stroke-width: 1px; stroke: rgb(0, 0, 0); fill: rgb(0, 0, 0); fill-opacity: 1;"/></g><g class="arrow-line"><path class="connection real" stroke-dasharray="" d="  M226.39,334.57 L286.69,334.93" style="stroke: rgb(0, 0, 0); stroke-width: 3px; fill: none; fill-opacity: 1;"/><g stroke="#000" transform="matrix(-0.9999823931648033,-0.005934084629718689,0.005934084629718689,-0.9999823931648033,290.6945032926841,334.95473517071395)" style="stroke: rgb(0, 0, 0); stroke-width: 3px;"><path d=" M17.49,-5.26 Q7.94,-0.72 0,0 Q7.94,0.72 17.49,5.26"/></g><g stroke="#000" transform="matrix(0.9999823931648033,0.005934084629718737,-0.005934084629718737,0.9999823931648033,222.38889567057294,334.54999796549464)" style="stroke: rgb(0, 0, 0); stroke-width: 3px;"><path d=" M17.49,-5.26 Q7.94,-0.72 0,0 Q7.94,0.72 17.49,5.26"/></g></g><g class="composite-shape"><path class="real" d=" M255.12,387.86 C255.12,385.55 257.11,383.68 259.56,383.68 C262.01,383.68 264,385.55 264,387.86 C264,390.18 262.01,392.05 259.56,392.05 C257.11,392.05 255.12,390.18 255.12,387.86 Z" style="stroke-width: 1px; stroke: rgb(0, 0, 0); fill: rgb(74, 144, 226); fill-opacity: 1;"/></g><g/></g><g/><g/><g/></svg>
        <svg xmlns="http://www.w3.org/2000/svg" xmlns:xlink="http://www.w3.org/1999/xlink" width="660" height="639.066650390625" style="width:660px;height:639.066650390625px;font-family:Asana-Math, Asana;background:transparent;"><g><g><g><g transform="matrix(1,0,0,1,96.9166259765625,201.0999755859375)"><path transform="matrix(0.017,0,0,-0.017,0,0)" d="M125 390L69 107C68 99 56 61 56 31C56 6 67 -9 86 -9C121 -9 156 11 234 74L265 99L255 117L210 86C181 66 161 56 150 56C141 56 136 64 136 76C136 102 150 183 179 328L192 390L299 390L310 440C272 436 238 434 200 434C216 528 227 577 245 631L234 646C214 634 187 622 156 610L131 440C87 419 61 408 43 403L41 390Z" stroke="rgb(0,0,0)" stroke-opacity="1" stroke-width="8" fill="rgb(0,0,0)" fill-opacity="1"></path></g></g><g><g><g><g><g transform="matrix(1,0,0,1,103.566650390625,194.23331298828126)"><path transform="matrix(0.0119,0,0,-0.0119,0,0)" d="M24 388L31 368L63 389C100 412 103 414 110 414C121 414 128 404 128 389C128 338 87 145 46 2L53 -9C78 -2 101 4 123 8C142 134 163 199 209 268C263 352 338 414 383 414C394 414 400 405 400 390C400 372 397 351 389 319L337 107C328 70 324 47 324 31C324 6 335 -9 354 -9C380 -9 416 12 514 85L504 103L478 86C449 67 427 56 417 56C410 56 404 65 404 76C404 81 405 92 406 96L472 372C479 401 483 429 483 446C483 469 472 482 452 482C410 482 341 444 282 389C244 354 216 320 164 247L202 408C206 426 208 438 208 449C208 470 200 482 185 482C164 482 125 460 52 408Z" stroke="rgb(0,0,0)" stroke-opacity="1" stroke-width="8" fill="rgb(0,0,0)" fill-opacity="1"></path></g></g></g></g></g></g></g><g><g><g><g transform="matrix(1,0,0,1,95.699951171875,53.70001220703125)"><path transform="matrix(0.017,0,0,-0.017,0,0)" d="M125 390L69 107C68 99 56 61 56 31C56 6 67 -9 86 -9C121 -9 156 11 234 74L265 99L255 117L210 86C181 66 161 56 150 56C141 56 136 64 136 76C136 102 150 183 179 328L192 390L299 390L310 440C272 436 238 434 200 434C216 528 227 577 245 631L234 646C214 634 187 622 156 610L131 440C87 419 61 408 43 403L41 390Z" stroke="rgb(0,0,0)" stroke-opacity="1" stroke-width="8" fill="rgb(0,0,0)" fill-opacity="1"></path></g></g><g><g><g><g><g transform="matrix(1,0,0,1,102.3499755859375,46.8166259765625)"><path transform="matrix(0.0119,0,0,-0.0119,0,0)" d="M24 388L31 368L63 389C100 412 103 414 110 414C121 414 128 404 128 389C128 338 87 145 46 2L53 -9C78 -2 101 4 123 8C142 134 163 199 209 268C263 352 338 414 383 414C394 414 400 405 400 390C400 372 397 351 389 319L337 107C328 70 324 47 324 31C324 6 335 -9 354 -9C380 -9 416 12 514 85L504 103L478 86C449 67 427 56 417 56C410 56 404 65 404 76C404 81 405 92 406 96L472 372C479 401 483 429 483 446C483 469 472 482 452 482C410 482 341 444 282 389C244 354 216 320 164 247L202 408C206 426 208 438 208 449C208 470 200 482 185 482C164 482 125 460 52 408ZM1159 241L1159 300L919 300L919 538L860 538L860 300L620 300L620 241L860 241L860 0L919 0L919 241ZM1641 -3L1641 27L1589 30C1534 33 1524 44 1524 96L1524 700L1283 598L1290 548L1440 614L1440 96C1440 44 1429 33 1375 30L1319 27L1319 -3C1473 0 1473 0 1484 0C1515 0 1625 -3 1641 -3Z" stroke="rgb(0,0,0)" stroke-opacity="1" stroke-width="8" fill="rgb(0,0,0)" fill-opacity="1"></path></g></g></g></g></g></g></g><g><g><g><g transform="matrix(1,0,0,1,368.6500244140625,275.816650390625)"><path transform="matrix(0.017,0,0,-0.017,0,0)" d="M310 96L239 624C237 646 241 661 281 662L323 664L323 692L282 691C245 690 217 689 199 689C181 689 153 690 116 691L75 692L75 664L100 662C144 659 152 651 159 614L247 -8L296 -8L674 611C699 651 707 658 736 662L754 664L754 692L724 691C697 690 674 689 658 689C648 689 621 690 580 691L534 692L534 664L560 662C598 659 617 649 617 630C617 619 613 608 601 588Z" stroke="rgb(0,0,0)" stroke-opacity="1" stroke-width="8" fill="rgb(0,0,0)" fill-opacity="1"></path></g></g><g><g><g><g><g transform="matrix(1,0,0,1,381.9000244140625,268.8000244140625)"><path transform="matrix(0.0119,0,0,-0.0119,0,0)" d="M24 388L31 368L63 389C100 412 103 414 110 414C121 414 128 404 128 389C128 338 87 145 46 2L53 -9C78 -2 101 4 123 8C142 134 163 199 209 268C263 352 338 414 383 414C394 414 400 405 400 390C400 372 397 351 389 319L337 107C328 70 324 47 324 31C324 6 335 -9 354 -9C380 -9 416 12 514 85L504 103L478 86C449 67 427 56 417 56C410 56 404 65 404 76C404 81 405 92 406 96L472 372C479 401 483 429 483 446C483 469 472 482 452 482C410 482 341 444 282 389C244 354 216 320 164 247L202 408C206 426 208 438 208 449C208 470 200 482 185 482C164 482 125 460 52 408Z" stroke="rgb(0,0,0)" stroke-opacity="1" stroke-width="8" fill="rgb(0,0,0)" fill-opacity="1"></path></g></g></g></g><g><g><g><g transform="matrix(1,0,0,1,381.4166259765625,280.3000244140625)"><path transform="matrix(0.0119,0,0,-0.0119,0,0)" d="M34 388L41 368L73 389C110 412 113 414 120 414C130 414 138 404 138 391C138 384 134 361 130 347L64 107C56 76 51 49 51 30C51 6 62 -9 81 -9C107 -9 143 12 241 85L231 103L205 86C176 67 153 56 144 56C137 56 131 66 131 76C131 86 133 95 138 116L215 420C219 437 221 448 221 456C221 473 212 482 196 482C174 482 137 461 62 408ZM228 712C199 712 170 679 170 645C170 620 185 604 209 604C240 604 264 633 264 671C264 695 249 712 228 712Z" stroke="rgb(0,0,0)" stroke-opacity="1" stroke-width="8" fill="rgb(0,0,0)" fill-opacity="1"></path></g></g></g></g></g></g></g><g><g><g><g><g><g><g transform="matrix(1,0,0,1,373.7666015625,184.683349609375)"><path transform="matrix(0.017,0,0,-0.017,0,0)" d="M390 646L463 646C541 646 577 641 580 629C583 621 585 602 584 592L580 528L608 528L635 692L544 691C456 690 388 689 353 689C316 689 252 690 166 691L71 692L53 528L82 528L97 588C102 610 109 626 115 633C121 640 159 646 196 646L308 646L222 125C206 34 204 31 164 28L113 25L109 -3L166 -2C206 -1 235 0 251 0C270 0 301 -1 340 -2L384 -3L387 25L328 28C302 29 292 37 292 58C292 67 293 74 296 93Z" stroke="rgb(0,0,0)" stroke-opacity="1" stroke-width="8" fill="rgb(0,0,0)" fill-opacity="1"></path></g></g></g></g><svg x="373.7666015625" overflow="visible" y="160.51666259765625" height="9" width="10.366668701171875"><path d="M0.00,8.06 C 0.65 5.46, 2.59 5.46, 5.18 7.41  S 9.72 6.76, 10.37 5.46" style="fill:none;fill-opacity:1;stroke-width:1px;stroke:rgb(0,0,0);stroke-opacity:1;"></path></svg></g><g><g><g><g><g transform="matrix(1,0,0,1,385.13330078125,166.5500244140625)"><path transform="matrix(0.0119,0,0,-0.0119,0,0)" d="M394 -12C554 -12 671 181 673 325C674 363 660 458 607 458C592 458 562 441 548 434L548 423C593 392 607 338 606 284C605 189 542 17 425 17C366 17 362 73 363 119C365 185 380 261 403 324L393 324C372 317 350 309 328 304C323 217 294 16 174 16C111 16 100 81 100 129C102 278 168 388 306 443L306 463C152 428 40 300 25 137C9 -29 213 -49 295 47C316 3 344 -12 394 -12Z" stroke="rgb(0,0,0)" stroke-opacity="1" stroke-width="8" fill="rgb(0,0,0)" fill-opacity="1"></path></g></g></g></g><g><g><g><g transform="matrix(1,0,0,1,384.6500244140625,189.76663818359376)"><path transform="matrix(0.0119,0,0,-0.0119,0,0)" d="M34 388L41 368L73 389C110 412 113 414 120 414C130 414 138 404 138 391C138 384 134 361 130 347L64 107C56 76 51 49 51 30C51 6 62 -9 81 -9C107 -9 143 12 241 85L231 103L205 86C176 67 153 56 144 56C137 56 131 66 131 76C131 86 133 95 138 116L215 420C219 437 221 448 221 456C221 473 212 482 196 482C174 482 137 461 62 408ZM228 712C199 712 170 679 170 645C170 620 185 604 209 604C240 604 264 633 264 671C264 695 249 712 228 712Z" stroke="rgb(0,0,0)" stroke-opacity="1" stroke-width="8" fill="rgb(0,0,0)" fill-opacity="1"></path></g></g></g></g></g></g></g><g><g><g><g><g><g><g transform="matrix(1,0,0,1,470.933349609375,153.38330078125)"><path transform="matrix(0.017,0,0,-0.017,0,0)" d="M390 646L463 646C541 646 577 641 580 629C583 621 585 602 584 592L580 528L608 528L635 692L544 691C456 690 388 689 353 689C316 689 252 690 166 691L71 692L53 528L82 528L97 588C102 610 109 626 115 633C121 640 159 646 196 646L308 646L222 125C206 34 204 31 164 28L113 25L109 -3L166 -2C206 -1 235 0 251 0C270 0 301 -1 340 -2L384 -3L387 25L328 28C302 29 292 37 292 58C292 67 293 74 296 93Z" stroke="rgb(0,0,0)" stroke-opacity="1" stroke-width="8" fill="rgb(0,0,0)" fill-opacity="1"></path></g></g></g></g><svg x="470.933349609375" overflow="visible" y="129.2166748046875" height="9" width="10.366668701171875"><path d="M0.00,8.06 C 0.65 5.46, 2.59 5.46, 5.18 7.41  S 9.72 6.76, 10.37 5.46" style="fill:none;fill-opacity:1;stroke-width:1px;stroke:rgb(0,0,0);stroke-opacity:1;"></path></svg></g><g><g><g><g><g transform="matrix(1,0,0,1,482.300048828125,135.2499755859375)"><path transform="matrix(0.0119,0,0,-0.0119,0,0)" d="M394 -12C554 -12 671 181 673 325C674 363 660 458 607 458C592 458 562 441 548 434L548 423C593 392 607 338 606 284C605 189 542 17 425 17C366 17 362 73 363 119C365 185 380 261 403 324L393 324C372 317 350 309 328 304C323 217 294 16 174 16C111 16 100 81 100 129C102 278 168 388 306 443L306 463C152 428 40 300 25 137C9 -29 213 -49 295 47C316 3 344 -12 394 -12Z" stroke="rgb(0,0,0)" stroke-opacity="1" stroke-width="8" fill="rgb(0,0,0)" fill-opacity="1"></path></g></g></g></g><g><g><g><g transform="matrix(1,0,0,1,481.816650390625,158.44998779296876)"><path transform="matrix(0.0119,0,0,-0.0119,0,0)" d="M34 388L41 368L73 389C110 412 113 414 120 414C130 414 138 404 138 391C138 384 134 361 130 347L64 107C56 76 51 49 51 30C51 6 62 -9 81 -9C107 -9 143 12 241 85L231 103L205 86C176 67 153 56 144 56C137 56 131 66 131 76C131 86 133 95 138 116L215 420C219 437 221 448 221 456C221 473 212 482 196 482C174 482 137 461 62 408ZM228 712C199 712 170 679 170 645C170 620 185 604 209 604C240 604 264 633 264 671C264 695 249 712 228 712ZM881 241L881 300L641 300L641 538L582 538L582 300L342 300L342 241L582 241L582 0L641 0L641 241ZM1363 -3L1363 27L1311 30C1256 33 1246 44 1246 96L1246 700L1005 598L1012 548L1162 614L1162 96C1162 44 1151 33 1097 30L1041 27L1041 -3C1195 0 1195 0 1206 0C1237 0 1347 -3 1363 -3Z" stroke="rgb(0,0,0)" stroke-opacity="1" stroke-width="8" fill="rgb(0,0,0)" fill-opacity="1"></path></g></g></g></g></g></g></g><g><g><g><g transform="matrix(1,0,0,1,479.800048828125,25.36663818359375)"><path transform="matrix(0.017,0,0,-0.017,0,0)" d="M390 646L463 646C541 646 577 641 580 629C583 621 585 602 584 592L580 528L608 528L635 692L544 691C456 690 388 689 353 689C316 689 252 690 166 691L71 692L53 528L82 528L97 588C102 610 109 626 115 633C121 640 159 646 196 646L308 646L222 125C206 34 204 31 164 28L113 25L109 -3L166 -2C206 -1 235 0 251 0C270 0 301 -1 340 -2L384 -3L387 25L328 28C302 29 292 37 292 58C292 67 293 74 296 93Z" stroke="rgb(0,0,0)" stroke-opacity="1" stroke-width="8" fill="rgb(0,0,0)" fill-opacity="1"></path></g></g><g><g><g><g><g transform="matrix(1,0,0,1,491.1666259765625,18.333319091796874)"><path transform="matrix(0.0119,0,0,-0.0119,0,0)" d="M394 -12C554 -12 671 181 673 325C674 363 660 458 607 458C592 458 562 441 548 434L548 423C593 392 607 338 606 284C605 189 542 17 425 17C366 17 362 73 363 119C365 185 380 261 403 324L393 324C372 317 350 309 328 304C323 217 294 16 174 16C111 16 100 81 100 129C102 278 168 388 306 443L306 463C152 428 40 300 25 137C9 -29 213 -49 295 47C316 3 344 -12 394 -12ZM919 123C892 114 874 108 821 93C814 17 789 -48 731 -144L745 -155L786 -136C867 -31 905 32 933 109ZM988 388L995 368L1027 389C1064 412 1067 414 1074 414C1085 414 1092 404 1092 389C1092 338 1051 145 1010 2L1017 -9C1042 -2 1065 4 1087 8C1106 134 1127 199 1173 268C1227 352 1302 414 1347 414C1358 414 1364 405 1364 390C1364 372 1361 351 1353 319L1301 107C1292 70 1288 47 1288 31C1288 6 1299 -9 1318 -9C1344 -9 1380 12 1478 85L1468 103L1442 86C1413 67 1391 56 1381 56C1374 56 1368 65 1368 76C1368 81 1369 92 1370 96L1436 372C1443 401 1447 429 1447 446C1447 469 1436 482 1416 482C1374 482 1305 444 1246 389C1208 354 1180 320 1128 247L1166 408C1170 426 1172 438 1172 449C1172 470 1164 482 1149 482C1128 482 1089 460 1016 408ZM2123 241L2123 300L1883 300L1883 538L1824 538L1824 300L1584 300L1584 241L1824 241L1824 0L1883 0L1883 241ZM2605 -3L2605 27L2553 30C2498 33 2488 44 2488 96L2488 700L2247 598L2254 548L2404 614L2404 96C2404 44 2393 33 2339 30L2283 27L2283 -3C2437 0 2437 0 2448 0C2479 0 2589 -3 2605 -3Z" stroke="rgb(0,0,0)" stroke-opacity="1" stroke-width="8" fill="rgb(0,0,0)" fill-opacity="1"></path></g></g></g></g><g><g><g><g transform="matrix(1,0,0,1,490.683349609375,29.833319091796874)"><path transform="matrix(0.0119,0,0,-0.0119,0,0)" d="M34 388L41 368L73 389C110 412 113 414 120 414C130 414 138 404 138 391C138 384 134 361 130 347L64 107C56 76 51 49 51 30C51 6 62 -9 81 -9C107 -9 143 12 241 85L231 103L205 86C176 67 153 56 144 56C137 56 131 66 131 76C131 86 133 95 138 116L215 420C219 437 221 448 221 456C221 473 212 482 196 482C174 482 137 461 62 408ZM228 712C199 712 170 679 170 645C170 620 185 604 209 604C240 604 264 633 264 671C264 695 249 712 228 712ZM881 241L881 300L641 300L641 538L582 538L582 300L342 300L342 241L582 241L582 0L641 0L641 241ZM1363 -3L1363 27L1311 30C1256 33 1246 44 1246 96L1246 700L1005 598L1012 548L1162 614L1162 96C1162 44 1151 33 1097 30L1041 27L1041 -3C1195 0 1195 0 1206 0C1237 0 1347 -3 1363 -3Z" stroke="rgb(0,0,0)" stroke-opacity="1" stroke-width="8" fill="rgb(0,0,0)" fill-opacity="1"></path></g></g></g></g></g></g></g><g><g><g><g transform="matrix(1,0,0,1,362.800048828125,227.0333251953125)"><path transform="matrix(0.017,0,0,-0.017,0,0)" d="M390 646L463 646C541 646 577 641 580 629C583 621 585 602 584 592L580 528L608 528L635 692L544 691C456 690 388 689 353 689C316 689 252 690 166 691L71 692L53 528L82 528L97 588C102 610 109 626 115 633C121 640 159 646 196 646L308 646L222 125C206 34 204 31 164 28L113 25L109 -3L166 -2C206 -1 235 0 251 0C270 0 301 -1 340 -2L384 -3L387 25L328 28C302 29 292 37 292 58C292 67 293 74 296 93Z" stroke="rgb(0,0,0)" stroke-opacity="1" stroke-width="8" fill="rgb(0,0,0)" fill-opacity="1"></path></g></g><g><g><g><g><g transform="matrix(1,0,0,1,374.1666259765625,219.9999755859375)"><path transform="matrix(0.0119,0,0,-0.0119,0,0)" d="M394 -12C554 -12 671 181 673 325C674 363 660 458 607 458C592 458 562 441 548 434L548 423C593 392 607 338 606 284C605 189 542 17 425 17C366 17 362 73 363 119C365 185 380 261 403 324L393 324C372 317 350 309 328 304C323 217 294 16 174 16C111 16 100 81 100 129C102 278 168 388 306 443L306 463C152 428 40 300 25 137C9 -29 213 -49 295 47C316 3 344 -12 394 -12ZM919 123C892 114 874 108 821 93C814 17 789 -48 731 -144L745 -155L786 -136C867 -31 905 32 933 109ZM988 388L995 368L1027 389C1064 412 1067 414 1074 414C1085 414 1092 404 1092 389C1092 338 1051 145 1010 2L1017 -9C1042 -2 1065 4 1087 8C1106 134 1127 199 1173 268C1227 352 1302 414 1347 414C1358 414 1364 405 1364 390C1364 372 1361 351 1353 319L1301 107C1292 70 1288 47 1288 31C1288 6 1299 -9 1318 -9C1344 -9 1380 12 1478 85L1468 103L1442 86C1413 67 1391 56 1381 56C1374 56 1368 65 1368 76C1368 81 1369 92 1370 96L1436 372C1443 401 1447 429 1447 446C1447 469 1436 482 1416 482C1374 482 1305 444 1246 389C1208 354 1180 320 1128 247L1166 408C1170 426 1172 438 1172 449C1172 470 1164 482 1149 482C1128 482 1089 460 1016 408Z" stroke="rgb(0,0,0)" stroke-opacity="1" stroke-width="8" fill="rgb(0,0,0)" fill-opacity="1"></path></g></g></g></g><g><g><g><g transform="matrix(1,0,0,1,373.683349609375,231.51663818359376)"><path transform="matrix(0.0119,0,0,-0.0119,0,0)" d="M34 388L41 368L73 389C110 412 113 414 120 414C130 414 138 404 138 391C138 384 134 361 130 347L64 107C56 76 51 49 51 30C51 6 62 -9 81 -9C107 -9 143 12 241 85L231 103L205 86C176 67 153 56 144 56C137 56 131 66 131 76C131 86 133 95 138 116L215 420C219 437 221 448 221 456C221 473 212 482 196 482C174 482 137 461 62 408ZM228 712C199 712 170 679 170 645C170 620 185 604 209 604C240 604 264 633 264 671C264 695 249 712 228 712Z" stroke="rgb(0,0,0)" stroke-opacity="1" stroke-width="8" fill="rgb(0,0,0)" fill-opacity="1"></path></g></g></g></g></g></g></g><g><g><g><g transform="matrix(1,0,0,1,487.800048828125,234.36663818359375)"><path transform="matrix(0.017,0,0,-0.017,0,0)" d="M390 646L463 646C541 646 577 641 580 629C583 621 585 602 584 592L580 528L608 528L635 692L544 691C456 690 388 689 353 689C316 689 252 690 166 691L71 692L53 528L82 528L97 588C102 610 109 626 115 633C121 640 159 646 196 646L308 646L222 125C206 34 204 31 164 28L113 25L109 -3L166 -2C206 -1 235 0 251 0C270 0 301 -1 340 -2L384 -3L387 25L328 28C302 29 292 37 292 58C292 67 293 74 296 93Z" stroke="rgb(0,0,0)" stroke-opacity="1" stroke-width="8" fill="rgb(0,0,0)" fill-opacity="1"></path></g></g><g><g><g><g><g transform="matrix(1,0,0,1,499.1666259765625,227.333349609375)"><path transform="matrix(0.0119,0,0,-0.0119,0,0)" d="M394 -12C554 -12 671 181 673 325C674 363 660 458 607 458C592 458 562 441 548 434L548 423C593 392 607 338 606 284C605 189 542 17 425 17C366 17 362 73 363 119C365 185 380 261 403 324L393 324C372 317 350 309 328 304C323 217 294 16 174 16C111 16 100 81 100 129C102 278 168 388 306 443L306 463C152 428 40 300 25 137C9 -29 213 -49 295 47C316 3 344 -12 394 -12ZM919 123C892 114 874 108 821 93C814 17 789 -48 731 -144L745 -155L786 -136C867 -31 905 32 933 109ZM988 388L995 368L1027 389C1064 412 1067 414 1074 414C1085 414 1092 404 1092 389C1092 338 1051 145 1010 2L1017 -9C1042 -2 1065 4 1087 8C1106 134 1127 199 1173 268C1227 352 1302 414 1347 414C1358 414 1364 405 1364 390C1364 372 1361 351 1353 319L1301 107C1292 70 1288 47 1288 31C1288 6 1299 -9 1318 -9C1344 -9 1380 12 1478 85L1468 103L1442 86C1413 67 1391 56 1381 56C1374 56 1368 65 1368 76C1368 81 1369 92 1370 96L1436 372C1443 401 1447 429 1447 446C1447 469 1436 482 1416 482C1374 482 1305 444 1246 389C1208 354 1180 320 1128 247L1166 408C1170 426 1172 438 1172 449C1172 470 1164 482 1149 482C1128 482 1089 460 1016 408Z" stroke="rgb(0,0,0)" stroke-opacity="1" stroke-width="8" fill="rgb(0,0,0)" fill-opacity="1"></path></g></g></g></g><g><g><g><g transform="matrix(1,0,0,1,498.683349609375,238.833349609375)"><path transform="matrix(0.0119,0,0,-0.0119,0,0)" d="M34 388L41 368L73 389C110 412 113 414 120 414C130 414 138 404 138 391C138 384 134 361 130 347L64 107C56 76 51 49 51 30C51 6 62 -9 81 -9C107 -9 143 12 241 85L231 103L205 86C176 67 153 56 144 56C137 56 131 66 131 76C131 86 133 95 138 116L215 420C219 437 221 448 221 456C221 473 212 482 196 482C174 482 137 461 62 408ZM228 712C199 712 170 679 170 645C170 620 185 604 209 604C240 604 264 633 264 671C264 695 249 712 228 712ZM881 241L881 300L641 300L641 538L582 538L582 300L342 300L342 241L582 241L582 0L641 0L641 241ZM1363 -3L1363 27L1311 30C1256 33 1246 44 1246 96L1246 700L1005 598L1012 548L1162 614L1162 96C1162 44 1151 33 1097 30L1041 27L1041 -3C1195 0 1195 0 1206 0C1237 0 1347 -3 1363 -3Z" stroke="rgb(0,0,0)" stroke-opacity="1" stroke-width="8" fill="rgb(0,0,0)" fill-opacity="1"></path></g></g></g></g></g></g></g><g><g><g><g><g><g><g transform="matrix(1,0,0,1,354.7666015625,132.01666259765625)"><path transform="matrix(0.017,0,0,-0.017,0,0)" d="M390 646L463 646C541 646 577 641 580 629C583 621 585 602 584 592L580 528L608 528L635 692L544 691C456 690 388 689 353 689C316 689 252 690 166 691L71 692L53 528L82 528L97 588C102 610 109 626 115 633C121 640 159 646 196 646L308 646L222 125C206 34 204 31 164 28L113 25L109 -3L166 -2C206 -1 235 0 251 0C270 0 301 -1 340 -2L384 -3L387 25L328 28C302 29 292 37 292 58C292 67 293 74 296 93Z" stroke="rgb(0,0,0)" stroke-opacity="1" stroke-width="8" fill="rgb(0,0,0)" fill-opacity="1"></path></g></g></g></g><svg x="354.7666015625" overflow="visible" y="107.8499755859375" height="9" width="10.366668701171875"><path d="M0.00,8.06 C 0.65 5.46, 2.59 5.46, 5.18 7.41  S 9.72 6.76, 10.37 5.46" style="fill:none;fill-opacity:1;stroke-width:1px;stroke:rgb(0,0,0);stroke-opacity:1;"></path></svg></g><g><g><g><g><g transform="matrix(1,0,0,1,366.13330078125,111.88333740234376)"><path transform="matrix(0.0119,0,0,-0.0119,0,0)" d="M154 473C89 473 51 426 18 377C18 371 27 368 30 365L30 366C54 394 74 412 111 412C206 412 215 290 214 220C212 136 203 53 186 -29C140 -86 92 -181 65 -249C69 -257 74 -265 77 -273C98 -268 119 -260 139 -251C165 -183 189 -106 203 -36C387 199 540 317 547 438C550 493 485 453 459 446L459 435C502 284 287 130 220 19L220 23C302 358 258 473 154 473Z" stroke="rgb(0,0,0)" stroke-opacity="1" stroke-width="8" fill="rgb(0,0,0)" fill-opacity="1"></path></g></g></g></g><g><g><g><g transform="matrix(1,0,0,1,365.6500244140625,137.10001220703126)"><path transform="matrix(0.0119,0,0,-0.0119,0,0)" d="M34 388L41 368L73 389C110 412 113 414 120 414C130 414 138 404 138 391C138 384 134 361 130 347L64 107C56 76 51 49 51 30C51 6 62 -9 81 -9C107 -9 143 12 241 85L231 103L205 86C176 67 153 56 144 56C137 56 131 66 131 76C131 86 133 95 138 116L215 420C219 437 221 448 221 456C221 473 212 482 196 482C174 482 137 461 62 408ZM228 712C199 712 170 679 170 645C170 620 185 604 209 604C240 604 264 633 264 671C264 695 249 712 228 712Z" stroke="rgb(0,0,0)" stroke-opacity="1" stroke-width="8" fill="rgb(0,0,0)" fill-opacity="1"></path></g></g></g></g></g></g></g><g><g><g><g transform="matrix(1,0,0,1,97.25,538.7000122070312)"><path transform="matrix(0.017,0,0,-0.017,0,0)" d="M125 390L69 107C68 99 56 61 56 31C56 6 67 -9 86 -9C121 -9 156 11 234 74L265 99L255 117L210 86C181 66 161 56 150 56C141 56 136 64 136 76C136 102 150 183 179 328L192 390L299 390L310 440C272 436 238 434 200 434C216 528 227 577 245 631L234 646C214 634 187 622 156 610L131 440C87 419 61 408 43 403L41 390Z" stroke="rgb(0,0,0)" stroke-opacity="1" stroke-width="8" fill="rgb(0,0,0)" fill-opacity="1"></path></g></g><g><g><g><g><g transform="matrix(1,0,0,1,103.9000244140625,531.833349609375)"><path transform="matrix(0.0119,0,0,-0.0119,0,0)" d="M24 388L31 368L63 389C100 412 103 414 110 414C121 414 128 404 128 389C128 338 87 145 46 2L53 -9C78 -2 101 4 123 8C142 134 163 199 209 268C263 352 338 414 383 414C394 414 400 405 400 390C400 372 397 351 389 319L337 107C328 70 324 47 324 31C324 6 335 -9 354 -9C380 -9 416 12 514 85L504 103L478 86C449 67 427 56 417 56C410 56 404 65 404 76C404 81 405 92 406 96L472 372C479 401 483 429 483 446C483 469 472 482 452 482C410 482 341 444 282 389C244 354 216 320 164 247L202 408C206 426 208 438 208 449C208 470 200 482 185 482C164 482 125 460 52 408Z" stroke="rgb(0,0,0)" stroke-opacity="1" stroke-width="8" fill="rgb(0,0,0)" fill-opacity="1"></path></g></g></g></g></g></g></g><g><g><g><g transform="matrix(1,0,0,1,96.0333251953125,391.29998779296875)"><path transform="matrix(0.017,0,0,-0.017,0,0)" d="M125 390L69 107C68 99 56 61 56 31C56 6 67 -9 86 -9C121 -9 156 11 234 74L265 99L255 117L210 86C181 66 161 56 150 56C141 56 136 64 136 76C136 102 150 183 179 328L192 390L299 390L310 440C272 436 238 434 200 434C216 528 227 577 245 631L234 646C214 634 187 622 156 610L131 440C87 419 61 408 43 403L41 390Z" stroke="rgb(0,0,0)" stroke-opacity="1" stroke-width="8" fill="rgb(0,0,0)" fill-opacity="1"></path></g></g><g><g><g><g><g transform="matrix(1,0,0,1,102.683349609375,384.4166625976562)"><path transform="matrix(0.0119,0,0,-0.0119,0,0)" d="M24 388L31 368L63 389C100 412 103 414 110 414C121 414 128 404 128 389C128 338 87 145 46 2L53 -9C78 -2 101 4 123 8C142 134 163 199 209 268C263 352 338 414 383 414C394 414 400 405 400 390C400 372 397 351 389 319L337 107C328 70 324 47 324 31C324 6 335 -9 354 -9C380 -9 416 12 514 85L504 103L478 86C449 67 427 56 417 56C410 56 404 65 404 76C404 81 405 92 406 96L472 372C479 401 483 429 483 446C483 469 472 482 452 482C410 482 341 444 282 389C244 354 216 320 164 247L202 408C206 426 208 438 208 449C208 470 200 482 185 482C164 482 125 460 52 408ZM1159 241L1159 300L919 300L919 538L860 538L860 300L620 300L620 241L860 241L860 0L919 0L919 241ZM1641 -3L1641 27L1589 30C1534 33 1524 44 1524 96L1524 700L1283 598L1290 548L1440 614L1440 96C1440 44 1429 33 1375 30L1319 27L1319 -3C1473 0 1473 0 1484 0C1515 0 1625 -3 1641 -3Z" stroke="rgb(0,0,0)" stroke-opacity="1" stroke-width="8" fill="rgb(0,0,0)" fill-opacity="1"></path></g></g></g></g></g></g></g><g><g><g><g><g><g><g transform="matrix(1,0,0,1,364.0999755859375,488.61663818359375)"><path transform="matrix(0.017,0,0,-0.017,0,0)" d="M390 646L463 646C541 646 577 641 580 629C583 621 585 602 584 592L580 528L608 528L635 692L544 691C456 690 388 689 353 689C316 689 252 690 166 691L71 692L53 528L82 528L97 588C102 610 109 626 115 633C121 640 159 646 196 646L308 646L222 125C206 34 204 31 164 28L113 25L109 -3L166 -2C206 -1 235 0 251 0C270 0 301 -1 340 -2L384 -3L387 25L328 28C302 29 292 37 292 58C292 67 293 74 296 93Z" stroke="rgb(0,0,0)" stroke-opacity="1" stroke-width="8" fill="rgb(0,0,0)" fill-opacity="1"></path></g></g></g></g><svg x="364.0999755859375" overflow="visible" y="464.45001220703125" height="9" width="10.366653442382812"><path d="M0.00,8.06 C 0.65 5.46, 2.59 5.46, 5.18 7.41  S 9.72 6.76, 10.37 5.46" style="fill:none;fill-opacity:1;stroke-width:1px;stroke:rgb(0,0,0);stroke-opacity:1;"></path></svg></g><g><g><g><g><g transform="matrix(1,0,0,1,375.4666748046875,470.4833129882812)"><path transform="matrix(0.0119,0,0,-0.0119,0,0)" d="M394 -12C554 -12 671 181 673 325C674 363 660 458 607 458C592 458 562 441 548 434L548 423C593 392 607 338 606 284C605 189 542 17 425 17C366 17 362 73 363 119C365 185 380 261 403 324L393 324C372 317 350 309 328 304C323 217 294 16 174 16C111 16 100 81 100 129C102 278 168 388 306 443L306 463C152 428 40 300 25 137C9 -29 213 -49 295 47C316 3 344 -12 394 -12Z" stroke="rgb(0,0,0)" stroke-opacity="1" stroke-width="8" fill="rgb(0,0,0)" fill-opacity="1"></path></g></g></g></g><g><g><g><g transform="matrix(1,0,0,1,374.9832763671875,493.6999877929687)"><path transform="matrix(0.0119,0,0,-0.0119,0,0)" d="M34 388L41 368L73 389C110 412 113 414 120 414C130 414 138 404 138 391C138 384 134 361 130 347L64 107C56 76 51 49 51 30C51 6 62 -9 81 -9C107 -9 143 12 241 85L231 103L205 86C176 67 153 56 144 56C137 56 131 66 131 76C131 86 133 95 138 116L215 420C219 437 221 448 221 456C221 473 212 482 196 482C174 482 137 461 62 408ZM228 712C199 712 170 679 170 645C170 620 185 604 209 604C240 604 264 633 264 671C264 695 249 712 228 712Z" stroke="rgb(0,0,0)" stroke-opacity="1" stroke-width="8" fill="rgb(0,0,0)" fill-opacity="1"></path></g></g></g></g></g></g></g><g><g><g><g><g><g><g transform="matrix(1,0,0,1,471.2666015625,490.98333740234375)"><path transform="matrix(0.017,0,0,-0.017,0,0)" d="M390 646L463 646C541 646 577 641 580 629C583 621 585 602 584 592L580 528L608 528L635 692L544 691C456 690 388 689 353 689C316 689 252 690 166 691L71 692L53 528L82 528L97 588C102 610 109 626 115 633C121 640 159 646 196 646L308 646L222 125C206 34 204 31 164 28L113 25L109 -3L166 -2C206 -1 235 0 251 0C270 0 301 -1 340 -2L384 -3L387 25L328 28C302 29 292 37 292 58C292 67 293 74 296 93Z" stroke="rgb(0,0,0)" stroke-opacity="1" stroke-width="8" fill="rgb(0,0,0)" fill-opacity="1"></path></g></g></g></g><svg x="471.2666015625" overflow="visible" y="466.816650390625" height="9" width="10.366668701171875"><path d="M0.00,8.06 C 0.65 5.46, 2.59 5.46, 5.18 7.41  S 9.72 6.76, 10.37 5.46" style="fill:none;fill-opacity:1;stroke-width:1px;stroke:rgb(0,0,0);stroke-opacity:1;"></path></svg></g><g><g><g><g><g transform="matrix(1,0,0,1,482.63330078125,472.8500122070312)"><path transform="matrix(0.0119,0,0,-0.0119,0,0)" d="M394 -12C554 -12 671 181 673 325C674 363 660 458 607 458C592 458 562 441 548 434L548 423C593 392 607 338 606 284C605 189 542 17 425 17C366 17 362 73 363 119C365 185 380 261 403 324L393 324C372 317 350 309 328 304C323 217 294 16 174 16C111 16 100 81 100 129C102 278 168 388 306 443L306 463C152 428 40 300 25 137C9 -29 213 -49 295 47C316 3 344 -12 394 -12Z" stroke="rgb(0,0,0)" stroke-opacity="1" stroke-width="8" fill="rgb(0,0,0)" fill-opacity="1"></path></g></g></g></g><g><g><g><g transform="matrix(1,0,0,1,482.1500244140625,496.0500244140625)"><path transform="matrix(0.0119,0,0,-0.0119,0,0)" d="M34 388L41 368L73 389C110 412 113 414 120 414C130 414 138 404 138 391C138 384 134 361 130 347L64 107C56 76 51 49 51 30C51 6 62 -9 81 -9C107 -9 143 12 241 85L231 103L205 86C176 67 153 56 144 56C137 56 131 66 131 76C131 86 133 95 138 116L215 420C219 437 221 448 221 456C221 473 212 482 196 482C174 482 137 461 62 408ZM228 712C199 712 170 679 170 645C170 620 185 604 209 604C240 604 264 633 264 671C264 695 249 712 228 712ZM881 241L881 300L641 300L641 538L582 538L582 300L342 300L342 241L582 241L582 0L641 0L641 241ZM1363 -3L1363 27L1311 30C1256 33 1246 44 1246 96L1246 700L1005 598L1012 548L1162 614L1162 96C1162 44 1151 33 1097 30L1041 27L1041 -3C1195 0 1195 0 1206 0C1237 0 1347 -3 1363 -3Z" stroke="rgb(0,0,0)" stroke-opacity="1" stroke-width="8" fill="rgb(0,0,0)" fill-opacity="1"></path></g></g></g></g></g></g></g><g><g><g><g transform="matrix(1,0,0,1,338.13330078125,371.63330078125)"><path transform="matrix(0.017,0,0,-0.017,0,0)" d="M390 646L463 646C541 646 577 641 580 629C583 621 585 602 584 592L580 528L608 528L635 692L544 691C456 690 388 689 353 689C316 689 252 690 166 691L71 692L53 528L82 528L97 588C102 610 109 626 115 633C121 640 159 646 196 646L308 646L222 125C206 34 204 31 164 28L113 25L109 -3L166 -2C206 -1 235 0 251 0C270 0 301 -1 340 -2L384 -3L387 25L328 28C302 29 292 37 292 58C292 67 293 74 296 93Z" stroke="rgb(0,0,0)" stroke-opacity="1" stroke-width="8" fill="rgb(0,0,0)" fill-opacity="1"></path></g></g><g><g><g><g><g transform="matrix(1,0,0,1,349.5,364.6000122070312)"><path transform="matrix(0.0119,0,0,-0.0119,0,0)" d="M394 -12C554 -12 671 181 673 325C674 363 660 458 607 458C592 458 562 441 548 434L548 423C593 392 607 338 606 284C605 189 542 17 425 17C366 17 362 73 363 119C365 185 380 261 403 324L393 324C372 317 350 309 328 304C323 217 294 16 174 16C111 16 100 81 100 129C102 278 168 388 306 443L306 463C152 428 40 300 25 137C9 -29 213 -49 295 47C316 3 344 -12 394 -12ZM919 123C892 114 874 108 821 93C814 17 789 -48 731 -144L745 -155L786 -136C867 -31 905 32 933 109ZM988 388L995 368L1027 389C1064 412 1067 414 1074 414C1085 414 1092 404 1092 389C1092 338 1051 145 1010 2L1017 -9C1042 -2 1065 4 1087 8C1106 134 1127 199 1173 268C1227 352 1302 414 1347 414C1358 414 1364 405 1364 390C1364 372 1361 351 1353 319L1301 107C1292 70 1288 47 1288 31C1288 6 1299 -9 1318 -9C1344 -9 1380 12 1478 85L1468 103L1442 86C1413 67 1391 56 1381 56C1374 56 1368 65 1368 76C1368 81 1369 92 1370 96L1436 372C1443 401 1447 429 1447 446C1447 469 1436 482 1416 482C1374 482 1305 444 1246 389C1208 354 1180 320 1128 247L1166 408C1170 426 1172 438 1172 449C1172 470 1164 482 1149 482C1128 482 1089 460 1016 408ZM2123 241L2123 300L1883 300L1883 538L1824 538L1824 300L1584 300L1584 241L1824 241L1824 0L1883 0L1883 241ZM2605 -3L2605 27L2553 30C2498 33 2488 44 2488 96L2488 700L2247 598L2254 548L2404 614L2404 96C2404 44 2393 33 2339 30L2283 27L2283 -3C2437 0 2437 0 2448 0C2479 0 2589 -3 2605 -3Z" stroke="rgb(0,0,0)" stroke-opacity="1" stroke-width="8" fill="rgb(0,0,0)" fill-opacity="1"></path></g></g></g></g><g><g><g><g transform="matrix(1,0,0,1,349.0166015625,376.1166748046875)"><path transform="matrix(0.0119,0,0,-0.0119,0,0)" d="M34 388L41 368L73 389C110 412 113 414 120 414C130 414 138 404 138 391C138 384 134 361 130 347L64 107C56 76 51 49 51 30C51 6 62 -9 81 -9C107 -9 143 12 241 85L231 103L205 86C176 67 153 56 144 56C137 56 131 66 131 76C131 86 133 95 138 116L215 420C219 437 221 448 221 456C221 473 212 482 196 482C174 482 137 461 62 408ZM228 712C199 712 170 679 170 645C170 620 185 604 209 604C240 604 264 633 264 671C264 695 249 712 228 712Z" stroke="rgb(0,0,0)" stroke-opacity="1" stroke-width="8" fill="rgb(0,0,0)" fill-opacity="1"></path></g></g></g></g></g></g></g><g><g><g><g transform="matrix(1,0,0,1,480.13330078125,362.9666748046875)"><path transform="matrix(0.017,0,0,-0.017,0,0)" d="M390 646L463 646C541 646 577 641 580 629C583 621 585 602 584 592L580 528L608 528L635 692L544 691C456 690 388 689 353 689C316 689 252 690 166 691L71 692L53 528L82 528L97 588C102 610 109 626 115 633C121 640 159 646 196 646L308 646L222 125C206 34 204 31 164 28L113 25L109 -3L166 -2C206 -1 235 0 251 0C270 0 301 -1 340 -2L384 -3L387 25L328 28C302 29 292 37 292 58C292 67 293 74 296 93Z" stroke="rgb(0,0,0)" stroke-opacity="1" stroke-width="8" fill="rgb(0,0,0)" fill-opacity="1"></path></g></g><g><g><g><g><g transform="matrix(1,0,0,1,491.5,355.9333251953125)"><path transform="matrix(0.0119,0,0,-0.0119,0,0)" d="M394 -12C554 -12 671 181 673 325C674 363 660 458 607 458C592 458 562 441 548 434L548 423C593 392 607 338 606 284C605 189 542 17 425 17C366 17 362 73 363 119C365 185 380 261 403 324L393 324C372 317 350 309 328 304C323 217 294 16 174 16C111 16 100 81 100 129C102 278 168 388 306 443L306 463C152 428 40 300 25 137C9 -29 213 -49 295 47C316 3 344 -12 394 -12ZM919 123C892 114 874 108 821 93C814 17 789 -48 731 -144L745 -155L786 -136C867 -31 905 32 933 109ZM988 388L995 368L1027 389C1064 412 1067 414 1074 414C1085 414 1092 404 1092 389C1092 338 1051 145 1010 2L1017 -9C1042 -2 1065 4 1087 8C1106 134 1127 199 1173 268C1227 352 1302 414 1347 414C1358 414 1364 405 1364 390C1364 372 1361 351 1353 319L1301 107C1292 70 1288 47 1288 31C1288 6 1299 -9 1318 -9C1344 -9 1380 12 1478 85L1468 103L1442 86C1413 67 1391 56 1381 56C1374 56 1368 65 1368 76C1368 81 1369 92 1370 96L1436 372C1443 401 1447 429 1447 446C1447 469 1436 482 1416 482C1374 482 1305 444 1246 389C1208 354 1180 320 1128 247L1166 408C1170 426 1172 438 1172 449C1172 470 1164 482 1149 482C1128 482 1089 460 1016 408ZM2123 241L2123 300L1883 300L1883 538L1824 538L1824 300L1584 300L1584 241L1824 241L1824 0L1883 0L1883 241ZM2605 -3L2605 27L2553 30C2498 33 2488 44 2488 96L2488 700L2247 598L2254 548L2404 614L2404 96C2404 44 2393 33 2339 30L2283 27L2283 -3C2437 0 2437 0 2448 0C2479 0 2589 -3 2605 -3Z" stroke="rgb(0,0,0)" stroke-opacity="1" stroke-width="8" fill="rgb(0,0,0)" fill-opacity="1"></path></g></g></g></g><g><g><g><g transform="matrix(1,0,0,1,491.0166015625,367.4333251953125)"><path transform="matrix(0.0119,0,0,-0.0119,0,0)" d="M34 388L41 368L73 389C110 412 113 414 120 414C130 414 138 404 138 391C138 384 134 361 130 347L64 107C56 76 51 49 51 30C51 6 62 -9 81 -9C107 -9 143 12 241 85L231 103L205 86C176 67 153 56 144 56C137 56 131 66 131 76C131 86 133 95 138 116L215 420C219 437 221 448 221 456C221 473 212 482 196 482C174 482 137 461 62 408ZM228 712C199 712 170 679 170 645C170 620 185 604 209 604C240 604 264 633 264 671C264 695 249 712 228 712ZM881 241L881 300L641 300L641 538L582 538L582 300L342 300L342 241L582 241L582 0L641 0L641 241ZM1363 -3L1363 27L1311 30C1256 33 1246 44 1246 96L1246 700L1005 598L1012 548L1162 614L1162 96C1162 44 1151 33 1097 30L1041 27L1041 -3C1195 0 1195 0 1206 0C1237 0 1347 -3 1363 -3Z" stroke="rgb(0,0,0)" stroke-opacity="1" stroke-width="8" fill="rgb(0,0,0)" fill-opacity="1"></path></g></g></g></g></g></g></g><g><g><g><g transform="matrix(1,0,0,1,363.13330078125,564.63330078125)"><path transform="matrix(0.017,0,0,-0.017,0,0)" d="M390 646L463 646C541 646 577 641 580 629C583 621 585 602 584 592L580 528L608 528L635 692L544 691C456 690 388 689 353 689C316 689 252 690 166 691L71 692L53 528L82 528L97 588C102 610 109 626 115 633C121 640 159 646 196 646L308 646L222 125C206 34 204 31 164 28L113 25L109 -3L166 -2C206 -1 235 0 251 0C270 0 301 -1 340 -2L384 -3L387 25L328 28C302 29 292 37 292 58C292 67 293 74 296 93Z" stroke="rgb(0,0,0)" stroke-opacity="1" stroke-width="8" fill="rgb(0,0,0)" fill-opacity="1"></path></g></g><g><g><g><g><g transform="matrix(1,0,0,1,374.5,557.599951171875)"><path transform="matrix(0.0119,0,0,-0.0119,0,0)" d="M394 -12C554 -12 671 181 673 325C674 363 660 458 607 458C592 458 562 441 548 434L548 423C593 392 607 338 606 284C605 189 542 17 425 17C366 17 362 73 363 119C365 185 380 261 403 324L393 324C372 317 350 309 328 304C323 217 294 16 174 16C111 16 100 81 100 129C102 278 168 388 306 443L306 463C152 428 40 300 25 137C9 -29 213 -49 295 47C316 3 344 -12 394 -12ZM919 123C892 114 874 108 821 93C814 17 789 -48 731 -144L745 -155L786 -136C867 -31 905 32 933 109ZM988 388L995 368L1027 389C1064 412 1067 414 1074 414C1085 414 1092 404 1092 389C1092 338 1051 145 1010 2L1017 -9C1042 -2 1065 4 1087 8C1106 134 1127 199 1173 268C1227 352 1302 414 1347 414C1358 414 1364 405 1364 390C1364 372 1361 351 1353 319L1301 107C1292 70 1288 47 1288 31C1288 6 1299 -9 1318 -9C1344 -9 1380 12 1478 85L1468 103L1442 86C1413 67 1391 56 1381 56C1374 56 1368 65 1368 76C1368 81 1369 92 1370 96L1436 372C1443 401 1447 429 1447 446C1447 469 1436 482 1416 482C1374 482 1305 444 1246 389C1208 354 1180 320 1128 247L1166 408C1170 426 1172 438 1172 449C1172 470 1164 482 1149 482C1128 482 1089 460 1016 408Z" stroke="rgb(0,0,0)" stroke-opacity="1" stroke-width="8" fill="rgb(0,0,0)" fill-opacity="1"></path></g></g></g></g><g><g><g><g transform="matrix(1,0,0,1,374.0166015625,569.1166748046875)"><path transform="matrix(0.0119,0,0,-0.0119,0,0)" d="M34 388L41 368L73 389C110 412 113 414 120 414C130 414 138 404 138 391C138 384 134 361 130 347L64 107C56 76 51 49 51 30C51 6 62 -9 81 -9C107 -9 143 12 241 85L231 103L205 86C176 67 153 56 144 56C137 56 131 66 131 76C131 86 133 95 138 116L215 420C219 437 221 448 221 456C221 473 212 482 196 482C174 482 137 461 62 408ZM228 712C199 712 170 679 170 645C170 620 185 604 209 604C240 604 264 633 264 671C264 695 249 712 228 712Z" stroke="rgb(0,0,0)" stroke-opacity="1" stroke-width="8" fill="rgb(0,0,0)" fill-opacity="1"></path></g></g></g></g></g></g></g><g><g><g><g transform="matrix(1,0,0,1,488.13330078125,571.9666748046875)"><path transform="matrix(0.017,0,0,-0.017,0,0)" d="M390 646L463 646C541 646 577 641 580 629C583 621 585 602 584 592L580 528L608 528L635 692L544 691C456 690 388 689 353 689C316 689 252 690 166 691L71 692L53 528L82 528L97 588C102 610 109 626 115 633C121 640 159 646 196 646L308 646L222 125C206 34 204 31 164 28L113 25L109 -3L166 -2C206 -1 235 0 251 0C270 0 301 -1 340 -2L384 -3L387 25L328 28C302 29 292 37 292 58C292 67 293 74 296 93Z" stroke="rgb(0,0,0)" stroke-opacity="1" stroke-width="8" fill="rgb(0,0,0)" fill-opacity="1"></path></g></g><g><g><g><g><g transform="matrix(1,0,0,1,499.5,564.9333251953125)"><path transform="matrix(0.0119,0,0,-0.0119,0,0)" d="M394 -12C554 -12 671 181 673 325C674 363 660 458 607 458C592 458 562 441 548 434L548 423C593 392 607 338 606 284C605 189 542 17 425 17C366 17 362 73 363 119C365 185 380 261 403 324L393 324C372 317 350 309 328 304C323 217 294 16 174 16C111 16 100 81 100 129C102 278 168 388 306 443L306 463C152 428 40 300 25 137C9 -29 213 -49 295 47C316 3 344 -12 394 -12ZM919 123C892 114 874 108 821 93C814 17 789 -48 731 -144L745 -155L786 -136C867 -31 905 32 933 109ZM988 388L995 368L1027 389C1064 412 1067 414 1074 414C1085 414 1092 404 1092 389C1092 338 1051 145 1010 2L1017 -9C1042 -2 1065 4 1087 8C1106 134 1127 199 1173 268C1227 352 1302 414 1347 414C1358 414 1364 405 1364 390C1364 372 1361 351 1353 319L1301 107C1292 70 1288 47 1288 31C1288 6 1299 -9 1318 -9C1344 -9 1380 12 1478 85L1468 103L1442 86C1413 67 1391 56 1381 56C1374 56 1368 65 1368 76C1368 81 1369 92 1370 96L1436 372C1443 401 1447 429 1447 446C1447 469 1436 482 1416 482C1374 482 1305 444 1246 389C1208 354 1180 320 1128 247L1166 408C1170 426 1172 438 1172 449C1172 470 1164 482 1149 482C1128 482 1089 460 1016 408Z" stroke="rgb(0,0,0)" stroke-opacity="1" stroke-width="8" fill="rgb(0,0,0)" fill-opacity="1"></path></g></g></g></g><g><g><g><g transform="matrix(1,0,0,1,499.0166015625,576.4333251953125)"><path transform="matrix(0.0119,0,0,-0.0119,0,0)" d="M34 388L41 368L73 389C110 412 113 414 120 414C130 414 138 404 138 391C138 384 134 361 130 347L64 107C56 76 51 49 51 30C51 6 62 -9 81 -9C107 -9 143 12 241 85L231 103L205 86C176 67 153 56 144 56C137 56 131 66 131 76C131 86 133 95 138 116L215 420C219 437 221 448 221 456C221 473 212 482 196 482C174 482 137 461 62 408ZM228 712C199 712 170 679 170 645C170 620 185 604 209 604C240 604 264 633 264 671C264 695 249 712 228 712ZM881 241L881 300L641 300L641 538L582 538L582 300L342 300L342 241L582 241L582 0L641 0L641 241ZM1363 -3L1363 27L1311 30C1256 33 1246 44 1246 96L1246 700L1005 598L1012 548L1162 614L1162 96C1162 44 1151 33 1097 30L1041 27L1041 -3C1195 0 1195 0 1206 0C1237 0 1347 -3 1363 -3Z" stroke="rgb(0,0,0)" stroke-opacity="1" stroke-width="8" fill="rgb(0,0,0)" fill-opacity="1"></path></g></g></g></g></g></g></g><g><g><g><g><g><g><g transform="matrix(1,0,0,1,210.0999755859375,455.2833251953125)"><path transform="matrix(0.017,0,0,-0.017,0,0)" d="M390 646L463 646C541 646 577 641 580 629C583 621 585 602 584 592L580 528L608 528L635 692L544 691C456 690 388 689 353 689C316 689 252 690 166 691L71 692L53 528L82 528L97 588C102 610 109 626 115 633C121 640 159 646 196 646L308 646L222 125C206 34 204 31 164 28L113 25L109 -3L166 -2C206 -1 235 0 251 0C270 0 301 -1 340 -2L384 -3L387 25L328 28C302 29 292 37 292 58C292 67 293 74 296 93Z" stroke="rgb(0,0,0)" stroke-opacity="1" stroke-width="8" fill="rgb(0,0,0)" fill-opacity="1"></path></g></g></g></g><svg x="210.0999755859375" overflow="visible" y="431.11663818359375" height="9" width="10.366653442382812"><path d="M0.00,8.06 C 0.65 5.46, 2.59 5.46, 5.18 7.41  S 9.72 6.76, 10.37 5.46" style="fill:none;fill-opacity:1;stroke-width:1px;stroke:rgb(0,0,0);stroke-opacity:1;"></path></svg></g><g><g><g><g><g transform="matrix(1,0,0,1,221.4666748046875,435.15)"><path transform="matrix(0.0119,0,0,-0.0119,0,0)" d="M154 473C89 473 51 426 18 377C18 371 27 368 30 365L30 366C54 394 74 412 111 412C206 412 215 290 214 220C212 136 203 53 186 -29C140 -86 92 -181 65 -249C69 -257 74 -265 77 -273C98 -268 119 -260 139 -251C165 -183 189 -106 203 -36C387 199 540 317 547 438C550 493 485 453 459 446L459 435C502 284 287 130 220 19L220 23C302 358 258 473 154 473Z" stroke="rgb(0,0,0)" stroke-opacity="1" stroke-width="8" fill="rgb(0,0,0)" fill-opacity="1"></path></g></g></g></g><g><g><g><g transform="matrix(1,0,0,1,220.9832763671875,460.3666748046875)"><path transform="matrix(0.0119,0,0,-0.0119,0,0)" d="M34 388L41 368L73 389C110 412 113 414 120 414C130 414 138 404 138 391C138 384 134 361 130 347L64 107C56 76 51 49 51 30C51 6 62 -9 81 -9C107 -9 143 12 241 85L231 103L205 86C176 67 153 56 144 56C137 56 131 66 131 76C131 86 133 95 138 116L215 420C219 437 221 448 221 456C221 473 212 482 196 482C174 482 137 461 62 408ZM228 712C199 712 170 679 170 645C170 620 185 604 209 604C240 604 264 633 264 671C264 695 249 712 228 712Z" stroke="rgb(0,0,0)" stroke-opacity="1" stroke-width="8" fill="rgb(0,0,0)" fill-opacity="1"></path></g></g></g></g></g></g></g><g><g><g><g transform="matrix(1,0,0,1,239.6500244140625,319.2833251953125)"><path transform="matrix(0.017,0,0,-0.017,0,0)" d="M310 96L239 624C237 646 241 661 281 662L323 664L323 692L282 691C245 690 217 689 199 689C181 689 153 690 116 691L75 692L75 664L100 662C144 659 152 651 159 614L247 -8L296 -8L674 611C699 651 707 658 736 662L754 664L754 692L724 691C697 690 674 689 658 689C648 689 621 690 580 691L534 692L534 664L560 662C598 659 617 649 617 630C617 619 613 608 601 588Z" stroke="rgb(0,0,0)" stroke-opacity="1" stroke-width="8" fill="rgb(0,0,0)" fill-opacity="1"></path></g></g><g><g><g><g><g transform="matrix(1,0,0,1,252.9000244140625,312.2499755859375)"><path transform="matrix(0.0119,0,0,-0.0119,0,0)" d="M24 388L31 368L63 389C100 412 103 414 110 414C121 414 128 404 128 389C128 338 87 145 46 2L53 -9C78 -2 101 4 123 8C142 134 163 199 209 268C263 352 338 414 383 414C394 414 400 405 400 390C400 372 397 351 389 319L337 107C328 70 324 47 324 31C324 6 335 -9 354 -9C380 -9 416 12 514 85L504 103L478 86C449 67 427 56 417 56C410 56 404 65 404 76C404 81 405 92 406 96L472 372C479 401 483 429 483 446C483 469 472 482 452 482C410 482 341 444 282 389C244 354 216 320 164 247L202 408C206 426 208 438 208 449C208 470 200 482 185 482C164 482 125 460 52 408ZM1159 241L1159 300L919 300L919 538L860 538L860 300L620 300L620 241L860 241L860 0L919 0L919 241ZM1641 -3L1641 27L1589 30C1534 33 1524 44 1524 96L1524 700L1283 598L1290 548L1440 614L1440 96C1440 44 1429 33 1375 30L1319 27L1319 -3C1473 0 1473 0 1484 0C1515 0 1625 -3 1641 -3Z" stroke="rgb(0,0,0)" stroke-opacity="1" stroke-width="8" fill="rgb(0,0,0)" fill-opacity="1"></path></g></g></g></g><g><g><g><g transform="matrix(1,0,0,1,252.4166259765625,323.7499755859375)"><path transform="matrix(0.0119,0,0,-0.0119,0,0)" d="M34 388L41 368L73 389C110 412 113 414 120 414C130 414 138 404 138 391C138 384 134 361 130 347L64 107C56 76 51 49 51 30C51 6 62 -9 81 -9C107 -9 143 12 241 85L231 103L205 86C176 67 153 56 144 56C137 56 131 66 131 76C131 86 133 95 138 116L215 420C219 437 221 448 221 456C221 473 212 482 196 482C174 482 137 461 62 408ZM228 712C199 712 170 679 170 645C170 620 185 604 209 604C240 604 264 633 264 671C264 695 249 712 228 712ZM832 243L832 299L328 299L328 243ZM1300 -3L1300 27L1248 30C1193 33 1183 44 1183 96L1183 700L942 598L949 548L1099 614L1099 96C1099 44 1088 33 1034 30L978 27L978 -3C1132 0 1132 0 1143 0C1174 0 1284 -3 1300 -3Z" stroke="rgb(0,0,0)" stroke-opacity="1" stroke-width="8" fill="rgb(0,0,0)" fill-opacity="1"></path></g></g></g></g></g></g></g><g><g><g><g transform="matrix(1,0,0,1,237.800048828125,372.63330078125)"><path transform="matrix(0.017,0,0,-0.017,0,0)" d="M390 646L463 646C541 646 577 641 580 629C583 621 585 602 584 592L580 528L608 528L635 692L544 691C456 690 388 689 353 689C316 689 252 690 166 691L71 692L53 528L82 528L97 588C102 610 109 626 115 633C121 640 159 646 196 646L308 646L222 125C206 34 204 31 164 28L113 25L109 -3L166 -2C206 -1 235 0 251 0C270 0 301 -1 340 -2L384 -3L387 25L328 28C302 29 292 37 292 58C292 67 293 74 296 93Z" stroke="rgb(0,0,0)" stroke-opacity="1" stroke-width="8" fill="rgb(0,0,0)" fill-opacity="1"></path></g></g><g><g><g><g><g transform="matrix(1,0,0,1,249.1666259765625,365.6000122070312)"><path transform="matrix(0.0119,0,0,-0.0119,0,0)" d="M394 -12C554 -12 671 181 673 325C674 363 660 458 607 458C592 458 562 441 548 434L548 423C593 392 607 338 606 284C605 189 542 17 425 17C366 17 362 73 363 119C365 185 380 261 403 324L393 324C372 317 350 309 328 304C323 217 294 16 174 16C111 16 100 81 100 129C102 278 168 388 306 443L306 463C152 428 40 300 25 137C9 -29 213 -49 295 47C316 3 344 -12 394 -12ZM919 123C892 114 874 108 821 93C814 17 789 -48 731 -144L745 -155L786 -136C867 -31 905 32 933 109ZM988 388L995 368L1027 389C1064 412 1067 414 1074 414C1085 414 1092 404 1092 389C1092 338 1051 145 1010 2L1017 -9C1042 -2 1065 4 1087 8C1106 134 1127 199 1173 268C1227 352 1302 414 1347 414C1358 414 1364 405 1364 390C1364 372 1361 351 1353 319L1301 107C1292 70 1288 47 1288 31C1288 6 1299 -9 1318 -9C1344 -9 1380 12 1478 85L1468 103L1442 86C1413 67 1391 56 1381 56C1374 56 1368 65 1368 76C1368 81 1369 92 1370 96L1436 372C1443 401 1447 429 1447 446C1447 469 1436 482 1416 482C1374 482 1305 444 1246 389C1208 354 1180 320 1128 247L1166 408C1170 426 1172 438 1172 449C1172 470 1164 482 1149 482C1128 482 1089 460 1016 408ZM2123 241L2123 300L1883 300L1883 538L1824 538L1824 300L1584 300L1584 241L1824 241L1824 0L1883 0L1883 241ZM2605 -3L2605 27L2553 30C2498 33 2488 44 2488 96L2488 700L2247 598L2254 548L2404 614L2404 96C2404 44 2393 33 2339 30L2283 27L2283 -3C2437 0 2437 0 2448 0C2479 0 2589 -3 2605 -3Z" stroke="rgb(0,0,0)" stroke-opacity="1" stroke-width="8" fill="rgb(0,0,0)" fill-opacity="1"></path></g></g></g></g><g><g><g><g transform="matrix(1,0,0,1,248.683349609375,377.1000122070312)"><path transform="matrix(0.0119,0,0,-0.0119,0,0)" d="M34 388L41 368L73 389C110 412 113 414 120 414C130 414 138 404 138 391C138 384 134 361 130 347L64 107C56 76 51 49 51 30C51 6 62 -9 81 -9C107 -9 143 12 241 85L231 103L205 86C176 67 153 56 144 56C137 56 131 66 131 76C131 86 133 95 138 116L215 420C219 437 221 448 221 456C221 473 212 482 196 482C174 482 137 461 62 408ZM228 712C199 712 170 679 170 645C170 620 185 604 209 604C240 604 264 633 264 671C264 695 249 712 228 712ZM832 243L832 299L328 299L328 243ZM1300 -3L1300 27L1248 30C1193 33 1183 44 1183 96L1183 700L942 598L949 548L1099 614L1099 96C1099 44 1088 33 1034 30L978 27L978 -3C1132 0 1132 0 1143 0C1174 0 1284 -3 1300 -3Z" stroke="rgb(0,0,0)" stroke-opacity="1" stroke-width="8" fill="rgb(0,0,0)" fill-opacity="1"></path></g></g></g></g></g></g></g><g><g><g><g transform="matrix(1,0,0,1,27.2332763671875,124.5999755859375)"><path transform="matrix(0.017,0,0,-0.017,0,0)" d="M316 -3C388 -3 437 8 489 34C645 114 741 265 741 431C741 529 711 599 650 642C604 675 519 693 424 692L220 689L210 689C201 689 198 689 97 692L94 664L147 662C171 661 182 653 182 635C182 621 178 589 173 559L86 55C81 31 56 29 33 23L28 -3L121 0L176 0C211 0 282 -3 316 -3ZM384 655C566 655 649 579 649 415C649 225 549 41 329 41C285 41 236 46 168 56C168 68 169 75 172 93L268 650C291 650 349 655 384 655ZM1105 111L1081 94C1028 56 980 36 944 36C897 36 868 73 868 133C868 158 871 185 876 214C893 218 1002 248 1027 259C1112 296 1151 342 1151 404C1151 451 1117 482 1067 482C999 496 889 423 852 349C822 299 792 180 792 113C792 35 836 -11 908 -11C965 -11 1021 17 1113 92ZM890 274C907 343 927 386 956 412C974 428 1005 440 1029 440C1058 440 1077 420 1077 388C1077 344 1042 297 990 272C962 258 926 247 881 237ZM1436 204L1407 77C1403 60 1401 42 1401 26C1401 4 1410 -9 1425 -9C1448 -9 1489 17 1571 85L1564 106C1540 86 1511 59 1489 59C1480 59 1474 68 1474 82C1474 87 1474 90 1475 93L1567 472L1557 481L1524 463C1483 478 1466 482 1439 482C1411 482 1391 477 1364 464C1302 433 1269 403 1244 354C1200 265 1169 145 1169 67C1169 23 1184 -11 1203 -11C1240 -11 1320 41 1436 204ZM1484 414C1462 305 1443 253 1409 201C1352 117 1291 59 1259 59C1247 59 1241 72 1241 99C1241 163 1269 280 1304 360C1328 415 1351 433 1399 433C1422 433 1440 429 1484 414ZM2091 722L2079 733C2027 707 1991 698 1919 691L1915 670L1963 670C1987 670 1997 663 1997 646C1997 638 1996 629 1995 622L1967 468C1937 477 1910 482 1885 482C1816 482 1722 410 1676 323C1645 265 1625 170 1625 86C1625 21 1640 -11 1669 -11C1696 -11 1733 6 1767 33C1821 77 1854 116 1921 217L1898 126C1887 82 1882 50 1882 24C1882 3 1891 -9 1908 -9C1925 -9 1949 3 1983 28L2064 88L2054 107L2010 76C1996 66 1980 59 1971 59C1963 59 1957 68 1957 82C1957 90 1958 99 1965 128ZM1722 59C1706 59 1697 73 1697 98C1697 224 1743 380 1792 418C1805 428 1824 433 1851 433C1895 433 1924 427 1957 410L1945 351C1908 171 1767 59 1722 59ZM2698 330L2721 330C2729 395 2736 432 2745 458C2721 473 2686 482 2649 482C2604 483 2531 463 2474 400C2420 352 2381 241 2381 136C2381 40 2423 -11 2503 -11C2557 -11 2605 9 2660 54L2710 95L2702 115L2687 105C2615 57 2577 40 2542 40C2486 40 2457 80 2457 159C2457 267 2492 371 2541 409C2562 425 2586 433 2617 433C2662 433 2698 414 2698 390ZM3090 111L3066 94C3013 56 2965 36 2929 36C2882 36 2853 73 2853 133C2853 158 2856 185 2861 214C2878 218 2987 248 3012 259C3097 296 3136 342 3136 404C3136 451 3102 482 3052 482C2984 496 2874 423 2837 349C2807 299 2777 180 2777 113C2777 35 2821 -11 2893 -11C2950 -11 3006 17 3098 92ZM2875 274C2892 343 2912 386 2941 412C2959 428 2990 440 3014 440C3043 440 3062 420 3062 388C3062 344 3027 297 2975 272C2947 258 2911 247 2866 237ZM3401 722L3389 733C3337 707 3301 698 3229 691L3225 670L3273 670C3297 670 3307 663 3307 648C3307 645 3307 640 3304 622C3293 567 3220 182 3205 132C3192 82 3186 52 3186 31C3186 6 3197 -9 3216 -9C3242 -9 3278 12 3376 85L3366 103L3340 86C3311 67 3289 56 3279 56C3272 56 3266 66 3266 76C3266 82 3267 89 3270 104ZM3678 722L3666 733C3614 707 3578 698 3506 691L3502 670L3550 670C3574 670 3584 663 3584 648C3584 645 3584 640 3581 622C3570 567 3497 182 3482 132C3469 82 3463 52 3463 31C3463 6 3474 -9 3493 -9C3519 -9 3555 12 3653 85L3643 103L3617 86C3588 67 3566 56 3556 56C3549 56 3543 66 3543 76C3543 82 3544 89 3547 104Z" stroke="rgb(0,0,0)" stroke-opacity="1" stroke-width="8" fill="rgb(0,0,0)" fill-opacity="1"></path></g></g></g></g><g><g><g><g transform="matrix(1,0,0,1,48.0333251953125,467.4000244140625)"><path transform="matrix(0.017,0,0,-0.017,0,0)" d="M286 646L392 650C454 650 494 641 495 626L503 537L527 537C530 600 537 651 548 689C526 691 498 692 481 692L440 691L275 689L246 689C221 689 181 690 143 691L94 692L91 664L147 662C171 661 182 652 182 635C182 621 178 589 173 559L98 125C81 33 81 32 40 28L4 25L0 -3L34 -2C74 -1 106 0 127 0C145 0 174 -1 213 -2L265 -3L268 25L204 28C177 29 168 37 168 57C168 63 169 74 170 78L206 301L323 301C350 301 381 300 429 298L455 297L474 342L470 349C389 345 329 343 251 343L214 343L260 614C263 630 264 635 269 646ZM923 365C926 403 931 435 939 476C928 481 924 482 919 482C888 482 857 458 821 407C782 351 743 291 727 256L759 408C763 425 765 438 765 450C765 470 757 482 742 482C721 482 683 461 609 408L581 388L588 368L620 389C648 407 659 412 668 412C678 412 685 403 685 390C685 332 642 126 602 -2L612 -9C627 -4 643 -1 666 4L679 6L705 126C723 209 746 262 790 319C824 363 851 384 873 384C888 384 898 379 909 365ZM1271 111L1247 94C1194 56 1146 36 1110 36C1063 36 1034 73 1034 133C1034 158 1037 185 1042 214C1059 218 1168 248 1193 259C1278 296 1317 342 1317 404C1317 451 1283 482 1233 482C1165 496 1055 423 1018 349C988 299 958 180 958 113C958 35 1002 -11 1074 -11C1131 -11 1187 17 1279 92ZM1056 274C1073 343 1093 386 1122 412C1140 428 1171 440 1195 440C1224 440 1243 420 1243 388C1243 344 1208 297 1156 272C1128 258 1092 247 1047 237ZM1362 148C1357 97 1351 62 1340 16C1378 -2 1412 -11 1447 -11C1496 -11 1542 7 1593 47C1644 87 1665 124 1665 174C1665 228 1633 257 1559 271L1516 279C1456 290 1437 307 1437 348C1437 401 1482 442 1539 442C1580 442 1618 424 1634 397L1634 342L1657 342C1661 377 1665 404 1676 455C1637 474 1609 482 1576 482C1524 482 1463 452 1415 404C1389 377 1378 352 1378 316C1378 260 1409 228 1475 215L1538 203C1582 195 1598 177 1598 138C1598 73 1552 29 1481 29C1446 29 1415 40 1387 64L1387 148ZM1955 722L1943 733C1898 711 1857 697 1783 691L1779 670L1827 670C1845 670 1861 667 1861 647C1861 641 1861 632 1859 622L1817 388C1797 272 1755 80 1729 2L1736 -9L1805 7C1813 64 1827 164 1867 236C1912 317 2015 414 2057 414C2068 414 2079 407 2079 393C2079 375 2074 342 2064 303L2013 107C2007 85 2000 55 2000 31C2000 6 2010 -9 2031 -9C2063 -9 2131 41 2190 85L2180 103L2154 86C2131 71 2105 56 2093 56C2086 56 2080 65 2080 76C2080 88 2083 101 2087 116L2151 372C2157 398 2162 423 2162 447C2162 464 2156 482 2130 482C2095 482 2018 437 1950 374C1917 343 1891 308 1863 273L1859 275ZM2809 330L2832 330C2840 395 2847 432 2856 458C2832 473 2797 482 2760 482C2715 483 2642 463 2585 400C2531 352 2492 241 2492 136C2492 40 2534 -11 2614 -11C2668 -11 2716 9 2771 54L2821 95L2813 115L2798 105C2726 57 2688 40 2653 40C2597 40 2568 80 2568 159C2568 267 2603 371 2652 409C2673 425 2697 433 2728 433C2773 433 2809 414 2809 390ZM3201 111L3177 94C3124 56 3076 36 3040 36C2993 36 2964 73 2964 133C2964 158 2967 185 2972 214C2989 218 3098 248 3123 259C3208 296 3247 342 3247 404C3247 451 3213 482 3163 482C3095 496 2985 423 2948 349C2918 299 2888 180 2888 113C2888 35 2932 -11 3004 -11C3061 -11 3117 17 3209 92ZM2986 274C3003 343 3023 386 3052 412C3070 428 3101 440 3125 440C3154 440 3173 420 3173 388C3173 344 3138 297 3086 272C3058 258 3022 247 2977 237ZM3512 722L3500 733C3448 707 3412 698 3340 691L3336 670L3384 670C3408 670 3418 663 3418 648C3418 645 3418 640 3415 622C3404 567 3331 182 3316 132C3303 82 3297 52 3297 31C3297 6 3308 -9 3327 -9C3353 -9 3389 12 3487 85L3477 103L3451 86C3422 67 3400 56 3390 56C3383 56 3377 66 3377 76C3377 82 3378 89 3381 104ZM3789 722L3777 733C3725 707 3689 698 3617 691L3613 670L3661 670C3685 670 3695 663 3695 648C3695 645 3695 640 3692 622C3681 567 3608 182 3593 132C3580 82 3574 52 3574 31C3574 6 3585 -9 3604 -9C3630 -9 3666 12 3764 85L3754 103L3728 86C3699 67 3677 56 3667 56C3660 56 3654 66 3654 76C3654 82 3655 89 3658 104Z" stroke="rgb(0,0,0)" stroke-opacity="1" stroke-width="8" fill="rgb(0,0,0)" fill-opacity="1"></path></g></g></g></g></svg>
</svg>
