<svg xmlns="http://www.w3.org/2000/svg" xmlns:xlink="http://www.w3.org/1999/xlink" x="0" y="0" width="662.8666585286459" height="220.8499959309896" style="
        width:662.8666585286459px;
        height:220.8499959309896px;
        background: transparent;
        fill: none;
">
        
        
        <svg xmlns="http://www.w3.org/2000/svg" class="role-diagram-draw-area"><g class="shapes-region" style="stroke: black; fill: none;"><g class="arrow-line"><path class="connection real" stroke-dasharray="" d="  M3.67,79 L262.67,79.33  M91.67,75.11 L91.66,83.11 M179.67,75.23 L179.66,83.23" style="stroke: rgb(0, 0, 0); stroke-width: 1px; fill: none; fill-opacity: 1;"/></g><g class="composite-shape"><path class="real" d=" M220.77,79.04 C220.77,77.69 222.03,76.6 223.59,76.6 C225.14,76.6 226.4,77.69 226.4,79.04 C226.4,80.39 225.14,81.49 223.59,81.49 C222.03,81.49 220.77,80.39 220.77,79.04 Z" style="stroke-width: 1px; stroke: rgb(0, 0, 0); fill: rgb(74, 144, 226); fill-opacity: 1;"/></g><g class="composite-shape"><path class="real" d=" M134.35,79.17 C134.35,77.82 135.61,76.72 137.17,76.72 C138.72,76.72 139.98,77.82 139.98,79.17 C139.98,80.52 138.72,81.61 137.17,81.61 C135.61,81.61 134.35,80.52 134.35,79.17 Z" style="stroke-width: 1px; stroke: rgb(0, 0, 0); fill: rgb(74, 144, 226); fill-opacity: 1;"/></g><g class="composite-shape"><path class="real" d=" M48.59,78.33 C48.59,76.98 49.85,75.89 51.4,75.89 C52.95,75.89 54.21,76.98 54.21,78.33 C54.21,79.68 52.95,80.78 51.4,80.78 C49.85,80.78 48.59,79.68 48.59,78.33 Z" style="stroke-width: 1px; stroke: rgb(0, 0, 0); fill: rgb(74, 144, 226); fill-opacity: 1;"/></g><g class="arrow-line"><path class="connection real" stroke-dasharray="" d="  M99.67,119.35 L174.67,119.65" style="stroke: rgb(0, 0, 0); stroke-width: 3px; fill: none; fill-opacity: 1;"/><g stroke="#000" transform="matrix(-0.9999919428800662,-0.00401424649846379,0.00401424649846379,-0.9999919428800662,178.66666666666669,119.66666666666653)" style="stroke: rgb(0, 0, 0); stroke-width: 3px;"><path d=" M17.49,-5.26 Q7.94,-0.72 0,0 Q7.94,0.72 17.49,5.26"/></g><g stroke="#000" transform="matrix(0.9999919428800662,0.004014246498463718,-0.004014246498463718,0.9999919428800662,95.66666666666669,119.33333333333326)" style="stroke: rgb(0, 0, 0); stroke-width: 3px;"><path d=" M17.49,-5.26 Q7.94,-0.72 0,0 Q7.94,0.72 17.49,5.26"/></g></g><g class="composite-shape"><path class="real" d=" M414.1,36.71 L500,36.71 L500,122.6 L414.1,122.6 Z" style="stroke-width: 3px; stroke: rgb(0, 0, 0); fill: none; fill-opacity: 1;"/></g><g class="composite-shape"><path class="real" d=" M500,36.71 L585.9,36.71 L585.9,122.6 L500,122.6 Z" style="stroke-width: 3px; stroke: rgb(0, 0, 0); fill: none; fill-opacity: 1;"/></g><g class="composite-shape"><path class="real" d=" M328.21,36.71 L414.1,36.71 L414.1,122.6 L328.21,122.6 Z" style="stroke-width: 3px; stroke: rgb(0, 0, 0); fill: none; fill-opacity: 1;"/></g><g class="composite-shape"><path class="real" d=" M367.59,122.33 C367.59,120.98 368.85,119.89 370.4,119.89 C371.95,119.89 373.21,120.98 373.21,122.33 C373.21,123.68 371.95,124.78 370.4,124.78 C368.85,124.78 367.59,123.68 367.59,122.33 Z" style="stroke-width: 1px; stroke: rgb(0, 0, 0); fill: rgb(74, 144, 226); fill-opacity: 1;"/></g><g class="composite-shape"><path class="real" d=" M456.59,123 C456.59,121.65 457.85,120.56 459.4,120.56 C460.95,120.56 462.21,121.65 462.21,123 C462.21,124.35 460.95,125.44 459.4,125.44 C457.85,125.44 456.59,124.35 456.59,123 Z" style="stroke-width: 1px; stroke: rgb(0, 0, 0); fill: rgb(74, 144, 226); fill-opacity: 1;"/></g><g class="composite-shape"><path class="real" d=" M542.59,122.67 C542.59,121.32 543.85,120.22 545.4,120.22 C546.95,120.22 548.21,121.32 548.21,122.67 C548.21,124.02 546.95,125.11 545.4,125.11 C543.85,125.11 542.59,124.02 542.59,122.67 Z" style="stroke-width: 1px; stroke: rgb(0, 0, 0); fill: rgb(74, 144, 226); fill-opacity: 1;"/></g><g class="composite-shape"><path class="real" d=" M368.25,36.67 C368.25,35.32 369.51,34.22 371.07,34.22 C372.62,34.22 373.88,35.32 373.88,36.67 C373.88,38.02 372.62,39.11 371.07,39.11 C369.51,39.11 368.25,38.02 368.25,36.67 Z" style="stroke-width: 1px; stroke: rgb(0, 0, 0); fill: rgb(74, 144, 226); fill-opacity: 1;"/></g><g class="composite-shape"><path class="real" d=" M457.25,37.33 C457.25,35.98 458.51,34.89 460.07,34.89 C461.62,34.89 462.88,35.98 462.88,37.33 C462.88,38.68 461.62,39.78 460.07,39.78 C458.51,39.78 457.25,38.68 457.25,37.33 Z" style="stroke-width: 1px; stroke: rgb(0, 0, 0); fill: rgb(74, 144, 226); fill-opacity: 1;"/></g><g class="composite-shape"><path class="real" d=" M543.25,37 C543.25,35.65 544.51,34.56 546.07,34.56 C547.62,34.56 548.88,35.65 548.88,37 C548.88,38.35 547.62,39.44 546.07,39.44 C544.51,39.44 543.25,38.35 543.25,37 Z" style="stroke-width: 1px; stroke: rgb(0, 0, 0); fill: rgb(74, 144, 226); fill-opacity: 1;"/></g><g class="arrow-line"><path class="connection real" stroke-dasharray="" d="  M637.33,40 L637.33,122.33" style="stroke: rgb(0, 0, 0); stroke-width: 3px; fill: none; fill-opacity: 1;"/><g stroke="#000" transform="matrix(-1.8369701987210297e-16,-1,1,-1.8369701987210297e-16,637.3333333333335,126.33333333333371)" style="stroke: rgb(0, 0, 0); stroke-width: 3px;"><path d=" M17.49,-5.26 Q7.94,-0.72 0,0 Q7.94,0.72 17.49,5.26"/></g><g stroke="#000" transform="matrix(6.123233995736766e-17,1,-1,6.123233995736766e-17,637.3333333333335,36.00000000000023)" style="stroke: rgb(0, 0, 0); stroke-width: 3px;"><path d=" M17.49,-5.26 Q7.94,-0.72 0,0 Q7.94,0.72 17.49,5.26"/></g></g><g class="arrow-line"><path class="connection real" stroke-dasharray="" d="  M420,181.35 L495,181.65" style="stroke: rgb(0, 0, 0); stroke-width: 3px; fill: none; fill-opacity: 1;"/><g stroke="#000" transform="matrix(-0.9999919428800662,-0.00401424649846379,0.00401424649846379,-0.9999919428800662,499,181.66666666666674)" style="stroke: rgb(0, 0, 0); stroke-width: 3px;"><path d=" M17.49,-5.26 Q7.94,-0.72 0,0 Q7.94,0.72 17.49,5.26"/></g><g stroke="#000" transform="matrix(0.9999919428800662,0.004014246498463718,-0.004014246498463718,0.9999919428800662,416.00000000000006,181.33333333333348)" style="stroke: rgb(0, 0, 0); stroke-width: 3px;"><path d=" M17.49,-5.26 Q7.94,-0.72 0,0 Q7.94,0.72 17.49,5.26"/></g></g><g/></g><g/><g/><g/></svg>
        <svg xmlns="http://www.w3.org/2000/svg" xmlns:xlink="http://www.w3.org/1999/xlink" width="660" height="217.98333740234375" style="width:660px;height:217.98333740234375px;font-family:Asana-Math, Asana;background:transparent;"><g><g><g><g transform="matrix(1,0,0,1,136.0999959309896,109.93333435058594)"><path transform="matrix(0.017,0,0,-0.017,0,0)" d="M34 388L41 368L73 389C110 412 113 414 120 414C130 414 138 404 138 391C138 384 134 361 130 347L64 107C56 76 51 49 51 30C51 6 62 -9 81 -9C107 -9 143 12 241 85L231 103L205 86C176 67 153 56 144 56C137 56 131 66 131 76C131 86 133 95 138 116L215 420C219 437 221 448 221 456C221 473 212 482 196 482C174 482 137 461 62 408ZM228 712C199 712 170 679 170 645C170 620 185 604 209 604C240 604 264 633 264 671C264 695 249 712 228 712Z" stroke="rgb(0,0,0)" stroke-opacity="1" stroke-width="8" fill="rgb(0,0,0)" fill-opacity="1"></path></g></g></g></g><g><g><g><g transform="matrix(1,0,0,1,208.0999959309896,108.60000101725245)"><path transform="matrix(0.017,0,0,-0.017,0,0)" d="M34 388L41 368L73 389C110 412 113 414 120 414C130 414 138 404 138 391C138 384 134 361 130 347L64 107C56 76 51 49 51 30C51 6 62 -9 81 -9C107 -9 143 12 241 85L231 103L205 86C176 67 153 56 144 56C137 56 131 66 131 76C131 86 133 95 138 116L215 420C219 437 221 448 221 456C221 473 212 482 196 482C174 482 137 461 62 408ZM228 712C199 712 170 679 170 645C170 620 185 604 209 604C240 604 264 633 264 671C264 695 249 712 228 712Z" stroke="rgb(0,0,0)" stroke-opacity="1" stroke-width="8" fill="rgb(0,0,0)" fill-opacity="1"></path></g></g><g><g transform="matrix(1,0,0,1,216.2166951497396,108.60000101725245)"><path transform="matrix(0.017,0,0,-0.017,0,0)" d="M604 241L604 300L364 300L364 538L305 538L305 300L65 300L65 241L305 241L305 0L364 0L364 241Z" stroke="rgb(0,0,0)" stroke-opacity="1" stroke-width="8" fill="rgb(0,0,0)" fill-opacity="1"></path></g></g><g><g transform="matrix(1,0,0,1,230.9666951497396,108.60000101725245)"><path transform="matrix(0.017,0,0,-0.017,0,0)" d="M418 -3L418 27L366 30C311 33 301 44 301 96L301 700L60 598L67 548L217 614L217 96C217 44 206 33 152 30L96 27L96 -3C250 0 250 0 261 0C292 0 402 -3 418 -3Z" stroke="rgb(0,0,0)" stroke-opacity="1" stroke-width="8" fill="rgb(0,0,0)" fill-opacity="1"></path></g></g></g></g><g><g><g><g transform="matrix(1,0,0,1,37.43332926432292,109.60000101725245)"><path transform="matrix(0.017,0,0,-0.017,0,0)" d="M34 388L41 368L73 389C110 412 113 414 120 414C130 414 138 404 138 391C138 384 134 361 130 347L64 107C56 76 51 49 51 30C51 6 62 -9 81 -9C107 -9 143 12 241 85L231 103L205 86C176 67 153 56 144 56C137 56 131 66 131 76C131 86 133 95 138 116L215 420C219 437 221 448 221 456C221 473 212 482 196 482C174 482 137 461 62 408ZM228 712C199 712 170 679 170 645C170 620 185 604 209 604C240 604 264 633 264 671C264 695 249 712 228 712Z" stroke="rgb(0,0,0)" stroke-opacity="1" stroke-width="8" fill="rgb(0,0,0)" fill-opacity="1"></path></g></g><g><g transform="matrix(1,0,0,1,45.55000813802083,109.60000101725245)"><path transform="matrix(0.017,0,0,-0.017,0,0)" d="M555 243L555 299L51 299L51 243Z" stroke="rgb(0,0,0)" stroke-opacity="1" stroke-width="8" fill="rgb(0,0,0)" fill-opacity="1"></path></g></g><g><g transform="matrix(1,0,0,1,59.23333740234375,109.60000101725245)"><path transform="matrix(0.017,0,0,-0.017,0,0)" d="M418 -3L418 27L366 30C311 33 301 44 301 96L301 700L60 598L67 548L217 614L217 96C217 44 206 33 152 30L96 27L96 -3C250 0 250 0 261 0C292 0 402 -3 418 -3Z" stroke="rgb(0,0,0)" stroke-opacity="1" stroke-width="8" fill="rgb(0,0,0)" fill-opacity="1"></path></g></g></g></g><g><g><g><g transform="matrix(1,0,0,1,126.86667887369792,145.04999898274733)"><path transform="matrix(0.020399999999999998,0,0,-0.020399999999999998,0,0)" d="M-33 6L-28 -4C79 0 185 0 292 0C393 0 494 -1 594 -4L602 6C560 116 534 238 504 354C475 466 442 580 424 697L399 697C336 587 53 127 -33 6ZM482 37L50 37C148 215 249 389 356 564L363 564C408 391 449 215 482 37ZM697 1C712 -7 728 -11 740 -11C773 -11 812 18 843 65L919 182L930 113C943 28 966 -11 1002 -11C1024 -11 1056 6 1088 35L1137 79L1128 98C1092 68 1067 53 1051 53C1036 53 1023 63 1013 83C1004 102 993 139 988 168L970 269L1005 318C1052 383 1079 406 1110 406C1126 406 1138 398 1143 383L1157 387L1172 472C1160 479 1151 482 1142 482C1102 482 1062 446 1000 354L963 299L957 347C945 446 918 482 859 482C833 482 811 474 802 461L744 378L761 368C791 402 811 416 830 416C863 416 885 375 902 277L913 215L873 153C830 86 796 54 768 54C753 54 742 58 740 63L729 91L709 88C709 53 701 27 697 1Z" stroke="rgb(0,0,0)" stroke-opacity="1" stroke-width="8" fill="rgb(0,0,0)" fill-opacity="1"></path></g></g></g></g><g><g><g><g transform="matrix(1,0,0,1,457.09999593098956,154.2666778564453)"><path transform="matrix(0.017,0,0,-0.017,0,0)" d="M34 388L41 368L73 389C110 412 113 414 120 414C130 414 138 404 138 391C138 384 134 361 130 347L64 107C56 76 51 49 51 30C51 6 62 -9 81 -9C107 -9 143 12 241 85L231 103L205 86C176 67 153 56 144 56C137 56 131 66 131 76C131 86 133 95 138 116L215 420C219 437 221 448 221 456C221 473 212 482 196 482C174 482 137 461 62 408ZM228 712C199 712 170 679 170 645C170 620 185 604 209 604C240 604 264 633 264 671C264 695 249 712 228 712Z" stroke="rgb(0,0,0)" stroke-opacity="1" stroke-width="8" fill="rgb(0,0,0)" fill-opacity="1"></path></g></g></g></g><g><g><g><g transform="matrix(1,0,0,1,529.0999959309896,152.93334452311183)"><path transform="matrix(0.017,0,0,-0.017,0,0)" d="M34 388L41 368L73 389C110 412 113 414 120 414C130 414 138 404 138 391C138 384 134 361 130 347L64 107C56 76 51 49 51 30C51 6 62 -9 81 -9C107 -9 143 12 241 85L231 103L205 86C176 67 153 56 144 56C137 56 131 66 131 76C131 86 133 95 138 116L215 420C219 437 221 448 221 456C221 473 212 482 196 482C174 482 137 461 62 408ZM228 712C199 712 170 679 170 645C170 620 185 604 209 604C240 604 264 633 264 671C264 695 249 712 228 712Z" stroke="rgb(0,0,0)" stroke-opacity="1" stroke-width="8" fill="rgb(0,0,0)" fill-opacity="1"></path></g></g><g><g transform="matrix(1,0,0,1,537.2166951497396,152.93334452311183)"><path transform="matrix(0.017,0,0,-0.017,0,0)" d="M604 241L604 300L364 300L364 538L305 538L305 300L65 300L65 241L305 241L305 0L364 0L364 241Z" stroke="rgb(0,0,0)" stroke-opacity="1" stroke-width="8" fill="rgb(0,0,0)" fill-opacity="1"></path></g></g><g><g transform="matrix(1,0,0,1,551.9666951497396,152.93334452311183)"><path transform="matrix(0.017,0,0,-0.017,0,0)" d="M418 -3L418 27L366 30C311 33 301 44 301 96L301 700L60 598L67 548L217 614L217 96C217 44 206 33 152 30L96 27L96 -3C250 0 250 0 261 0C292 0 402 -3 418 -3Z" stroke="rgb(0,0,0)" stroke-opacity="1" stroke-width="8" fill="rgb(0,0,0)" fill-opacity="1"></path></g></g></g></g><g><g><g><g transform="matrix(1,0,0,1,358.4333292643229,153.93334452311183)"><path transform="matrix(0.017,0,0,-0.017,0,0)" d="M34 388L41 368L73 389C110 412 113 414 120 414C130 414 138 404 138 391C138 384 134 361 130 347L64 107C56 76 51 49 51 30C51 6 62 -9 81 -9C107 -9 143 12 241 85L231 103L205 86C176 67 153 56 144 56C137 56 131 66 131 76C131 86 133 95 138 116L215 420C219 437 221 448 221 456C221 473 212 482 196 482C174 482 137 461 62 408ZM228 712C199 712 170 679 170 645C170 620 185 604 209 604C240 604 264 633 264 671C264 695 249 712 228 712Z" stroke="rgb(0,0,0)" stroke-opacity="1" stroke-width="8" fill="rgb(0,0,0)" fill-opacity="1"></path></g></g><g><g transform="matrix(1,0,0,1,366.5500284830729,153.93334452311183)"><path transform="matrix(0.017,0,0,-0.017,0,0)" d="M555 243L555 299L51 299L51 243Z" stroke="rgb(0,0,0)" stroke-opacity="1" stroke-width="8" fill="rgb(0,0,0)" fill-opacity="1"></path></g></g><g><g transform="matrix(1,0,0,1,380.23333740234375,153.93334452311183)"><path transform="matrix(0.017,0,0,-0.017,0,0)" d="M418 -3L418 27L366 30C311 33 301 44 301 96L301 700L60 598L67 548L217 614L217 96C217 44 206 33 152 30L96 27L96 -3C250 0 250 0 261 0C292 0 402 -3 418 -3Z" stroke="rgb(0,0,0)" stroke-opacity="1" stroke-width="8" fill="rgb(0,0,0)" fill-opacity="1"></path></g></g></g></g><g><g><g><g transform="matrix(1,0,0,1,288.09999593098956,127.86667378743482)"><path transform="matrix(0.017,0,0,-0.017,0,0)" d="M125 390L69 107C68 99 56 61 56 31C56 6 67 -9 86 -9C121 -9 156 11 234 74L265 99L255 117L210 86C181 66 161 56 150 56C141 56 136 64 136 76C136 102 150 183 179 328L192 390L299 390L310 440C272 436 238 434 200 434C216 528 227 577 245 631L234 646C214 634 187 622 156 610L131 440C87 419 61 408 43 403L41 390Z" stroke="rgb(0,0,0)" stroke-opacity="1" stroke-width="8" fill="rgb(0,0,0)" fill-opacity="1"></path></g></g><g><g><g><g><g transform="matrix(1,0,0,1,294.75002034505206,121.00001118977858)"><path transform="matrix(0.0119,0,0,-0.0119,0,0)" d="M24 388L31 368L63 389C100 412 103 414 110 414C121 414 128 404 128 389C128 338 87 145 46 2L53 -9C78 -2 101 4 123 8C142 134 163 199 209 268C263 352 338 414 383 414C394 414 400 405 400 390C400 372 397 351 389 319L337 107C328 70 324 47 324 31C324 6 335 -9 354 -9C380 -9 416 12 514 85L504 103L478 86C449 67 427 56 417 56C410 56 404 65 404 76C404 81 405 92 406 96L472 372C479 401 483 429 483 446C483 469 472 482 452 482C410 482 341 444 282 389C244 354 216 320 164 247L202 408C206 426 208 438 208 449C208 470 200 482 185 482C164 482 125 460 52 408Z" stroke="rgb(0,0,0)" stroke-opacity="1" stroke-width="8" fill="rgb(0,0,0)" fill-opacity="1"></path></g></g></g></g></g></g></g><g><g><g><g transform="matrix(1,0,0,1,284.76666259765625,41.86667378743482)"><path transform="matrix(0.017,0,0,-0.017,0,0)" d="M125 390L69 107C68 99 56 61 56 31C56 6 67 -9 86 -9C121 -9 156 11 234 74L265 99L255 117L210 86C181 66 161 56 150 56C141 56 136 64 136 76C136 102 150 183 179 328L192 390L299 390L310 440C272 436 238 434 200 434C216 528 227 577 245 631L234 646C214 634 187 622 156 610L131 440C87 419 61 408 43 403L41 390Z" stroke="rgb(0,0,0)" stroke-opacity="1" stroke-width="8" fill="rgb(0,0,0)" fill-opacity="1"></path></g></g><g><g><g><g><g transform="matrix(1,0,0,1,291.41668701171875,34.98332824707031)"><path transform="matrix(0.0119,0,0,-0.0119,0,0)" d="M24 388L31 368L63 389C100 412 103 414 110 414C121 414 128 404 128 389C128 338 87 145 46 2L53 -9C78 -2 101 4 123 8C142 134 163 199 209 268C263 352 338 414 383 414C394 414 400 405 400 390C400 372 397 351 389 319L337 107C328 70 324 47 324 31C324 6 335 -9 354 -9C380 -9 416 12 514 85L504 103L478 86C449 67 427 56 417 56C410 56 404 65 404 76C404 81 405 92 406 96L472 372C479 401 483 429 483 446C483 469 472 482 452 482C410 482 341 444 282 389C244 354 216 320 164 247L202 408C206 426 208 438 208 449C208 470 200 482 185 482C164 482 125 460 52 408ZM1159 241L1159 300L919 300L919 538L860 538L860 300L620 300L620 241L860 241L860 0L919 0L919 241ZM1641 -3L1641 27L1589 30C1534 33 1524 44 1524 96L1524 700L1283 598L1290 548L1440 614L1440 96C1440 44 1429 33 1375 30L1319 27L1319 -3C1473 0 1473 0 1484 0C1515 0 1625 -3 1641 -3Z" stroke="rgb(0,0,0)" stroke-opacity="1" stroke-width="8" fill="rgb(0,0,0)" fill-opacity="1"></path></g></g></g></g></g></g></g><g><g><g><g transform="matrix(1,0,0,1,607.4166463216146,88.39999491373683)"><path transform="matrix(0.020399999999999998,0,0,-0.020399999999999998,0,0)" d="M-33 6L-28 -4C79 0 185 0 292 0C393 0 494 -1 594 -4L602 6C560 116 534 238 504 354C475 466 442 580 424 697L399 697C336 587 53 127 -33 6ZM482 37L50 37C148 215 249 389 356 564L363 564C408 391 449 215 482 37ZM813 390L757 107C756 99 744 61 744 31C744 6 755 -9 774 -9C809 -9 844 11 922 74L953 99L943 117L898 86C869 66 849 56 838 56C829 56 824 64 824 76C824 102 838 183 867 328L880 390L987 390L998 440C960 436 926 434 888 434C904 528 915 577 933 631L922 646C902 634 875 622 844 610L819 440C775 419 749 408 731 403L729 390Z" stroke="rgb(0,0,0)" stroke-opacity="1" stroke-width="8" fill="rgb(0,0,0)" fill-opacity="1"></path></g></g></g></g><g><g><g><g transform="matrix(1,0,0,1,447.20001220703125,207.04999898274733)"><path transform="matrix(0.020399999999999998,0,0,-0.020399999999999998,0,0)" d="M-33 6L-28 -4C79 0 185 0 292 0C393 0 494 -1 594 -4L602 6C560 116 534 238 504 354C475 466 442 580 424 697L399 697C336 587 53 127 -33 6ZM482 37L50 37C148 215 249 389 356 564L363 564C408 391 449 215 482 37ZM697 1C712 -7 728 -11 740 -11C773 -11 812 18 843 65L919 182L930 113C943 28 966 -11 1002 -11C1024 -11 1056 6 1088 35L1137 79L1128 98C1092 68 1067 53 1051 53C1036 53 1023 63 1013 83C1004 102 993 139 988 168L970 269L1005 318C1052 383 1079 406 1110 406C1126 406 1138 398 1143 383L1157 387L1172 472C1160 479 1151 482 1142 482C1102 482 1062 446 1000 354L963 299L957 347C945 446 918 482 859 482C833 482 811 474 802 461L744 378L761 368C791 402 811 416 830 416C863 416 885 375 902 277L913 215L873 153C830 86 796 54 768 54C753 54 742 58 740 63L729 91L709 88C709 53 701 27 697 1Z" stroke="rgb(0,0,0)" stroke-opacity="1" stroke-width="8" fill="rgb(0,0,0)" fill-opacity="1"></path></g></g></g></g></svg>
</svg>
