<svg xmlns="http://www.w3.org/2000/svg" xmlns:xlink="http://www.w3.org/1999/xlink" x="0" y="0" width="662.8666585286459" height="322.4666748046875" style="
        width:662.8666585286459px;
        height:322.4666748046875px;
        background: transparent;
        fill: none;
">
        
        
        <svg xmlns="http://www.w3.org/2000/svg" class="role-diagram-draw-area"><g class="shapes-region" style="stroke: black; fill: none;"><g class="composite-shape"><path class="real" d=" M321.85,53.01 L457.45,53.01 L457.45,200.24 L321.85,200.24 Z" style="stroke-width: 3px; stroke: rgb(0, 0, 0); fill: none; fill-opacity: 1;"/></g><g class="composite-shape"><path class="real" d=" M457.45,53.01 L593.06,53.01 L593.06,200.24 L457.45,200.24 Z" style="stroke-width: 3px; stroke: rgb(0, 0, 0); fill: none; fill-opacity: 1;"/></g><g class="composite-shape"><path class="real" d=" M186.24,53.01 L321.85,53.01 L321.85,200.24 L186.24,200.24 Z" style="stroke-width: 3px; stroke: rgb(0, 0, 0); fill: none; fill-opacity: 1;"/></g><g class="composite-shape"><path class="real" d=" M249.6,200.32 C249.6,198.01 251.59,196.14 254.04,196.14 C256.5,196.14 258.49,198.01 258.49,200.32 C258.49,202.64 256.5,204.51 254.04,204.51 C251.59,204.51 249.6,202.64 249.6,200.32 Z" style="stroke-width: 1px; stroke: rgb(0, 0, 0); fill: rgb(74, 144, 226); fill-opacity: 1;"/></g><g class="composite-shape"><path class="real" d=" M526.99,200.32 C526.99,198.01 528.98,196.14 531.43,196.14 C533.89,196.14 535.88,198.01 535.88,200.32 C535.88,202.64 533.89,204.51 531.43,204.51 C528.98,204.51 526.99,202.64 526.99,200.32 Z" style="stroke-width: 1px; stroke: rgb(0, 0, 0); fill: rgb(74, 144, 226); fill-opacity: 1;"/></g><g class="composite-shape"><path class="real" d=" M249.6,52.92 C249.6,50.6 251.59,48.73 254.04,48.73 C256.5,48.73 258.49,50.6 258.49,52.92 C258.49,55.23 256.5,57.1 254.04,57.1 C251.59,57.1 249.6,55.23 249.6,52.92 Z" style="stroke-width: 1px; stroke: rgb(0, 0, 0); fill: rgb(74, 144, 226); fill-opacity: 1;"/></g><g class="composite-shape"><path class="real" d=" M526.99,54.63 C526.99,52.32 528.98,50.44 531.43,50.44 C533.89,50.44 535.88,52.32 535.88,54.63 C535.88,56.94 533.89,58.82 531.43,58.82 C528.98,58.82 526.99,56.94 526.99,54.63 Z" style="stroke-width: 1px; stroke: rgb(0, 0, 0); fill: rgb(74, 144, 226); fill-opacity: 1;"/></g><g class="arrow-line"><path class="connection real" stroke-dasharray="" d="  M56.98,50.65 L56.98,197.49" style="stroke: rgb(0, 0, 0); stroke-width: 3px; fill: none; fill-opacity: 1;"/><g stroke="#000" transform="matrix(-1.8369701987210297e-16,-1,1,-1.8369701987210297e-16,56.981720799464256,201.48597513818493)" style="stroke: rgb(0, 0, 0); stroke-width: 3px;"><path d=" M17.49,-5.26 Q7.94,-0.72 0,0 Q7.94,0.72 17.49,5.26"/></g><g stroke="#000" transform="matrix(6.123233995736766e-17,1,-1,6.123233995736766e-17,56.981720799464256,46.64873360741947)" style="stroke: rgb(0, 0, 0); stroke-width: 3px;"><path d=" M17.49,-5.26 Q7.94,-0.72 0,0 Q7.94,0.72 17.49,5.26"/></g></g><g class="arrow-line"><path class="connection real" stroke-dasharray="" d="  M328.5,268.25 L451.54,268.79" style="stroke: rgb(0, 0, 0); stroke-width: 3px; fill: none; fill-opacity: 1;"/><g stroke="#000" transform="matrix(-0.9999904807207345,-0.004363309284746176,0.004363309284746176,-0.9999904807207345,455.5388436347764,268.8064570614958)" style="stroke: rgb(0, 0, 0); stroke-width: 3px;"><path d=" M17.49,-5.26 Q7.94,-0.72 0,0 Q7.94,0.72 17.49,5.26"/></g><g stroke="#000" transform="matrix(0.9999904807207345,0.004363309284746571,-0.004363309284746571,0.9999904807207345,324.50490750549847,268.2351019266961)" style="stroke: rgb(0, 0, 0); stroke-width: 3px;"><path d=" M17.49,-5.26 Q7.94,-0.72 0,0 Q7.94,0.72 17.49,5.26"/></g></g><g class="composite-shape"><path class="real" d=" M247.86,126.62 C247.86,122.91 250.63,119.91 254.04,119.91 C257.46,119.91 260.22,122.91 260.22,126.62 C260.22,130.33 257.46,133.33 254.04,133.33 C250.63,133.33 247.86,130.33 247.86,126.62 Z" style="stroke-width: 1px; stroke: rgb(0, 0, 0); fill: rgb(0, 0, 0); fill-opacity: 1;"/></g><g class="composite-shape"><path class="real" d=" M383.47,126.62 C383.47,122.91 386.24,119.91 389.65,119.91 C393.06,119.91 395.83,122.91 395.83,126.62 C395.83,130.33 393.06,133.33 389.65,133.33 C386.24,133.33 383.47,130.33 383.47,126.62 Z" style="stroke-width: 1px; stroke: rgb(0, 0, 0); fill: rgb(0, 0, 0); fill-opacity: 1;"/></g><g class="composite-shape"><path class="real" d=" M525.25,126.62 C525.25,122.91 528.02,119.91 531.43,119.91 C534.85,119.91 537.61,122.91 537.61,126.62 C537.61,130.33 534.85,133.33 531.43,133.33 C528.02,133.33 525.25,130.33 525.25,126.62 Z" style="stroke-width: 1px; stroke: rgb(0, 0, 0); fill: rgb(0, 0, 0); fill-opacity: 1;"/></g><g class="composite-shape"><path class="real" d=" M330.94,125.3 L315.16,133.45 L315.16,117.14 Z" style="stroke-width: 1px; stroke: rgb(0, 0, 0); fill: rgb(0, 0, 0); fill-opacity: 1;"/></g><g class="composite-shape"><path class="real" d=" M465.45,128.04 L449.66,136.19 L449.66,119.89 Z" style="stroke-width: 1px; stroke: rgb(0, 0, 0); fill: rgb(0, 0, 0); fill-opacity: 1;"/></g><g class="composite-shape"><path class="real" d=" M390.28,190.95 L397.79,208.09 L382.77,208.09 Z" style="stroke-width: 1px; stroke: rgb(0, 0, 0); fill: rgb(0, 0, 0); fill-opacity: 1;"/></g><g class="composite-shape"><path class="real" d=" M389.65,44.35 L397.16,61.49 L382.14,61.49 Z" style="stroke-width: 1px; stroke: rgb(0, 0, 0); fill: rgb(0, 0, 0); fill-opacity: 1;"/></g><g class="composite-shape"><path class="real" d=" M385.84,199.52 C385.84,197.2 387.83,195.33 390.28,195.33 C392.73,195.33 394.72,197.2 394.72,199.52 C394.72,201.83 392.73,203.71 390.28,203.71 C387.83,203.71 385.84,201.83 385.84,199.52 Z" style="stroke-width: 1px; stroke: rgb(0, 0, 0); fill: rgb(74, 144, 226); fill-opacity: 1;"/></g><g class="composite-shape"><path class="real" d=" M385.21,52.92 C385.21,50.6 387.19,48.73 389.65,48.73 C392.1,48.73 394.09,50.6 394.09,52.92 C394.09,55.23 392.1,57.1 389.65,57.1 C387.19,57.1 385.21,55.23 385.21,52.92 Z" style="stroke-width: 1px; stroke: rgb(0, 0, 0); fill: rgb(74, 144, 226); fill-opacity: 1;"/></g><g/></g><g/><g/><g/></svg>
        <svg xmlns="http://www.w3.org/2000/svg" xmlns:xlink="http://www.w3.org/1999/xlink" width="660" height="319.5999959309895" style="width:660px;height:319.5999959309895px;font-family:Asana-Math, Asana;background:transparent;"><g><g><g><g transform="matrix(1,0,0,1,127.01666259765624,203.74999491373705)"><path transform="matrix(0.017,0,0,-0.017,0,0)" d="M125 390L69 107C68 99 56 61 56 31C56 6 67 -9 86 -9C121 -9 156 11 234 74L265 99L255 117L210 86C181 66 161 56 150 56C141 56 136 64 136 76C136 102 150 183 179 328L192 390L299 390L310 440C272 436 238 434 200 434C216 528 227 577 245 631L234 646C214 634 187 622 156 610L131 440C87 419 61 408 43 403L41 390Z" stroke="rgb(0,0,0)" stroke-opacity="1" stroke-width="8" fill="rgb(0,0,0)" fill-opacity="1"></path></g></g><g><g><g><g><g transform="matrix(1,0,0,1,133.66666666666669,196.8833323160808)"><path transform="matrix(0.0119,0,0,-0.0119,0,0)" d="M24 388L31 368L63 389C100 412 103 414 110 414C121 414 128 404 128 389C128 338 87 145 46 2L53 -9C78 -2 101 4 123 8C142 134 163 199 209 268C263 352 338 414 383 414C394 414 400 405 400 390C400 372 397 351 389 319L337 107C328 70 324 47 324 31C324 6 335 -9 354 -9C380 -9 416 12 514 85L504 103L478 86C449 67 427 56 417 56C410 56 404 65 404 76C404 81 405 92 406 96L472 372C479 401 483 429 483 446C483 469 472 482 452 482C410 482 341 444 282 389C244 354 216 320 164 247L202 408C206 426 208 438 208 449C208 470 200 482 185 482C164 482 125 460 52 408Z" stroke="rgb(0,0,0)" stroke-opacity="1" stroke-width="8" fill="rgb(0,0,0)" fill-opacity="1"></path></g></g></g></g></g></g></g><g><g><g><g transform="matrix(1,0,0,1,125.80000813802083,56.35000101725268)"><path transform="matrix(0.017,0,0,-0.017,0,0)" d="M125 390L69 107C68 99 56 61 56 31C56 6 67 -9 86 -9C121 -9 156 11 234 74L265 99L255 117L210 86C181 66 161 56 150 56C141 56 136 64 136 76C136 102 150 183 179 328L192 390L299 390L310 440C272 436 238 434 200 434C216 528 227 577 245 631L234 646C214 634 187 622 156 610L131 440C87 419 61 408 43 403L41 390Z" stroke="rgb(0,0,0)" stroke-opacity="1" stroke-width="8" fill="rgb(0,0,0)" fill-opacity="1"></path></g></g><g><g><g><g><g transform="matrix(1,0,0,1,132.45001220703125,49.46667073567723)"><path transform="matrix(0.0119,0,0,-0.0119,0,0)" d="M24 388L31 368L63 389C100 412 103 414 110 414C121 414 128 404 128 389C128 338 87 145 46 2L53 -9C78 -2 101 4 123 8C142 134 163 199 209 268C263 352 338 414 383 414C394 414 400 405 400 390C400 372 397 351 389 319L337 107C328 70 324 47 324 31C324 6 335 -9 354 -9C380 -9 416 12 514 85L504 103L478 86C449 67 427 56 417 56C410 56 404 65 404 76C404 81 405 92 406 96L472 372C479 401 483 429 483 446C483 469 472 482 452 482C410 482 341 444 282 389C244 354 216 320 164 247L202 408C206 426 208 438 208 449C208 470 200 482 185 482C164 482 125 460 52 408ZM1159 241L1159 300L919 300L919 538L860 538L860 300L620 300L620 241L860 241L860 0L919 0L919 241ZM1641 -3L1641 27L1589 30C1534 33 1524 44 1524 96L1524 700L1283 598L1290 548L1440 614L1440 96C1440 44 1429 33 1375 30L1319 27L1319 -3C1473 0 1473 0 1484 0C1515 0 1625 -3 1641 -3Z" stroke="rgb(0,0,0)" stroke-opacity="1" stroke-width="8" fill="rgb(0,0,0)" fill-opacity="1"></path></g></g></g></g></g></g></g><g><g><g><g transform="matrix(1,0,0,1,15.850006103515621,130.48332824707032)"><path transform="matrix(0.020399999999999998,0,0,-0.020399999999999998,0,0)" d="M-33 6L-28 -4C79 0 185 0 292 0C393 0 494 -1 594 -4L602 6C560 116 534 238 504 354C475 466 442 580 424 697L399 697C336 587 53 127 -33 6ZM482 37L50 37C148 215 249 389 356 564L363 564C408 391 449 215 482 37ZM813 390L757 107C756 99 744 61 744 31C744 6 755 -9 774 -9C809 -9 844 11 922 74L953 99L943 117L898 86C869 66 849 56 838 56C829 56 824 64 824 76C824 102 838 183 867 328L880 390L987 390L998 440C960 436 926 434 888 434C904 528 915 577 933 631L922 646C902 634 875 622 844 610L819 440C775 419 749 408 731 403L729 390Z" stroke="rgb(0,0,0)" stroke-opacity="1" stroke-width="8" fill="rgb(0,0,0)" fill-opacity="1"></path></g></g></g></g><g><g><g><g transform="matrix(1,0,0,1,380.75002034505206,306.3333241780598)"><path transform="matrix(0.020399999999999998,0,0,-0.020399999999999998,0,0)" d="M-33 6L-28 -4C79 0 185 0 292 0C393 0 494 -1 594 -4L602 6C560 116 534 238 504 354C475 466 442 580 424 697L399 697C336 587 53 127 -33 6ZM482 37L50 37C148 215 249 389 356 564L363 564C408 391 449 215 482 37ZM697 1C712 -7 728 -11 740 -11C773 -11 812 18 843 65L919 182L930 113C943 28 966 -11 1002 -11C1024 -11 1056 6 1088 35L1137 79L1128 98C1092 68 1067 53 1051 53C1036 53 1023 63 1013 83C1004 102 993 139 988 168L970 269L1005 318C1052 383 1079 406 1110 406C1126 406 1138 398 1143 383L1157 387L1172 472C1160 479 1151 482 1142 482C1102 482 1062 446 1000 354L963 299L957 347C945 446 918 482 859 482C833 482 811 474 802 461L744 378L761 368C791 402 811 416 830 416C863 416 885 375 902 277L913 215L873 153C830 86 796 54 768 54C753 54 742 58 740 63L729 91L709 88C709 53 701 27 697 1Z" stroke="rgb(0,0,0)" stroke-opacity="1" stroke-width="8" fill="rgb(0,0,0)" fill-opacity="1"></path></g></g></g></g><g><g><g><g><g><g><g transform="matrix(1,0,0,1,223.88336181640625,156.11667378743505)"><path transform="matrix(0.017,0,0,-0.017,0,0)" d="M390 646L463 646C541 646 577 641 580 629C583 621 585 602 584 592L580 528L608 528L635 692L544 691C456 690 388 689 353 689C316 689 252 690 166 691L71 692L53 528L82 528L97 588C102 610 109 626 115 633C121 640 159 646 196 646L308 646L222 125C206 34 204 31 164 28L113 25L109 -3L166 -2C206 -1 235 0 251 0C270 0 301 -1 340 -2L384 -3L387 25L328 28C302 29 292 37 292 58C292 67 293 74 296 93Z" stroke="rgb(0,0,0)" stroke-opacity="1" stroke-width="8" fill="rgb(0,0,0)" fill-opacity="1"></path></g></g></g></g><svg x="223.88336181640625" overflow="visible" y="131.9500071207683" height="9" width="10.366663614908873"><path d="M0.00,8.06 C 0.65 5.46, 2.59 5.46, 5.18 7.41  S 9.72 6.76, 10.37 5.46" style="fill:none;fill-opacity:1;stroke-width:1px;stroke:rgb(0,0,0);stroke-opacity:1;"></path></svg></g><g><g><g><g><g transform="matrix(1,0,0,1,235.2500203450521,137.98332824707032)"><path transform="matrix(0.0119,0,0,-0.0119,0,0)" d="M394 -12C554 -12 671 181 673 325C674 363 660 458 607 458C592 458 562 441 548 434L548 423C593 392 607 338 606 284C605 189 542 17 425 17C366 17 362 73 363 119C365 185 380 261 403 324L393 324C372 317 350 309 328 304C323 217 294 16 174 16C111 16 100 81 100 129C102 278 168 388 306 443L306 463C152 428 40 300 25 137C9 -29 213 -49 295 47C316 3 344 -12 394 -12Z" stroke="rgb(0,0,0)" stroke-opacity="1" stroke-width="8" fill="rgb(0,0,0)" fill-opacity="1"></path></g></g></g></g><g><g><g><g transform="matrix(1,0,0,1,234.76666259765628,161.18334045410157)"><path transform="matrix(0.0119,0,0,-0.0119,0,0)" d="M34 388L41 368L73 389C110 412 113 414 120 414C130 414 138 404 138 391C138 384 134 361 130 347L64 107C56 76 51 49 51 30C51 6 62 -9 81 -9C107 -9 143 12 241 85L231 103L205 86C176 67 153 56 144 56C137 56 131 66 131 76C131 86 133 95 138 116L215 420C219 437 221 448 221 456C221 473 212 482 196 482C174 482 137 461 62 408ZM228 712C199 712 170 679 170 645C170 620 185 604 209 604C240 604 264 633 264 671C264 695 249 712 228 712ZM832 243L832 299L328 299L328 243ZM1300 -3L1300 27L1248 30C1193 33 1183 44 1183 96L1183 700L942 598L949 548L1099 614L1099 96C1099 44 1088 33 1034 30L978 27L978 -3C1132 0 1132 0 1143 0C1174 0 1284 -3 1300 -3Z" stroke="rgb(0,0,0)" stroke-opacity="1" stroke-width="8" fill="rgb(0,0,0)" fill-opacity="1"></path></g></g></g></g></g></g></g><g><g><g><g><g><g><g transform="matrix(1,0,0,1,363.8666788736979,159.3333282470703)"><path transform="matrix(0.017,0,0,-0.017,0,0)" d="M390 646L463 646C541 646 577 641 580 629C583 621 585 602 584 592L580 528L608 528L635 692L544 691C456 690 388 689 353 689C316 689 252 690 166 691L71 692L53 528L82 528L97 588C102 610 109 626 115 633C121 640 159 646 196 646L308 646L222 125C206 34 204 31 164 28L113 25L109 -3L166 -2C206 -1 235 0 251 0C270 0 301 -1 340 -2L384 -3L387 25L328 28C302 29 292 37 292 58C292 67 293 74 296 93Z" stroke="rgb(0,0,0)" stroke-opacity="1" stroke-width="8" fill="rgb(0,0,0)" fill-opacity="1"></path></g></g></g></g><svg x="363.8666788736979" overflow="visible" y="135.1666615804038" height="9" width="10.366668701171875"><path d="M0.00,8.06 C 0.65 5.46, 2.59 5.46, 5.18 7.41  S 9.72 6.76, 10.37 5.46" style="fill:none;fill-opacity:1;stroke-width:1px;stroke:rgb(0,0,0);stroke-opacity:1;"></path></svg></g><g><g><g><g><g transform="matrix(1,0,0,1,375.23333740234375,141.20000305175782)"><path transform="matrix(0.0119,0,0,-0.0119,0,0)" d="M394 -12C554 -12 671 181 673 325C674 363 660 458 607 458C592 458 562 441 548 434L548 423C593 392 607 338 606 284C605 189 542 17 425 17C366 17 362 73 363 119C365 185 380 261 403 324L393 324C372 317 350 309 328 304C323 217 294 16 174 16C111 16 100 81 100 129C102 278 168 388 306 443L306 463C152 428 40 300 25 137C9 -29 213 -49 295 47C316 3 344 -12 394 -12Z" stroke="rgb(0,0,0)" stroke-opacity="1" stroke-width="8" fill="rgb(0,0,0)" fill-opacity="1"></path></g></g></g></g><g><g><g><g transform="matrix(1,0,0,1,374.75002034505206,164.4166575113933)"><path transform="matrix(0.0119,0,0,-0.0119,0,0)" d="M34 388L41 368L73 389C110 412 113 414 120 414C130 414 138 404 138 391C138 384 134 361 130 347L64 107C56 76 51 49 51 30C51 6 62 -9 81 -9C107 -9 143 12 241 85L231 103L205 86C176 67 153 56 144 56C137 56 131 66 131 76C131 86 133 95 138 116L215 420C219 437 221 448 221 456C221 473 212 482 196 482C174 482 137 461 62 408ZM228 712C199 712 170 679 170 645C170 620 185 604 209 604C240 604 264 633 264 671C264 695 249 712 228 712Z" stroke="rgb(0,0,0)" stroke-opacity="1" stroke-width="8" fill="rgb(0,0,0)" fill-opacity="1"></path></g></g></g></g></g></g></g><g><g><g><g><g><g><g transform="matrix(1,0,0,1,501.03334554036456,156.03334045410156)"><path transform="matrix(0.017,0,0,-0.017,0,0)" d="M390 646L463 646C541 646 577 641 580 629C583 621 585 602 584 592L580 528L608 528L635 692L544 691C456 690 388 689 353 689C316 689 252 690 166 691L71 692L53 528L82 528L97 588C102 610 109 626 115 633C121 640 159 646 196 646L308 646L222 125C206 34 204 31 164 28L113 25L109 -3L166 -2C206 -1 235 0 251 0C270 0 301 -1 340 -2L384 -3L387 25L328 28C302 29 292 37 292 58C292 67 293 74 296 93Z" stroke="rgb(0,0,0)" stroke-opacity="1" stroke-width="8" fill="rgb(0,0,0)" fill-opacity="1"></path></g></g></g></g><svg x="501.03334554036456" overflow="visible" y="131.86667378743505" height="9" width="10.366668701171875"><path d="M0.00,8.06 C 0.65 5.46, 2.59 5.46, 5.18 7.41  S 9.72 6.76, 10.37 5.46" style="fill:none;fill-opacity:1;stroke-width:1px;stroke:rgb(0,0,0);stroke-opacity:1;"></path></svg></g><g><g><g><g><g transform="matrix(1,0,0,1,512.4000040690105,137.89999491373706)"><path transform="matrix(0.0119,0,0,-0.0119,0,0)" d="M394 -12C554 -12 671 181 673 325C674 363 660 458 607 458C592 458 562 441 548 434L548 423C593 392 607 338 606 284C605 189 542 17 425 17C366 17 362 73 363 119C365 185 380 261 403 324L393 324C372 317 350 309 328 304C323 217 294 16 174 16C111 16 100 81 100 129C102 278 168 388 306 443L306 463C152 428 40 300 25 137C9 -29 213 -49 295 47C316 3 344 -12 394 -12Z" stroke="rgb(0,0,0)" stroke-opacity="1" stroke-width="8" fill="rgb(0,0,0)" fill-opacity="1"></path></g></g></g></g><g><g><g><g transform="matrix(1,0,0,1,511.9166870117187,161.1000071207683)"><path transform="matrix(0.0119,0,0,-0.0119,0,0)" d="M34 388L41 368L73 389C110 412 113 414 120 414C130 414 138 404 138 391C138 384 134 361 130 347L64 107C56 76 51 49 51 30C51 6 62 -9 81 -9C107 -9 143 12 241 85L231 103L205 86C176 67 153 56 144 56C137 56 131 66 131 76C131 86 133 95 138 116L215 420C219 437 221 448 221 456C221 473 212 482 196 482C174 482 137 461 62 408ZM228 712C199 712 170 679 170 645C170 620 185 604 209 604C240 604 264 633 264 671C264 695 249 712 228 712ZM881 241L881 300L641 300L641 538L582 538L582 300L342 300L342 241L582 241L582 0L641 0L641 241ZM1363 -3L1363 27L1311 30C1256 33 1246 44 1246 96L1246 700L1005 598L1012 548L1162 614L1162 96C1162 44 1151 33 1097 30L1041 27L1041 -3C1195 0 1195 0 1206 0C1237 0 1347 -3 1363 -3Z" stroke="rgb(0,0,0)" stroke-opacity="1" stroke-width="8" fill="rgb(0,0,0)" fill-opacity="1"></path></g></g></g></g></g></g></g><g><g><g><g transform="matrix(1,0,0,1,240.2166951497396,25.35000101725268)"><path transform="matrix(0.017,0,0,-0.017,0,0)" d="M390 646L463 646C541 646 577 641 580 629C583 621 585 602 584 592L580 528L608 528L635 692L544 691C456 690 388 689 353 689C316 689 252 690 166 691L71 692L53 528L82 528L97 588C102 610 109 626 115 633C121 640 159 646 196 646L308 646L222 125C206 34 204 31 164 28L113 25L109 -3L166 -2C206 -1 235 0 251 0C270 0 301 -1 340 -2L384 -3L387 25L328 28C302 29 292 37 292 58C292 67 293 74 296 93Z" stroke="rgb(0,0,0)" stroke-opacity="1" stroke-width="8" fill="rgb(0,0,0)" fill-opacity="1"></path></g></g><g><g><g><g><g transform="matrix(1,0,0,1,251.5833536783854,18.31666666666674)"><path transform="matrix(0.0119,0,0,-0.0119,0,0)" d="M394 -12C554 -12 671 181 673 325C674 363 660 458 607 458C592 458 562 441 548 434L548 423C593 392 607 338 606 284C605 189 542 17 425 17C366 17 362 73 363 119C365 185 380 261 403 324L393 324C372 317 350 309 328 304C323 217 294 16 174 16C111 16 100 81 100 129C102 278 168 388 306 443L306 463C152 428 40 300 25 137C9 -29 213 -49 295 47C316 3 344 -12 394 -12ZM919 123C892 114 874 108 821 93C814 17 789 -48 731 -144L745 -155L786 -136C867 -31 905 32 933 109ZM988 388L995 368L1027 389C1064 412 1067 414 1074 414C1085 414 1092 404 1092 389C1092 338 1051 145 1010 2L1017 -9C1042 -2 1065 4 1087 8C1106 134 1127 199 1173 268C1227 352 1302 414 1347 414C1358 414 1364 405 1364 390C1364 372 1361 351 1353 319L1301 107C1292 70 1288 47 1288 31C1288 6 1299 -9 1318 -9C1344 -9 1380 12 1478 85L1468 103L1442 86C1413 67 1391 56 1381 56C1374 56 1368 65 1368 76C1368 81 1369 92 1370 96L1436 372C1443 401 1447 429 1447 446C1447 469 1436 482 1416 482C1374 482 1305 444 1246 389C1208 354 1180 320 1128 247L1166 408C1170 426 1172 438 1172 449C1172 470 1164 482 1149 482C1128 482 1089 460 1016 408ZM2123 241L2123 300L1883 300L1883 538L1824 538L1824 300L1584 300L1584 241L1824 241L1824 0L1883 0L1883 241ZM2605 -3L2605 27L2553 30C2498 33 2488 44 2488 96L2488 700L2247 598L2254 548L2404 614L2404 96C2404 44 2393 33 2339 30L2283 27L2283 -3C2437 0 2437 0 2448 0C2479 0 2589 -3 2605 -3Z" stroke="rgb(0,0,0)" stroke-opacity="1" stroke-width="8" fill="rgb(0,0,0)" fill-opacity="1"></path></g></g></g></g><g><g><g><g transform="matrix(1,0,0,1,251.0999959309896,29.81666666666674)"><path transform="matrix(0.0119,0,0,-0.0119,0,0)" d="M34 388L41 368L73 389C110 412 113 414 120 414C130 414 138 404 138 391C138 384 134 361 130 347L64 107C56 76 51 49 51 30C51 6 62 -9 81 -9C107 -9 143 12 241 85L231 103L205 86C176 67 153 56 144 56C137 56 131 66 131 76C131 86 133 95 138 116L215 420C219 437 221 448 221 456C221 473 212 482 196 482C174 482 137 461 62 408ZM228 712C199 712 170 679 170 645C170 620 185 604 209 604C240 604 264 633 264 671C264 695 249 712 228 712ZM832 243L832 299L328 299L328 243ZM1300 -3L1300 27L1248 30C1193 33 1183 44 1183 96L1183 700L942 598L949 548L1099 614L1099 96C1099 44 1088 33 1034 30L978 27L978 -3C1132 0 1132 0 1143 0C1174 0 1284 -3 1300 -3Z" stroke="rgb(0,0,0)" stroke-opacity="1" stroke-width="8" fill="rgb(0,0,0)" fill-opacity="1"></path></g></g></g></g></g></g></g><g><g><g><g transform="matrix(1,0,0,1,367.5500284830729,25.016667683919422)"><path transform="matrix(0.017,0,0,-0.017,0,0)" d="M390 646L463 646C541 646 577 641 580 629C583 621 585 602 584 592L580 528L608 528L635 692L544 691C456 690 388 689 353 689C316 689 252 690 166 691L71 692L53 528L82 528L97 588C102 610 109 626 115 633C121 640 159 646 196 646L308 646L222 125C206 34 204 31 164 28L113 25L109 -3L166 -2C206 -1 235 0 251 0C270 0 301 -1 340 -2L384 -3L387 25L328 28C302 29 292 37 292 58C292 67 293 74 296 93Z" stroke="rgb(0,0,0)" stroke-opacity="1" stroke-width="8" fill="rgb(0,0,0)" fill-opacity="1"></path></g></g><g><g><g><g><g transform="matrix(1,0,0,1,378.91668701171875,17.983333333333483)"><path transform="matrix(0.0119,0,0,-0.0119,0,0)" d="M394 -12C554 -12 671 181 673 325C674 363 660 458 607 458C592 458 562 441 548 434L548 423C593 392 607 338 606 284C605 189 542 17 425 17C366 17 362 73 363 119C365 185 380 261 403 324L393 324C372 317 350 309 328 304C323 217 294 16 174 16C111 16 100 81 100 129C102 278 168 388 306 443L306 463C152 428 40 300 25 137C9 -29 213 -49 295 47C316 3 344 -12 394 -12ZM919 123C892 114 874 108 821 93C814 17 789 -48 731 -144L745 -155L786 -136C867 -31 905 32 933 109ZM988 388L995 368L1027 389C1064 412 1067 414 1074 414C1085 414 1092 404 1092 389C1092 338 1051 145 1010 2L1017 -9C1042 -2 1065 4 1087 8C1106 134 1127 199 1173 268C1227 352 1302 414 1347 414C1358 414 1364 405 1364 390C1364 372 1361 351 1353 319L1301 107C1292 70 1288 47 1288 31C1288 6 1299 -9 1318 -9C1344 -9 1380 12 1478 85L1468 103L1442 86C1413 67 1391 56 1381 56C1374 56 1368 65 1368 76C1368 81 1369 92 1370 96L1436 372C1443 401 1447 429 1447 446C1447 469 1436 482 1416 482C1374 482 1305 444 1246 389C1208 354 1180 320 1128 247L1166 408C1170 426 1172 438 1172 449C1172 470 1164 482 1149 482C1128 482 1089 460 1016 408ZM2123 241L2123 300L1883 300L1883 538L1824 538L1824 300L1584 300L1584 241L1824 241L1824 0L1883 0L1883 241ZM2605 -3L2605 27L2553 30C2498 33 2488 44 2488 96L2488 700L2247 598L2254 548L2404 614L2404 96C2404 44 2393 33 2339 30L2283 27L2283 -3C2437 0 2437 0 2448 0C2479 0 2589 -3 2605 -3Z" stroke="rgb(0,0,0)" stroke-opacity="1" stroke-width="8" fill="rgb(0,0,0)" fill-opacity="1"></path></g></g></g></g><g><g><g><g transform="matrix(1,0,0,1,378.4333292643229,29.50000101725268)"><path transform="matrix(0.0119,0,0,-0.0119,0,0)" d="M34 388L41 368L73 389C110 412 113 414 120 414C130 414 138 404 138 391C138 384 134 361 130 347L64 107C56 76 51 49 51 30C51 6 62 -9 81 -9C107 -9 143 12 241 85L231 103L205 86C176 67 153 56 144 56C137 56 131 66 131 76C131 86 133 95 138 116L215 420C219 437 221 448 221 456C221 473 212 482 196 482C174 482 137 461 62 408ZM228 712C199 712 170 679 170 645C170 620 185 604 209 604C240 604 264 633 264 671C264 695 249 712 228 712Z" stroke="rgb(0,0,0)" stroke-opacity="1" stroke-width="8" fill="rgb(0,0,0)" fill-opacity="1"></path></g></g></g></g></g></g></g><g><g><g><g transform="matrix(1,0,0,1,509.8833618164062,26.35000101725268)"><path transform="matrix(0.017,0,0,-0.017,0,0)" d="M390 646L463 646C541 646 577 641 580 629C583 621 585 602 584 592L580 528L608 528L635 692L544 691C456 690 388 689 353 689C316 689 252 690 166 691L71 692L53 528L82 528L97 588C102 610 109 626 115 633C121 640 159 646 196 646L308 646L222 125C206 34 204 31 164 28L113 25L109 -3L166 -2C206 -1 235 0 251 0C270 0 301 -1 340 -2L384 -3L387 25L328 28C302 29 292 37 292 58C292 67 293 74 296 93Z" stroke="rgb(0,0,0)" stroke-opacity="1" stroke-width="8" fill="rgb(0,0,0)" fill-opacity="1"></path></g></g><g><g><g><g><g transform="matrix(1,0,0,1,521.2500203450521,19.31666666666674)"><path transform="matrix(0.0119,0,0,-0.0119,0,0)" d="M394 -12C554 -12 671 181 673 325C674 363 660 458 607 458C592 458 562 441 548 434L548 423C593 392 607 338 606 284C605 189 542 17 425 17C366 17 362 73 363 119C365 185 380 261 403 324L393 324C372 317 350 309 328 304C323 217 294 16 174 16C111 16 100 81 100 129C102 278 168 388 306 443L306 463C152 428 40 300 25 137C9 -29 213 -49 295 47C316 3 344 -12 394 -12ZM919 123C892 114 874 108 821 93C814 17 789 -48 731 -144L745 -155L786 -136C867 -31 905 32 933 109ZM988 388L995 368L1027 389C1064 412 1067 414 1074 414C1085 414 1092 404 1092 389C1092 338 1051 145 1010 2L1017 -9C1042 -2 1065 4 1087 8C1106 134 1127 199 1173 268C1227 352 1302 414 1347 414C1358 414 1364 405 1364 390C1364 372 1361 351 1353 319L1301 107C1292 70 1288 47 1288 31C1288 6 1299 -9 1318 -9C1344 -9 1380 12 1478 85L1468 103L1442 86C1413 67 1391 56 1381 56C1374 56 1368 65 1368 76C1368 81 1369 92 1370 96L1436 372C1443 401 1447 429 1447 446C1447 469 1436 482 1416 482C1374 482 1305 444 1246 389C1208 354 1180 320 1128 247L1166 408C1170 426 1172 438 1172 449C1172 470 1164 482 1149 482C1128 482 1089 460 1016 408ZM2123 241L2123 300L1883 300L1883 538L1824 538L1824 300L1584 300L1584 241L1824 241L1824 0L1883 0L1883 241ZM2605 -3L2605 27L2553 30C2498 33 2488 44 2488 96L2488 700L2247 598L2254 548L2404 614L2404 96C2404 44 2393 33 2339 30L2283 27L2283 -3C2437 0 2437 0 2448 0C2479 0 2589 -3 2605 -3Z" stroke="rgb(0,0,0)" stroke-opacity="1" stroke-width="8" fill="rgb(0,0,0)" fill-opacity="1"></path></g></g></g></g><g><g><g><g transform="matrix(1,0,0,1,520.7666625976562,30.81666666666674)"><path transform="matrix(0.0119,0,0,-0.0119,0,0)" d="M34 388L41 368L73 389C110 412 113 414 120 414C130 414 138 404 138 391C138 384 134 361 130 347L64 107C56 76 51 49 51 30C51 6 62 -9 81 -9C107 -9 143 12 241 85L231 103L205 86C176 67 153 56 144 56C137 56 131 66 131 76C131 86 133 95 138 116L215 420C219 437 221 448 221 456C221 473 212 482 196 482C174 482 137 461 62 408ZM228 712C199 712 170 679 170 645C170 620 185 604 209 604C240 604 264 633 264 671C264 695 249 712 228 712ZM881 241L881 300L641 300L641 538L582 538L582 300L342 300L342 241L582 241L582 0L641 0L641 241ZM1363 -3L1363 27L1311 30C1256 33 1246 44 1246 96L1246 700L1005 598L1012 548L1162 614L1162 96C1162 44 1151 33 1097 30L1041 27L1041 -3C1195 0 1195 0 1206 0C1237 0 1347 -3 1363 -3Z" stroke="rgb(0,0,0)" stroke-opacity="1" stroke-width="8" fill="rgb(0,0,0)" fill-opacity="1"></path></g></g></g></g></g></g></g><g><g><g><g transform="matrix(1,0,0,1,230.2166951497396,231.68332417805982)"><path transform="matrix(0.017,0,0,-0.017,0,0)" d="M390 646L463 646C541 646 577 641 580 629C583 621 585 602 584 592L580 528L608 528L635 692L544 691C456 690 388 689 353 689C316 689 252 690 166 691L71 692L53 528L82 528L97 588C102 610 109 626 115 633C121 640 159 646 196 646L308 646L222 125C206 34 204 31 164 28L113 25L109 -3L166 -2C206 -1 235 0 251 0C270 0 301 -1 340 -2L384 -3L387 25L328 28C302 29 292 37 292 58C292 67 293 74 296 93Z" stroke="rgb(0,0,0)" stroke-opacity="1" stroke-width="8" fill="rgb(0,0,0)" fill-opacity="1"></path></g></g><g><g><g><g><g transform="matrix(1,0,0,1,241.5833536783854,224.64999491373706)"><path transform="matrix(0.0119,0,0,-0.0119,0,0)" d="M394 -12C554 -12 671 181 673 325C674 363 660 458 607 458C592 458 562 441 548 434L548 423C593 392 607 338 606 284C605 189 542 17 425 17C366 17 362 73 363 119C365 185 380 261 403 324L393 324C372 317 350 309 328 304C323 217 294 16 174 16C111 16 100 81 100 129C102 278 168 388 306 443L306 463C152 428 40 300 25 137C9 -29 213 -49 295 47C316 3 344 -12 394 -12ZM919 123C892 114 874 108 821 93C814 17 789 -48 731 -144L745 -155L786 -136C867 -31 905 32 933 109ZM988 388L995 368L1027 389C1064 412 1067 414 1074 414C1085 414 1092 404 1092 389C1092 338 1051 145 1010 2L1017 -9C1042 -2 1065 4 1087 8C1106 134 1127 199 1173 268C1227 352 1302 414 1347 414C1358 414 1364 405 1364 390C1364 372 1361 351 1353 319L1301 107C1292 70 1288 47 1288 31C1288 6 1299 -9 1318 -9C1344 -9 1380 12 1478 85L1468 103L1442 86C1413 67 1391 56 1381 56C1374 56 1368 65 1368 76C1368 81 1369 92 1370 96L1436 372C1443 401 1447 429 1447 446C1447 469 1436 482 1416 482C1374 482 1305 444 1246 389C1208 354 1180 320 1128 247L1166 408C1170 426 1172 438 1172 449C1172 470 1164 482 1149 482C1128 482 1089 460 1016 408Z" stroke="rgb(0,0,0)" stroke-opacity="1" stroke-width="8" fill="rgb(0,0,0)" fill-opacity="1"></path></g></g></g></g><g><g><g><g transform="matrix(1,0,0,1,241.0999959309896,236.14999491373706)"><path transform="matrix(0.0119,0,0,-0.0119,0,0)" d="M34 388L41 368L73 389C110 412 113 414 120 414C130 414 138 404 138 391C138 384 134 361 130 347L64 107C56 76 51 49 51 30C51 6 62 -9 81 -9C107 -9 143 12 241 85L231 103L205 86C176 67 153 56 144 56C137 56 131 66 131 76C131 86 133 95 138 116L215 420C219 437 221 448 221 456C221 473 212 482 196 482C174 482 137 461 62 408ZM228 712C199 712 170 679 170 645C170 620 185 604 209 604C240 604 264 633 264 671C264 695 249 712 228 712ZM832 243L832 299L328 299L328 243ZM1300 -3L1300 27L1248 30C1193 33 1183 44 1183 96L1183 700L942 598L949 548L1099 614L1099 96C1099 44 1088 33 1034 30L978 27L978 -3C1132 0 1132 0 1143 0C1174 0 1284 -3 1300 -3Z" stroke="rgb(0,0,0)" stroke-opacity="1" stroke-width="8" fill="rgb(0,0,0)" fill-opacity="1"></path></g></g></g></g></g></g></g><g><g><g><g transform="matrix(1,0,0,1,375.5500284830729,235.68332417805982)"><path transform="matrix(0.017,0,0,-0.017,0,0)" d="M390 646L463 646C541 646 577 641 580 629C583 621 585 602 584 592L580 528L608 528L635 692L544 691C456 690 388 689 353 689C316 689 252 690 166 691L71 692L53 528L82 528L97 588C102 610 109 626 115 633C121 640 159 646 196 646L308 646L222 125C206 34 204 31 164 28L113 25L109 -3L166 -2C206 -1 235 0 251 0C270 0 301 -1 340 -2L384 -3L387 25L328 28C302 29 292 37 292 58C292 67 293 74 296 93Z" stroke="rgb(0,0,0)" stroke-opacity="1" stroke-width="8" fill="rgb(0,0,0)" fill-opacity="1"></path></g></g><g><g><g><g><g transform="matrix(1,0,0,1,386.91668701171875,228.64999491373706)"><path transform="matrix(0.0119,0,0,-0.0119,0,0)" d="M394 -12C554 -12 671 181 673 325C674 363 660 458 607 458C592 458 562 441 548 434L548 423C593 392 607 338 606 284C605 189 542 17 425 17C366 17 362 73 363 119C365 185 380 261 403 324L393 324C372 317 350 309 328 304C323 217 294 16 174 16C111 16 100 81 100 129C102 278 168 388 306 443L306 463C152 428 40 300 25 137C9 -29 213 -49 295 47C316 3 344 -12 394 -12ZM919 123C892 114 874 108 821 93C814 17 789 -48 731 -144L745 -155L786 -136C867 -31 905 32 933 109ZM988 388L995 368L1027 389C1064 412 1067 414 1074 414C1085 414 1092 404 1092 389C1092 338 1051 145 1010 2L1017 -9C1042 -2 1065 4 1087 8C1106 134 1127 199 1173 268C1227 352 1302 414 1347 414C1358 414 1364 405 1364 390C1364 372 1361 351 1353 319L1301 107C1292 70 1288 47 1288 31C1288 6 1299 -9 1318 -9C1344 -9 1380 12 1478 85L1468 103L1442 86C1413 67 1391 56 1381 56C1374 56 1368 65 1368 76C1368 81 1369 92 1370 96L1436 372C1443 401 1447 429 1447 446C1447 469 1436 482 1416 482C1374 482 1305 444 1246 389C1208 354 1180 320 1128 247L1166 408C1170 426 1172 438 1172 449C1172 470 1164 482 1149 482C1128 482 1089 460 1016 408Z" stroke="rgb(0,0,0)" stroke-opacity="1" stroke-width="8" fill="rgb(0,0,0)" fill-opacity="1"></path></g></g></g></g><g><g><g><g transform="matrix(1,0,0,1,386.4333292643229,240.1666575113933)"><path transform="matrix(0.0119,0,0,-0.0119,0,0)" d="M34 388L41 368L73 389C110 412 113 414 120 414C130 414 138 404 138 391C138 384 134 361 130 347L64 107C56 76 51 49 51 30C51 6 62 -9 81 -9C107 -9 143 12 241 85L231 103L205 86C176 67 153 56 144 56C137 56 131 66 131 76C131 86 133 95 138 116L215 420C219 437 221 448 221 456C221 473 212 482 196 482C174 482 137 461 62 408ZM228 712C199 712 170 679 170 645C170 620 185 604 209 604C240 604 264 633 264 671C264 695 249 712 228 712Z" stroke="rgb(0,0,0)" stroke-opacity="1" stroke-width="8" fill="rgb(0,0,0)" fill-opacity="1"></path></g></g></g></g></g></g></g><g><g><g><g transform="matrix(1,0,0,1,517.8833618164062,237.0166575113933)"><path transform="matrix(0.017,0,0,-0.017,0,0)" d="M390 646L463 646C541 646 577 641 580 629C583 621 585 602 584 592L580 528L608 528L635 692L544 691C456 690 388 689 353 689C316 689 252 690 166 691L71 692L53 528L82 528L97 588C102 610 109 626 115 633C121 640 159 646 196 646L308 646L222 125C206 34 204 31 164 28L113 25L109 -3L166 -2C206 -1 235 0 251 0C270 0 301 -1 340 -2L384 -3L387 25L328 28C302 29 292 37 292 58C292 67 293 74 296 93Z" stroke="rgb(0,0,0)" stroke-opacity="1" stroke-width="8" fill="rgb(0,0,0)" fill-opacity="1"></path></g></g><g><g><g><g><g transform="matrix(1,0,0,1,529.2500203450521,229.98332824707055)"><path transform="matrix(0.0119,0,0,-0.0119,0,0)" d="M394 -12C554 -12 671 181 673 325C674 363 660 458 607 458C592 458 562 441 548 434L548 423C593 392 607 338 606 284C605 189 542 17 425 17C366 17 362 73 363 119C365 185 380 261 403 324L393 324C372 317 350 309 328 304C323 217 294 16 174 16C111 16 100 81 100 129C102 278 168 388 306 443L306 463C152 428 40 300 25 137C9 -29 213 -49 295 47C316 3 344 -12 394 -12ZM919 123C892 114 874 108 821 93C814 17 789 -48 731 -144L745 -155L786 -136C867 -31 905 32 933 109ZM988 388L995 368L1027 389C1064 412 1067 414 1074 414C1085 414 1092 404 1092 389C1092 338 1051 145 1010 2L1017 -9C1042 -2 1065 4 1087 8C1106 134 1127 199 1173 268C1227 352 1302 414 1347 414C1358 414 1364 405 1364 390C1364 372 1361 351 1353 319L1301 107C1292 70 1288 47 1288 31C1288 6 1299 -9 1318 -9C1344 -9 1380 12 1478 85L1468 103L1442 86C1413 67 1391 56 1381 56C1374 56 1368 65 1368 76C1368 81 1369 92 1370 96L1436 372C1443 401 1447 429 1447 446C1447 469 1436 482 1416 482C1374 482 1305 444 1246 389C1208 354 1180 320 1128 247L1166 408C1170 426 1172 438 1172 449C1172 470 1164 482 1149 482C1128 482 1089 460 1016 408Z" stroke="rgb(0,0,0)" stroke-opacity="1" stroke-width="8" fill="rgb(0,0,0)" fill-opacity="1"></path></g></g></g></g><g><g><g><g transform="matrix(1,0,0,1,528.7666625976562,241.48332824707055)"><path transform="matrix(0.0119,0,0,-0.0119,0,0)" d="M34 388L41 368L73 389C110 412 113 414 120 414C130 414 138 404 138 391C138 384 134 361 130 347L64 107C56 76 51 49 51 30C51 6 62 -9 81 -9C107 -9 143 12 241 85L231 103L205 86C176 67 153 56 144 56C137 56 131 66 131 76C131 86 133 95 138 116L215 420C219 437 221 448 221 456C221 473 212 482 196 482C174 482 137 461 62 408ZM228 712C199 712 170 679 170 645C170 620 185 604 209 604C240 604 264 633 264 671C264 695 249 712 228 712ZM881 241L881 300L641 300L641 538L582 538L582 300L342 300L342 241L582 241L582 0L641 0L641 241ZM1363 -3L1363 27L1311 30C1256 33 1246 44 1246 96L1246 700L1005 598L1012 548L1162 614L1162 96C1162 44 1151 33 1097 30L1041 27L1041 -3C1195 0 1195 0 1206 0C1237 0 1347 -3 1363 -3Z" stroke="rgb(0,0,0)" stroke-opacity="1" stroke-width="8" fill="rgb(0,0,0)" fill-opacity="1"></path></g></g></g></g></g></g></g></svg>
</svg>
