<svg xmlns="http://www.w3.org/2000/svg" xmlns:xlink="http://www.w3.org/1999/xlink" x="0" y="0" width="662.8666585286459" height="355.5333251953125" style="
        width:662.8666585286459px;
        height:355.5333251953125px;
        background: transparent;
        fill: none;
">
        
        
        <svg xmlns="http://www.w3.org/2000/svg" class="role-diagram-draw-area"><g class="shapes-region" style="stroke: black; fill: none;"><g class="composite-shape"><path class="real" d=" M429.89,92.26 L544.34,92.26 L544.34,239.49 L429.89,239.49 Z" style="stroke-width: 2px; stroke: rgb(126, 211, 33); fill: none; fill-opacity: 1; stroke-dasharray: 2.25px, 3.685px; stroke-opacity: 1;"/></g><g class="composite-shape"><path class="real" d=" M199.39,92.02 L380.09,92.02 L380.09,239.25 L199.39,239.25 Z" style="stroke-width: 2px; stroke: rgb(208, 2, 27); fill: rgb(155, 155, 155); fill-opacity: 1; stroke-opacity: 1;"/></g><g class="composite-shape"><path class="real" d=" M334.76,92.35 L470.36,92.35 L470.36,239.58 L334.76,239.58 Z" style="stroke-width: 3px; stroke: rgb(0, 0, 0); fill: none; fill-opacity: 1;"/></g><g class="composite-shape"><path class="real" d=" M470.36,92.35 L605.97,92.35 L605.97,239.58 L470.36,239.58 Z" style="stroke-width: 3px; stroke: rgb(0, 0, 0); fill: none; fill-opacity: 1;"/></g><g class="composite-shape"><path class="real" d=" M199.15,92.35 L334.76,92.35 L334.76,239.58 L199.15,239.58 Z" style="stroke-width: 3px; stroke: rgb(0, 0, 0); fill: none; fill-opacity: 1;"/></g><g class="composite-shape"><path class="real" d=" M539.9,239.67 C539.9,237.36 541.89,235.48 544.34,235.48 C546.8,235.48 548.79,237.36 548.79,239.67 C548.79,241.98 546.8,243.86 544.34,243.86 C541.89,243.86 539.9,241.98 539.9,239.67 Z" style="stroke-width: 1px; stroke: rgb(0, 0, 0); fill: rgb(74, 144, 226); fill-opacity: 1;"/></g><g class="composite-shape"><path class="real" d=" M539.9,93.97 C539.9,91.66 541.89,89.78 544.34,89.78 C546.8,89.78 548.79,91.66 548.79,93.97 C548.79,96.29 546.8,98.16 544.34,98.16 C541.89,98.16 539.9,96.29 539.9,93.97 Z" style="stroke-width: 1px; stroke: rgb(0, 0, 0); fill: rgb(74, 144, 226); fill-opacity: 1;"/></g><g class="arrow-line"><path class="connection real" stroke-dasharray="" d="  M69.89,89.99 L69.89,236.83" style="stroke: rgb(0, 0, 0); stroke-width: 3px; fill: none; fill-opacity: 1;"/><g stroke="#000" transform="matrix(-1.8369701987210297e-16,-1,1,-1.8369701987210297e-16,69.89199166866564,240.8299739738652)" style="stroke: rgb(0, 0, 0); stroke-width: 3px;"><path d=" M17.49,-5.26 Q7.94,-0.72 0,0 Q7.94,0.72 17.49,5.26"/></g><g stroke="#000" transform="matrix(6.123233995736766e-17,1,-1,6.123233995736766e-17,69.89199166866567,85.99273244309975)" style="stroke: rgb(0, 0, 0); stroke-width: 3px;"><path d=" M17.49,-5.26 Q7.94,-0.72 0,0 Q7.94,0.72 17.49,5.26"/></g></g><g class="arrow-line"><path class="connection real" stroke-dasharray="" d="  M386.72,307.24 L464.45,308.11" style="stroke: rgb(0, 0, 0); stroke-width: 3px; fill: none; fill-opacity: 1;"/><g stroke="#000" transform="matrix(-0.9999376150010865,-0.01116987492942226,0.01116987492942226,-0.9999376150010865,468.4491145039778,308.1504558971761)" style="stroke: rgb(0, 0, 0); stroke-width: 3px;"><path d=" M17.49,-5.26 Q7.94,-0.72 0,0 Q7.94,0.72 17.49,5.26"/></g><g stroke="#000" transform="matrix(0.9999376150010865,0.011169874929422188,-0.011169874929422188,0.9999376150010865,382.72222900390625,307.19443766276027)" style="stroke: rgb(0, 0, 0); stroke-width: 3px;"><path d=" M17.49,-5.26 Q7.94,-0.72 0,0 Q7.94,0.72 17.49,5.26"/></g></g><g class="composite-shape"><path class="real" d=" M423.38,163.63 C423.38,159.93 426.15,156.92 429.56,156.92 C432.97,156.92 435.74,159.93 435.74,163.63 C435.74,167.34 432.97,170.34 429.56,170.34 C426.15,170.34 423.38,167.34 423.38,163.63 Z" style="stroke-width: 1px; stroke: rgb(0, 0, 0); fill: rgb(0, 0, 0); fill-opacity: 1;"/></g><g class="composite-shape"><path class="real" d=" M538.16,165.96 C538.16,162.26 540.93,159.25 544.34,159.25 C547.76,159.25 550.52,162.26 550.52,165.96 C550.52,169.67 547.76,172.67 544.34,172.67 C540.93,172.67 538.16,169.67 538.16,165.96 Z" style="stroke-width: 1px; stroke: rgb(0, 0, 0); fill: rgb(0, 0, 0); fill-opacity: 1;"/></g><g class="composite-shape"><path class="real" d=" M478.36,167.38 L462.57,175.54 L462.57,159.23 Z" style="stroke-width: 1px; stroke: rgb(0, 0, 0); fill: rgb(0, 0, 0); fill-opacity: 1;"/></g><g class="composite-shape"><path class="real" d=" M429.52,230.29 L437.03,247.43 L422.01,247.43 Z" style="stroke-width: 1px; stroke: rgb(0, 0, 0); fill: rgb(0, 0, 0); fill-opacity: 1;"/></g><g class="composite-shape"><path class="real" d=" M429.89,83.69 L437.4,100.83 L422.38,100.83 Z" style="stroke-width: 1px; stroke: rgb(0, 0, 0); fill: rgb(0, 0, 0); fill-opacity: 1;"/></g><g class="composite-shape"><path class="real" d=" M425.08,238.86 C425.08,236.55 427.07,234.67 429.52,234.67 C431.98,234.67 433.97,236.55 433.97,238.86 C433.97,241.17 431.98,243.05 429.52,243.05 C427.07,243.05 425.08,241.17 425.08,238.86 Z" style="stroke-width: 1px; stroke: rgb(0, 0, 0); fill: rgb(74, 144, 226); fill-opacity: 1;"/></g><g class="composite-shape"><path class="real" d=" M425.45,92.26 C425.45,89.95 427.44,88.07 429.89,88.07 C432.35,88.07 434.34,89.95 434.34,92.26 C434.34,94.57 432.35,96.45 429.89,96.45 C427.44,96.45 425.45,94.57 425.45,92.26 Z" style="stroke-width: 1px; stroke: rgb(0, 0, 0); fill: rgb(74, 144, 226); fill-opacity: 1;"/></g><g class="composite-shape"><path class="real" d=" M374.05,164.3 C374.05,160.59 376.81,157.59 380.23,157.59 C383.64,157.59 386.41,160.59 386.41,164.3 C386.41,168 383.64,171.01 380.23,171.01 C376.81,171.01 374.05,168 374.05,164.3 Z" style="stroke-width: 1px; stroke: rgb(0, 0, 0); fill: rgb(0, 0, 0); fill-opacity: 1;"/></g><g class="arrow-line"><path class="connection real" stroke-dasharray="" d="  M388.06,34.24 L465.78,35.11" style="stroke: rgb(0, 0, 0); stroke-width: 3px; fill: none; fill-opacity: 1;"/><g stroke="#000" transform="matrix(-0.9999376150010865,-0.01116987492942226,0.01116987492942226,-0.9999376150010865,469.7824478373112,35.150455897175625)" style="stroke: rgb(0, 0, 0); stroke-width: 3px;"><path d=" M17.49,-5.26 Q7.94,-0.72 0,0 Q7.94,0.72 17.49,5.26"/></g><g stroke="#000" transform="matrix(0.9999376150010865,0.011169874929422188,-0.011169874929422188,0.9999376150010865,384.05556233723956,34.19443766275981)" style="stroke: rgb(0, 0, 0); stroke-width: 3px;"><path d=" M17.49,-5.26 Q7.94,-0.72 0,0 Q7.94,0.72 17.49,5.26"/></g></g><g/></g><g/><g/><g/></svg>
        <svg xmlns="http://www.w3.org/2000/svg" xmlns:xlink="http://www.w3.org/1999/xlink" width="660" height="352.66666666666697" style="width:660px;height:352.66666666666697px;font-family:Asana-Math, Asana;background:transparent;"><g><g><g><g transform="matrix(1,0,0,1,139.91666666666669,243.10000610351562)"><path transform="matrix(0.017,0,0,-0.017,0,0)" d="M125 390L69 107C68 99 56 61 56 31C56 6 67 -9 86 -9C121 -9 156 11 234 74L265 99L255 117L210 86C181 66 161 56 150 56C141 56 136 64 136 76C136 102 150 183 179 328L192 390L299 390L310 440C272 436 238 434 200 434C216 528 227 577 245 631L234 646C214 634 187 622 156 610L131 440C87 419 61 408 43 403L41 390Z" stroke="rgb(0,0,0)" stroke-opacity="1" stroke-width="8" fill="rgb(0,0,0)" fill-opacity="1"></path></g></g><g><g><g><g><g transform="matrix(1,0,0,1,146.5666707356771,236.23334350585938)"><path transform="matrix(0.0119,0,0,-0.0119,0,0)" d="M24 388L31 368L63 389C100 412 103 414 110 414C121 414 128 404 128 389C128 338 87 145 46 2L53 -9C78 -2 101 4 123 8C142 134 163 199 209 268C263 352 338 414 383 414C394 414 400 405 400 390C400 372 397 351 389 319L337 107C328 70 324 47 324 31C324 6 335 -9 354 -9C380 -9 416 12 514 85L504 103L478 86C449 67 427 56 417 56C410 56 404 65 404 76C404 81 405 92 406 96L472 372C479 401 483 429 483 446C483 469 472 482 452 482C410 482 341 444 282 389C244 354 216 320 164 247L202 408C206 426 208 438 208 449C208 470 200 482 185 482C164 482 125 460 52 408Z" stroke="rgb(0,0,0)" stroke-opacity="1" stroke-width="8" fill="rgb(0,0,0)" fill-opacity="1"></path></g></g></g></g></g></g></g><g><g><g><g transform="matrix(1,0,0,1,138.70001220703125,95.70000203450536)"><path transform="matrix(0.017,0,0,-0.017,0,0)" d="M125 390L69 107C68 99 56 61 56 31C56 6 67 -9 86 -9C121 -9 156 11 234 74L265 99L255 117L210 86C181 66 161 56 150 56C141 56 136 64 136 76C136 102 150 183 179 328L192 390L299 390L310 440C272 436 238 434 200 434C216 528 227 577 245 631L234 646C214 634 187 622 156 610L131 440C87 419 61 408 43 403L41 390Z" stroke="rgb(0,0,0)" stroke-opacity="1" stroke-width="8" fill="rgb(0,0,0)" fill-opacity="1"></path></g></g><g><g><g><g><g transform="matrix(1,0,0,1,145.3499959309896,88.81666666666698)"><path transform="matrix(0.0119,0,0,-0.0119,0,0)" d="M24 388L31 368L63 389C100 412 103 414 110 414C121 414 128 404 128 389C128 338 87 145 46 2L53 -9C78 -2 101 4 123 8C142 134 163 199 209 268C263 352 338 414 383 414C394 414 400 405 400 390C400 372 397 351 389 319L337 107C328 70 324 47 324 31C324 6 335 -9 354 -9C380 -9 416 12 514 85L504 103L478 86C449 67 427 56 417 56C410 56 404 65 404 76C404 81 405 92 406 96L472 372C479 401 483 429 483 446C483 469 472 482 452 482C410 482 341 444 282 389C244 354 216 320 164 247L202 408C206 426 208 438 208 449C208 470 200 482 185 482C164 482 125 460 52 408ZM1159 241L1159 300L919 300L919 538L860 538L860 300L620 300L620 241L860 241L860 0L919 0L919 241ZM1641 -3L1641 27L1589 30C1534 33 1524 44 1524 96L1524 700L1283 598L1290 548L1440 614L1440 96C1440 44 1429 33 1375 30L1319 27L1319 -3C1473 0 1473 0 1484 0C1515 0 1625 -3 1641 -3Z" stroke="rgb(0,0,0)" stroke-opacity="1" stroke-width="8" fill="rgb(0,0,0)" fill-opacity="1"></path></g></g></g></g></g></g></g><g><g><g><g transform="matrix(1,0,0,1,28.766672770182293,169.81666666666698)"><path transform="matrix(0.020399999999999998,0,0,-0.020399999999999998,0,0)" d="M-33 6L-28 -4C79 0 185 0 292 0C393 0 494 -1 594 -4L602 6C560 116 534 238 504 354C475 466 442 580 424 697L399 697C336 587 53 127 -33 6ZM482 37L50 37C148 215 249 389 356 564L363 564C408 391 449 215 482 37ZM813 390L757 107C756 99 744 61 744 31C744 6 755 -9 774 -9C809 -9 844 11 922 74L953 99L943 117L898 86C869 66 849 56 838 56C829 56 824 64 824 76C824 102 838 183 867 328L880 390L987 390L998 440C960 436 926 434 888 434C904 528 915 577 933 631L922 646C902 634 875 622 844 610L819 440C775 419 749 408 731 403L729 390Z" stroke="rgb(0,0,0)" stroke-opacity="1" stroke-width="8" fill="rgb(0,0,0)" fill-opacity="1"></path></g></g></g></g><g><g><g><g transform="matrix(1,0,0,1,412.98333740234375,337.48332722981786)"><path transform="matrix(0.017,0,0,-0.017,0,0)" d="M310 96L239 624C237 646 241 661 281 662L323 664L323 692L282 691C245 690 217 689 199 689C181 689 153 690 116 691L75 692L75 664L100 662C144 659 152 651 159 614L247 -8L296 -8L674 611C699 651 707 658 736 662L754 664L754 692L724 691C697 690 674 689 658 689C648 689 621 690 580 691L534 692L534 664L560 662C598 659 617 649 617 630C617 619 613 608 601 588Z" stroke="rgb(0,0,0)" stroke-opacity="1" stroke-width="8" fill="rgb(0,0,0)" fill-opacity="1"></path></g></g><g><g><g><g><g transform="matrix(1,0,0,1,426.23333740234375,330.4666605631513)"><path transform="matrix(0.0119,0,0,-0.0119,0,0)" d="M24 388L31 368L63 389C100 412 103 414 110 414C121 414 128 404 128 389C128 338 87 145 46 2L53 -9C78 -2 101 4 123 8C142 134 163 199 209 268C263 352 338 414 383 414C394 414 400 405 400 390C400 372 397 351 389 319L337 107C328 70 324 47 324 31C324 6 335 -9 354 -9C380 -9 416 12 514 85L504 103L478 86C449 67 427 56 417 56C410 56 404 65 404 76C404 81 405 92 406 96L472 372C479 401 483 429 483 446C483 469 472 482 452 482C410 482 341 444 282 389C244 354 216 320 164 247L202 408C206 426 208 438 208 449C208 470 200 482 185 482C164 482 125 460 52 408Z" stroke="rgb(0,0,0)" stroke-opacity="1" stroke-width="8" fill="rgb(0,0,0)" fill-opacity="1"></path></g></g></g></g><g><g><g><g transform="matrix(1,0,0,1,425.75002034505206,341.9666605631513)"><path transform="matrix(0.0119,0,0,-0.0119,0,0)" d="M34 388L41 368L73 389C110 412 113 414 120 414C130 414 138 404 138 391C138 384 134 361 130 347L64 107C56 76 51 49 51 30C51 6 62 -9 81 -9C107 -9 143 12 241 85L231 103L205 86C176 67 153 56 144 56C137 56 131 66 131 76C131 86 133 95 138 116L215 420C219 437 221 448 221 456C221 473 212 482 196 482C174 482 137 461 62 408ZM228 712C199 712 170 679 170 645C170 620 185 604 209 604C240 604 264 633 264 671C264 695 249 712 228 712Z" stroke="rgb(0,0,0)" stroke-opacity="1" stroke-width="8" fill="rgb(0,0,0)" fill-opacity="1"></path></g></g></g></g></g></g></g><g><g><g><g><g><g><g transform="matrix(1,0,0,1,403.09999593098956,196.0166727701826)"><path transform="matrix(0.017,0,0,-0.017,0,0)" d="M390 646L463 646C541 646 577 641 580 629C583 621 585 602 584 592L580 528L608 528L635 692L544 691C456 690 388 689 353 689C316 689 252 690 166 691L71 692L53 528L82 528L97 588C102 610 109 626 115 633C121 640 159 646 196 646L308 646L222 125C206 34 204 31 164 28L113 25L109 -3L166 -2C206 -1 235 0 251 0C270 0 301 -1 340 -2L384 -3L387 25L328 28C302 29 292 37 292 58C292 67 293 74 296 93Z" stroke="rgb(0,0,0)" stroke-opacity="1" stroke-width="8" fill="rgb(0,0,0)" fill-opacity="1"></path></g></g></g></g><svg x="403.09999593098956" overflow="visible" y="171.85000610351562" height="9" width="10.366668701171875"><path d="M0.00,8.06 C 0.65 5.46, 2.59 5.46, 5.18 7.41  S 9.72 6.76, 10.37 5.46" style="fill:none;fill-opacity:1;stroke-width:1px;stroke:rgb(0,0,0);stroke-opacity:1;"></path></svg></g><g><g><g><g><g transform="matrix(1,0,0,1,414.46669514973956,177.88332722981787)"><path transform="matrix(0.0119,0,0,-0.0119,0,0)" d="M394 -12C554 -12 671 181 673 325C674 363 660 458 607 458C592 458 562 441 548 434L548 423C593 392 607 338 606 284C605 189 542 17 425 17C366 17 362 73 363 119C365 185 380 261 403 324L393 324C372 317 350 309 328 304C323 217 294 16 174 16C111 16 100 81 100 129C102 278 168 388 306 443L306 463C152 428 40 300 25 137C9 -29 213 -49 295 47C316 3 344 -12 394 -12Z" stroke="rgb(0,0,0)" stroke-opacity="1" stroke-width="8" fill="rgb(0,0,0)" fill-opacity="1"></path></g></g></g></g><g><g><g><g transform="matrix(1,0,0,1,413.98333740234375,201.10000203450537)"><path transform="matrix(0.0119,0,0,-0.0119,0,0)" d="M34 388L41 368L73 389C110 412 113 414 120 414C130 414 138 404 138 391C138 384 134 361 130 347L64 107C56 76 51 49 51 30C51 6 62 -9 81 -9C107 -9 143 12 241 85L231 103L205 86C176 67 153 56 144 56C137 56 131 66 131 76C131 86 133 95 138 116L215 420C219 437 221 448 221 456C221 473 212 482 196 482C174 482 137 461 62 408ZM228 712C199 712 170 679 170 645C170 620 185 604 209 604C240 604 264 633 264 671C264 695 249 712 228 712Z" stroke="rgb(0,0,0)" stroke-opacity="1" stroke-width="8" fill="rgb(0,0,0)" fill-opacity="1"></path></g></g></g></g></g></g></g><g><g><g><g><g><g><g transform="matrix(1,0,0,1,513.933329264323,195.38333129882812)"><path transform="matrix(0.017,0,0,-0.017,0,0)" d="M390 646L463 646C541 646 577 641 580 629C583 621 585 602 584 592L580 528L608 528L635 692L544 691C456 690 388 689 353 689C316 689 252 690 166 691L71 692L53 528L82 528L97 588C102 610 109 626 115 633C121 640 159 646 196 646L308 646L222 125C206 34 204 31 164 28L113 25L109 -3L166 -2C206 -1 235 0 251 0C270 0 301 -1 340 -2L384 -3L387 25L328 28C302 29 292 37 292 58C292 67 293 74 296 93Z" stroke="rgb(0,0,0)" stroke-opacity="1" stroke-width="8" fill="rgb(0,0,0)" fill-opacity="1"></path></g></g></g></g><svg x="513.933329264323" overflow="visible" y="171.2166646321616" height="9" width="10.366668701171875"><path d="M0.00,8.06 C 0.65 5.46, 2.59 5.46, 5.18 7.41  S 9.72 6.76, 10.37 5.46" style="fill:none;fill-opacity:1;stroke-width:1px;stroke:rgb(0,0,0);stroke-opacity:1;"></path></svg></g><g><g><g><g><g transform="matrix(1,0,0,1,525.300028483073,177.25000610351563)"><path transform="matrix(0.0119,0,0,-0.0119,0,0)" d="M394 -12C554 -12 671 181 673 325C674 363 660 458 607 458C592 458 562 441 548 434L548 423C593 392 607 338 606 284C605 189 542 17 425 17C366 17 362 73 363 119C365 185 380 261 403 324L393 324C372 317 350 309 328 304C323 217 294 16 174 16C111 16 100 81 100 129C102 278 168 388 306 443L306 463C152 428 40 300 25 137C9 -29 213 -49 295 47C316 3 344 -12 394 -12Z" stroke="rgb(0,0,0)" stroke-opacity="1" stroke-width="8" fill="rgb(0,0,0)" fill-opacity="1"></path></g></g></g></g><g><g><g><g transform="matrix(1,0,0,1,524.8166707356771,200.4499979654951)"><path transform="matrix(0.0119,0,0,-0.0119,0,0)" d="M34 388L41 368L73 389C110 412 113 414 120 414C130 414 138 404 138 391C138 384 134 361 130 347L64 107C56 76 51 49 51 30C51 6 62 -9 81 -9C107 -9 143 12 241 85L231 103L205 86C176 67 153 56 144 56C137 56 131 66 131 76C131 86 133 95 138 116L215 420C219 437 221 448 221 456C221 473 212 482 196 482C174 482 137 461 62 408ZM228 712C199 712 170 679 170 645C170 620 185 604 209 604C240 604 264 633 264 671C264 695 249 712 228 712ZM881 241L881 300L641 300L641 538L582 538L582 300L342 300L342 241L582 241L582 0L641 0L641 241ZM1363 -3L1363 27L1311 30C1256 33 1246 44 1246 96L1246 700L1005 598L1012 548L1162 614L1162 96C1162 44 1151 33 1097 30L1041 27L1041 -3C1195 0 1195 0 1206 0C1237 0 1347 -3 1363 -3Z" stroke="rgb(0,0,0)" stroke-opacity="1" stroke-width="8" fill="rgb(0,0,0)" fill-opacity="1"></path></g></g></g></g></g></g></g><g><g><g><g transform="matrix(1,0,0,1,409.46669514973956,68.36666361490916)"><path transform="matrix(0.017,0,0,-0.017,0,0)" d="M390 646L463 646C541 646 577 641 580 629C583 621 585 602 584 592L580 528L608 528L635 692L544 691C456 690 388 689 353 689C316 689 252 690 166 691L71 692L53 528L82 528L97 588C102 610 109 626 115 633C121 640 159 646 196 646L308 646L222 125C206 34 204 31 164 28L113 25L109 -3L166 -2C206 -1 235 0 251 0C270 0 301 -1 340 -2L384 -3L387 25L328 28C302 29 292 37 292 58C292 67 293 74 296 93Z" stroke="rgb(0,0,0)" stroke-opacity="1" stroke-width="8" fill="rgb(0,0,0)" fill-opacity="1"></path></g></g><g><g><g><g><g transform="matrix(1,0,0,1,420.8333536783854,61.333334350585936)"><path transform="matrix(0.0119,0,0,-0.0119,0,0)" d="M394 -12C554 -12 671 181 673 325C674 363 660 458 607 458C592 458 562 441 548 434L548 423C593 392 607 338 606 284C605 189 542 17 425 17C366 17 362 73 363 119C365 185 380 261 403 324L393 324C372 317 350 309 328 304C323 217 294 16 174 16C111 16 100 81 100 129C102 278 168 388 306 443L306 463C152 428 40 300 25 137C9 -29 213 -49 295 47C316 3 344 -12 394 -12ZM919 123C892 114 874 108 821 93C814 17 789 -48 731 -144L745 -155L786 -136C867 -31 905 32 933 109ZM988 388L995 368L1027 389C1064 412 1067 414 1074 414C1085 414 1092 404 1092 389C1092 338 1051 145 1010 2L1017 -9C1042 -2 1065 4 1087 8C1106 134 1127 199 1173 268C1227 352 1302 414 1347 414C1358 414 1364 405 1364 390C1364 372 1361 351 1353 319L1301 107C1292 70 1288 47 1288 31C1288 6 1299 -9 1318 -9C1344 -9 1380 12 1478 85L1468 103L1442 86C1413 67 1391 56 1381 56C1374 56 1368 65 1368 76C1368 81 1369 92 1370 96L1436 372C1443 401 1447 429 1447 446C1447 469 1436 482 1416 482C1374 482 1305 444 1246 389C1208 354 1180 320 1128 247L1166 408C1170 426 1172 438 1172 449C1172 470 1164 482 1149 482C1128 482 1089 460 1016 408ZM2123 241L2123 300L1883 300L1883 538L1824 538L1824 300L1584 300L1584 241L1824 241L1824 0L1883 0L1883 241ZM2605 -3L2605 27L2553 30C2498 33 2488 44 2488 96L2488 700L2247 598L2254 548L2404 614L2404 96C2404 44 2393 33 2339 30L2283 27L2283 -3C2437 0 2437 0 2448 0C2479 0 2589 -3 2605 -3Z" stroke="rgb(0,0,0)" stroke-opacity="1" stroke-width="8" fill="rgb(0,0,0)" fill-opacity="1"></path></g></g></g></g><g><g><g><g transform="matrix(1,0,0,1,420.34999593098956,72.8499969482422)"><path transform="matrix(0.0119,0,0,-0.0119,0,0)" d="M34 388L41 368L73 389C110 412 113 414 120 414C130 414 138 404 138 391C138 384 134 361 130 347L64 107C56 76 51 49 51 30C51 6 62 -9 81 -9C107 -9 143 12 241 85L231 103L205 86C176 67 153 56 144 56C137 56 131 66 131 76C131 86 133 95 138 116L215 420C219 437 221 448 221 456C221 473 212 482 196 482C174 482 137 461 62 408ZM228 712C199 712 170 679 170 645C170 620 185 604 209 604C240 604 264 633 264 671C264 695 249 712 228 712Z" stroke="rgb(0,0,0)" stroke-opacity="1" stroke-width="8" fill="rgb(0,0,0)" fill-opacity="1"></path></g></g></g></g></g></g></g><g><g><g><g transform="matrix(1,0,0,1,522.800028483073,67.36666361490916)"><path transform="matrix(0.017,0,0,-0.017,0,0)" d="M390 646L463 646C541 646 577 641 580 629C583 621 585 602 584 592L580 528L608 528L635 692L544 691C456 690 388 689 353 689C316 689 252 690 166 691L71 692L53 528L82 528L97 588C102 610 109 626 115 633C121 640 159 646 196 646L308 646L222 125C206 34 204 31 164 28L113 25L109 -3L166 -2C206 -1 235 0 251 0C270 0 301 -1 340 -2L384 -3L387 25L328 28C302 29 292 37 292 58C292 67 293 74 296 93Z" stroke="rgb(0,0,0)" stroke-opacity="1" stroke-width="8" fill="rgb(0,0,0)" fill-opacity="1"></path></g></g><g><g><g><g><g transform="matrix(1,0,0,1,534.1666870117188,60.333334350585936)"><path transform="matrix(0.0119,0,0,-0.0119,0,0)" d="M394 -12C554 -12 671 181 673 325C674 363 660 458 607 458C592 458 562 441 548 434L548 423C593 392 607 338 606 284C605 189 542 17 425 17C366 17 362 73 363 119C365 185 380 261 403 324L393 324C372 317 350 309 328 304C323 217 294 16 174 16C111 16 100 81 100 129C102 278 168 388 306 443L306 463C152 428 40 300 25 137C9 -29 213 -49 295 47C316 3 344 -12 394 -12ZM919 123C892 114 874 108 821 93C814 17 789 -48 731 -144L745 -155L786 -136C867 -31 905 32 933 109ZM988 388L995 368L1027 389C1064 412 1067 414 1074 414C1085 414 1092 404 1092 389C1092 338 1051 145 1010 2L1017 -9C1042 -2 1065 4 1087 8C1106 134 1127 199 1173 268C1227 352 1302 414 1347 414C1358 414 1364 405 1364 390C1364 372 1361 351 1353 319L1301 107C1292 70 1288 47 1288 31C1288 6 1299 -9 1318 -9C1344 -9 1380 12 1478 85L1468 103L1442 86C1413 67 1391 56 1381 56C1374 56 1368 65 1368 76C1368 81 1369 92 1370 96L1436 372C1443 401 1447 429 1447 446C1447 469 1436 482 1416 482C1374 482 1305 444 1246 389C1208 354 1180 320 1128 247L1166 408C1170 426 1172 438 1172 449C1172 470 1164 482 1149 482C1128 482 1089 460 1016 408ZM2123 241L2123 300L1883 300L1883 538L1824 538L1824 300L1584 300L1584 241L1824 241L1824 0L1883 0L1883 241ZM2605 -3L2605 27L2553 30C2498 33 2488 44 2488 96L2488 700L2247 598L2254 548L2404 614L2404 96C2404 44 2393 33 2339 30L2283 27L2283 -3C2437 0 2437 0 2448 0C2479 0 2589 -3 2605 -3Z" stroke="rgb(0,0,0)" stroke-opacity="1" stroke-width="8" fill="rgb(0,0,0)" fill-opacity="1"></path></g></g></g></g><g><g><g><g transform="matrix(1,0,0,1,533.683329264323,71.83333435058594)"><path transform="matrix(0.0119,0,0,-0.0119,0,0)" d="M34 388L41 368L73 389C110 412 113 414 120 414C130 414 138 404 138 391C138 384 134 361 130 347L64 107C56 76 51 49 51 30C51 6 62 -9 81 -9C107 -9 143 12 241 85L231 103L205 86C176 67 153 56 144 56C137 56 131 66 131 76C131 86 133 95 138 116L215 420C219 437 221 448 221 456C221 473 212 482 196 482C174 482 137 461 62 408ZM228 712C199 712 170 679 170 645C170 620 185 604 209 604C240 604 264 633 264 671C264 695 249 712 228 712ZM881 241L881 300L641 300L641 538L582 538L582 300L342 300L342 241L582 241L582 0L641 0L641 241ZM1363 -3L1363 27L1311 30C1256 33 1246 44 1246 96L1246 700L1005 598L1012 548L1162 614L1162 96C1162 44 1151 33 1097 30L1041 27L1041 -3C1195 0 1195 0 1206 0C1237 0 1347 -3 1363 -3Z" stroke="rgb(0,0,0)" stroke-opacity="1" stroke-width="8" fill="rgb(0,0,0)" fill-opacity="1"></path></g></g></g></g></g></g></g><g><g><g><g transform="matrix(1,0,0,1,412.46669514973956,274.3666687011719)"><path transform="matrix(0.017,0,0,-0.017,0,0)" d="M390 646L463 646C541 646 577 641 580 629C583 621 585 602 584 592L580 528L608 528L635 692L544 691C456 690 388 689 353 689C316 689 252 690 166 691L71 692L53 528L82 528L97 588C102 610 109 626 115 633C121 640 159 646 196 646L308 646L222 125C206 34 204 31 164 28L113 25L109 -3L166 -2C206 -1 235 0 251 0C270 0 301 -1 340 -2L384 -3L387 25L328 28C302 29 292 37 292 58C292 67 293 74 296 93Z" stroke="rgb(0,0,0)" stroke-opacity="1" stroke-width="8" fill="rgb(0,0,0)" fill-opacity="1"></path></g></g><g><g><g><g><g transform="matrix(1,0,0,1,423.8333536783854,267.3333394368491)"><path transform="matrix(0.0119,0,0,-0.0119,0,0)" d="M394 -12C554 -12 671 181 673 325C674 363 660 458 607 458C592 458 562 441 548 434L548 423C593 392 607 338 606 284C605 189 542 17 425 17C366 17 362 73 363 119C365 185 380 261 403 324L393 324C372 317 350 309 328 304C323 217 294 16 174 16C111 16 100 81 100 129C102 278 168 388 306 443L306 463C152 428 40 300 25 137C9 -29 213 -49 295 47C316 3 344 -12 394 -12ZM919 123C892 114 874 108 821 93C814 17 789 -48 731 -144L745 -155L786 -136C867 -31 905 32 933 109ZM988 388L995 368L1027 389C1064 412 1067 414 1074 414C1085 414 1092 404 1092 389C1092 338 1051 145 1010 2L1017 -9C1042 -2 1065 4 1087 8C1106 134 1127 199 1173 268C1227 352 1302 414 1347 414C1358 414 1364 405 1364 390C1364 372 1361 351 1353 319L1301 107C1292 70 1288 47 1288 31C1288 6 1299 -9 1318 -9C1344 -9 1380 12 1478 85L1468 103L1442 86C1413 67 1391 56 1381 56C1374 56 1368 65 1368 76C1368 81 1369 92 1370 96L1436 372C1443 401 1447 429 1447 446C1447 469 1436 482 1416 482C1374 482 1305 444 1246 389C1208 354 1180 320 1128 247L1166 408C1170 426 1172 438 1172 449C1172 470 1164 482 1149 482C1128 482 1089 460 1016 408Z" stroke="rgb(0,0,0)" stroke-opacity="1" stroke-width="8" fill="rgb(0,0,0)" fill-opacity="1"></path></g></g></g></g><g><g><g><g transform="matrix(1,0,0,1,423.34999593098956,278.85000203450534)"><path transform="matrix(0.0119,0,0,-0.0119,0,0)" d="M34 388L41 368L73 389C110 412 113 414 120 414C130 414 138 404 138 391C138 384 134 361 130 347L64 107C56 76 51 49 51 30C51 6 62 -9 81 -9C107 -9 143 12 241 85L231 103L205 86C176 67 153 56 144 56C137 56 131 66 131 76C131 86 133 95 138 116L215 420C219 437 221 448 221 456C221 473 212 482 196 482C174 482 137 461 62 408ZM228 712C199 712 170 679 170 645C170 620 185 604 209 604C240 604 264 633 264 671C264 695 249 712 228 712Z" stroke="rgb(0,0,0)" stroke-opacity="1" stroke-width="8" fill="rgb(0,0,0)" fill-opacity="1"></path></g></g></g></g></g></g></g><g><g><g><g transform="matrix(1,0,0,1,530.800028483073,276.3666687011719)"><path transform="matrix(0.017,0,0,-0.017,0,0)" d="M390 646L463 646C541 646 577 641 580 629C583 621 585 602 584 592L580 528L608 528L635 692L544 691C456 690 388 689 353 689C316 689 252 690 166 691L71 692L53 528L82 528L97 588C102 610 109 626 115 633C121 640 159 646 196 646L308 646L222 125C206 34 204 31 164 28L113 25L109 -3L166 -2C206 -1 235 0 251 0C270 0 301 -1 340 -2L384 -3L387 25L328 28C302 29 292 37 292 58C292 67 293 74 296 93Z" stroke="rgb(0,0,0)" stroke-opacity="1" stroke-width="8" fill="rgb(0,0,0)" fill-opacity="1"></path></g></g><g><g><g><g><g transform="matrix(1,0,0,1,542.1666870117188,269.3333394368491)"><path transform="matrix(0.0119,0,0,-0.0119,0,0)" d="M394 -12C554 -12 671 181 673 325C674 363 660 458 607 458C592 458 562 441 548 434L548 423C593 392 607 338 606 284C605 189 542 17 425 17C366 17 362 73 363 119C365 185 380 261 403 324L393 324C372 317 350 309 328 304C323 217 294 16 174 16C111 16 100 81 100 129C102 278 168 388 306 443L306 463C152 428 40 300 25 137C9 -29 213 -49 295 47C316 3 344 -12 394 -12ZM919 123C892 114 874 108 821 93C814 17 789 -48 731 -144L745 -155L786 -136C867 -31 905 32 933 109ZM988 388L995 368L1027 389C1064 412 1067 414 1074 414C1085 414 1092 404 1092 389C1092 338 1051 145 1010 2L1017 -9C1042 -2 1065 4 1087 8C1106 134 1127 199 1173 268C1227 352 1302 414 1347 414C1358 414 1364 405 1364 390C1364 372 1361 351 1353 319L1301 107C1292 70 1288 47 1288 31C1288 6 1299 -9 1318 -9C1344 -9 1380 12 1478 85L1468 103L1442 86C1413 67 1391 56 1381 56C1374 56 1368 65 1368 76C1368 81 1369 92 1370 96L1436 372C1443 401 1447 429 1447 446C1447 469 1436 482 1416 482C1374 482 1305 444 1246 389C1208 354 1180 320 1128 247L1166 408C1170 426 1172 438 1172 449C1172 470 1164 482 1149 482C1128 482 1089 460 1016 408Z" stroke="rgb(0,0,0)" stroke-opacity="1" stroke-width="8" fill="rgb(0,0,0)" fill-opacity="1"></path></g></g></g></g><g><g><g><g transform="matrix(1,0,0,1,541.683329264323,280.8333394368491)"><path transform="matrix(0.0119,0,0,-0.0119,0,0)" d="M34 388L41 368L73 389C110 412 113 414 120 414C130 414 138 404 138 391C138 384 134 361 130 347L64 107C56 76 51 49 51 30C51 6 62 -9 81 -9C107 -9 143 12 241 85L231 103L205 86C176 67 153 56 144 56C137 56 131 66 131 76C131 86 133 95 138 116L215 420C219 437 221 448 221 456C221 473 212 482 196 482C174 482 137 461 62 408ZM228 712C199 712 170 679 170 645C170 620 185 604 209 604C240 604 264 633 264 671C264 695 249 712 228 712ZM881 241L881 300L641 300L641 538L582 538L582 300L342 300L342 241L582 241L582 0L641 0L641 241ZM1363 -3L1363 27L1311 30C1256 33 1246 44 1246 96L1246 700L1005 598L1012 548L1162 614L1162 96C1162 44 1151 33 1097 30L1041 27L1041 -3C1195 0 1195 0 1206 0C1237 0 1347 -3 1363 -3Z" stroke="rgb(0,0,0)" stroke-opacity="1" stroke-width="8" fill="rgb(0,0,0)" fill-opacity="1"></path></g></g></g></g></g></g></g><g><g><g><g><g><g><g transform="matrix(1,0,0,1,355.09999593098956,195.35000610351562)"><path transform="matrix(0.017,0,0,-0.017,0,0)" d="M390 646L463 646C541 646 577 641 580 629C583 621 585 602 584 592L580 528L608 528L635 692L544 691C456 690 388 689 353 689C316 689 252 690 166 691L71 692L53 528L82 528L97 588C102 610 109 626 115 633C121 640 159 646 196 646L308 646L222 125C206 34 204 31 164 28L113 25L109 -3L166 -2C206 -1 235 0 251 0C270 0 301 -1 340 -2L384 -3L387 25L328 28C302 29 292 37 292 58C292 67 293 74 296 93Z" stroke="rgb(0,0,0)" stroke-opacity="1" stroke-width="8" fill="rgb(0,0,0)" fill-opacity="1"></path></g></g></g></g><svg x="355.09999593098956" overflow="visible" y="171.1833394368491" height="9" width="10.366668701171875"><path d="M0.00,8.06 C 0.65 5.46, 2.59 5.46, 5.18 7.41  S 9.72 6.76, 10.37 5.46" style="fill:none;fill-opacity:1;stroke-width:1px;stroke:rgb(0,0,0);stroke-opacity:1;"></path></svg></g><g><g><g><g><g transform="matrix(1,0,0,1,366.46669514973956,175.21666056315135)"><path transform="matrix(0.0119,0,0,-0.0119,0,0)" d="M154 473C89 473 51 426 18 377C18 371 27 368 30 365L30 366C54 394 74 412 111 412C206 412 215 290 214 220C212 136 203 53 186 -29C140 -86 92 -181 65 -249C69 -257 74 -265 77 -273C98 -268 119 -260 139 -251C165 -183 189 -106 203 -36C387 199 540 317 547 438C550 493 485 453 459 446L459 435C502 284 287 130 220 19L220 23C302 358 258 473 154 473Z" stroke="rgb(0,0,0)" stroke-opacity="1" stroke-width="8" fill="rgb(0,0,0)" fill-opacity="1"></path></g></g></g></g><g><g><g><g transform="matrix(1,0,0,1,365.98333740234375,200.43333536783885)"><path transform="matrix(0.0119,0,0,-0.0119,0,0)" d="M34 388L41 368L73 389C110 412 113 414 120 414C130 414 138 404 138 391C138 384 134 361 130 347L64 107C56 76 51 49 51 30C51 6 62 -9 81 -9C107 -9 143 12 241 85L231 103L205 86C176 67 153 56 144 56C137 56 131 66 131 76C131 86 133 95 138 116L215 420C219 437 221 448 221 456C221 473 212 482 196 482C174 482 137 461 62 408ZM228 712C199 712 170 679 170 645C170 620 185 604 209 604C240 604 264 633 264 671C264 695 249 712 228 712Z" stroke="rgb(0,0,0)" stroke-opacity="1" stroke-width="8" fill="rgb(0,0,0)" fill-opacity="1"></path></g></g></g></g></g></g></g><g><g><g><g transform="matrix(1,0,0,1,413.31667073567706,22.350001017252907)"><path transform="matrix(0.017,0,0,-0.017,0,0)" d="M310 96L239 624C237 646 241 661 281 662L323 664L323 692L282 691C245 690 217 689 199 689C181 689 153 690 116 691L75 692L75 664L100 662C144 659 152 651 159 614L247 -8L296 -8L674 611C699 651 707 658 736 662L754 664L754 692L724 691C697 690 674 689 658 689C648 689 621 690 580 691L534 692L534 664L560 662C598 659 617 649 617 630C617 619 613 608 601 588Z" stroke="rgb(0,0,0)" stroke-opacity="1" stroke-width="8" fill="rgb(0,0,0)" fill-opacity="1"></path></g></g><g><g><g><g><g transform="matrix(1,0,0,1,426.56667073567706,15.31666666666697)"><path transform="matrix(0.0119,0,0,-0.0119,0,0)" d="M24 388L31 368L63 389C100 412 103 414 110 414C121 414 128 404 128 389C128 338 87 145 46 2L53 -9C78 -2 101 4 123 8C142 134 163 199 209 268C263 352 338 414 383 414C394 414 400 405 400 390C400 372 397 351 389 319L337 107C328 70 324 47 324 31C324 6 335 -9 354 -9C380 -9 416 12 514 85L504 103L478 86C449 67 427 56 417 56C410 56 404 65 404 76C404 81 405 92 406 96L472 372C479 401 483 429 483 446C483 469 472 482 452 482C410 482 341 444 282 389C244 354 216 320 164 247L202 408C206 426 208 438 208 449C208 470 200 482 185 482C164 482 125 460 52 408ZM1159 241L1159 300L919 300L919 538L860 538L860 300L620 300L620 241L860 241L860 0L919 0L919 241ZM1641 -3L1641 27L1589 30C1534 33 1524 44 1524 96L1524 700L1283 598L1290 548L1440 614L1440 96C1440 44 1429 33 1375 30L1319 27L1319 -3C1473 0 1473 0 1484 0C1515 0 1625 -3 1641 -3Z" stroke="rgb(0,0,0)" stroke-opacity="1" stroke-width="8" fill="rgb(0,0,0)" fill-opacity="1"></path></g></g></g></g><g><g><g><g transform="matrix(1,0,0,1,426.0833536783854,26.833334350585936)"><path transform="matrix(0.0119,0,0,-0.0119,0,0)" d="M34 388L41 368L73 389C110 412 113 414 120 414C130 414 138 404 138 391C138 384 134 361 130 347L64 107C56 76 51 49 51 30C51 6 62 -9 81 -9C107 -9 143 12 241 85L231 103L205 86C176 67 153 56 144 56C137 56 131 66 131 76C131 86 133 95 138 116L215 420C219 437 221 448 221 456C221 473 212 482 196 482C174 482 137 461 62 408ZM228 712C199 712 170 679 170 645C170 620 185 604 209 604C240 604 264 633 264 671C264 695 249 712 228 712Z" stroke="rgb(0,0,0)" stroke-opacity="1" stroke-width="8" fill="rgb(0,0,0)" fill-opacity="1"></path></g></g></g></g></g></g></g><g><g><g><g transform="matrix(1,0,0,1,493.56667073567706,114.06666056315134)"><path transform="matrix(0.017,0,0,-0.017,0,0)" d="M303 692L264 691C226 689 202 689 182 689C170 689 148 690 110 691L71 692L71 664L89 662C130 656 138 645 142 588L174 158C179 92 181 44 182 -8L232 -8C246 27 264 66 282 102L506 546L618 154C633 102 644 53 657 -8L708 -8L715 18C725 58 733 85 746 124L917 631C923 648 938 660 960 662L980 664L980 692L948 691C919 690 897 689 883 689C870 689 848 690 818 691L785 692L780 664L819 662C848 661 860 653 860 639C860 626 857 608 851 590L704 128L546 700L528 700C516 673 494 624 476 588L252 132L221 616C221 646 234 660 266 662L303 664Z" stroke="rgb(126,211,33)" stroke-opacity="1" stroke-width="8" fill="rgb(126,211,33)" fill-opacity="1"></path></g></g><g><g><g><g><g transform="matrix(1,0,0,1,510.11667887369794,116.88332722981787)"><path transform="matrix(0.0119,0,0,-0.0119,0,0)" d="M34 388L41 368L73 389C110 412 113 414 120 414C130 414 138 404 138 391C138 384 134 361 130 347L64 107C56 76 51 49 51 30C51 6 62 -9 81 -9C107 -9 143 12 241 85L231 103L205 86C176 67 153 56 144 56C137 56 131 66 131 76C131 86 133 95 138 116L215 420C219 437 221 448 221 456C221 473 212 482 196 482C174 482 137 461 62 408ZM228 712C199 712 170 679 170 645C170 620 185 604 209 604C240 604 264 633 264 671C264 695 249 712 228 712ZM881 241L881 300L641 300L641 538L582 538L582 300L342 300L342 241L582 241L582 0L641 0L641 241ZM1363 -3L1363 27L1311 30C1256 33 1246 44 1246 96L1246 700L1005 598L1012 548L1162 614L1162 96C1162 44 1151 33 1097 30L1041 27L1041 -3C1195 0 1195 0 1206 0C1237 0 1347 -3 1363 -3ZM1741 714L1686 714L1407 -169L1462 -169ZM1746 23L1746 -3C1933 -3 1933 0 1969 0C2005 0 2005 -3 2198 -3L2198 82C2083 77 2037 81 1852 77L2034 270C2131 373 2161 428 2161 503C2161 618 2083 689 1956 689C1884 689 1835 669 1786 619L1769 483L1798 483L1811 529C1827 587 1863 612 1930 612C2016 612 2071 558 2071 473C2071 398 2029 324 1916 204Z" stroke="rgb(126,211,33)" stroke-opacity="1" stroke-width="8" fill="rgb(126,211,33)" fill-opacity="1"></path></g></g></g></g></g></g></g></svg>
</svg>
